<?xml version="1.0" standalone="no"?>
<!DOCTYPE svg PUBLIC "-//W3C//DTD SVG 20010904//EN"
 "http://www.w3.org/TR/2001/REC-SVG-20010904/DTD/svg10.dtd">
<svg version="1.0" xmlns="http://www.w3.org/2000/svg"
 width="300.000000pt" height="300.000000pt" viewBox="0 0 300.000000 300.000000"
 preserveAspectRatio="xMidYMid meet">
<metadata>
Created by potrace 1.10, written by Peter Selinger 2001-2011
</metadata>
<g transform="translate(0.000000,300.000000) scale(0.100000,-0.100000)"
fill="#a092b2" stroke="none">
<path d="M1058 2640 c-4 -11 -181 -17 -218 -7 -14 4 -19 4 -12 1 9 -4 12 -66
12 -260 0 -140 2 -254 5 -254 4 0 19 7 35 15 33 17 33 19 21 83 -8 42 -8 44
20 54 35 12 41 44 7 34 -13 -3 -26 -6 -29 -6 -4 0 -10 -10 -14 -22 -6 -21 -8
-21 -12 -4 -3 10 0 23 6 29 6 6 11 24 11 39 0 23 4 28 24 28 32 0 73 37 82 72
6 26 4 27 -46 34 l-52 7 6 56 c5 44 4 51 -5 31 -5 -13 -9 -40 -7 -60 3 -30 7
-35 31 -38 36 -4 53 -35 31 -56 -8 -9 -22 -16 -30 -16 -8 0 -14 -5 -14 -11 0
-5 -4 -7 -10 -4 -5 3 -10 2 -10 -3 0 -6 -7 -12 -15 -16 -13 -5 -15 11 -14 114
0 66 5 121 10 121 5 1 15 2 22 3 6 1 17 -1 23 -6 6 -4 22 -9 35 -9 29 -2 119
36 119 51 0 13 -7 13 -12 0z"/>
<path d="M1575 2640 c11 -5 -94 -9 -234 -9 -140 -1 -257 -3 -259 -6 -7 -7 37
-73 54 -79 9 -3 29 -6 45 -6 16 0 29 -1 30 -2 4 -21 26 -375 22 -380 -8 -14 5
-9 43 17 83 56 160 15 184 -99 6 -30 20 -66 31 -80 10 -13 16 -31 13 -40 -3
-9 -1 -16 5 -16 6 0 11 9 11 19 0 36 -62 196 -93 238 -32 45 -47 50 -103 34
l-30 -8 -33 165 c-18 90 -29 168 -24 172 13 12 182 42 278 50 50 4 106 14 125
23 l35 15 -60 0 c-39 0 -53 -3 -40 -8z m-315 -41 c0 -5 -4 -8 -9 -5 -4 3 -16
-3 -26 -14 -23 -25 -60 -22 -87 7 l-21 23 71 0 c44 0 72 -4 72 -11z m12 -364
c3 -14 1 -28 -3 -31 -5 -3 -9 -2 -10 3 -5 42 -5 62 1 58 4 -3 10 -16 12 -30z"/>
<path d="M1685 2640 c3 -5 13 -10 21 -10 8 0 12 5 9 10 -3 6 -13 10 -21 10 -8
0 -12 -4 -9 -10z"/>
<path d="M1811 2633 c-43 -3 -68 -9 -76 -19 -6 -9 -23 -17 -38 -17 -31 -2 -25
21 -110 -407 -51 -258 -53 -265 -77 -265 -13 0 -25 -6 -28 -13 -3 -11 0 -12
16 -3 27 15 29 14 35 -9 4 -15 14 -20 40 -20 18 0 70 -3 113 -6 51 -4 74 -2
66 4 -11 8 -9 37 12 165 14 85 26 164 25 174 -1 23 -37 -119 -44 -173 -3 -22
-10 -55 -15 -73 -5 -19 -8 -37 -6 -40 3 -3 -2 -14 -9 -25 -11 -14 -22 -17 -57
-13 -24 4 -55 6 -70 6 -36 1 -43 27 -24 98 8 32 25 103 37 158 12 55 32 145
45 200 25 111 39 186 36 197 -1 4 10 16 26 25 15 10 33 24 41 31 9 9 24 11 45
6 17 -4 39 -7 48 -6 16 1 16 -3 -3 -40 -11 -22 -18 -43 -15 -46 3 -3 6 -1 6 4
0 6 7 19 15 30 14 17 15 -2 13 -193 -1 -117 -5 -213 -9 -213 -11 0 -21 38 -14
50 3 5 1 18 -5 27 -8 14 -10 -14 -5 -107 4 -69 7 -134 8 -145 2 -15 -5 -21
-25 -23 -26 -3 -38 -25 -20 -35 4 -2 32 -1 62 3 l55 7 -60 3 c-55 2 -57 3 -25
10 19 5 38 6 42 4 5 -3 8 10 8 28 0 122 12 636 15 651 2 9 0 16 -3 15 -4 -1
-36 -3 -71 -5z"/>
<path d="M971 2555 c1 -11 5 -31 9 -45 8 -24 8 -24 9 5 0 17 -4 37 -9 45 -8
12 -10 11 -9 -5z"/>
<path d="M1340 2548 c0 -8 9 -14 20 -14 24 0 21 20 -3 24 -9 2 -17 -3 -17 -10z"/>
<path d="M1544 2552 c4 -7 1 -15 -8 -18 -23 -9 -19 -23 4 -17 28 8 33 18 13
34 -12 10 -15 10 -9 1z"/>
<path d="M1365 2512 c-27 -6 -36 -23 -22 -41 7 -8 12 -37 12 -65 0 -50 1 -51
30 -51 18 0 29 5 28 12 -2 7 4 10 12 7 10 -4 7 9 -11 42 -20 37 -23 53 -15 65
13 21 -5 37 -34 31z"/>
<path d="M1802 2481 c-6 -17 -7 -31 -3 -31 8 0 22 52 16 58 -1 2 -7 -11 -13
-27z"/>
<path d="M1501 2495 c-1 -5 9 -59 21 -120 17 -81 24 -101 26 -76 2 19 -3 58
-11 85 -8 28 -19 67 -25 86 -5 19 -10 31 -11 25z"/>
<path d="M1832 2329 c-5 -13 -13 -35 -17 -49 -11 -38 10 -12 24 29 13 39 6 57
-7 20z"/>
<path d="M1393 2298 c2 -32 3 -33 23 -14 9 9 10 17 4 21 -5 3 -10 0 -11 -7 0
-7 -4 -4 -9 7 -8 17 -8 16 -7 -7z"/>
<path d="M2622 2308 c7 -20 54 -22 61 -4 5 13 -1 16 -29 16 -24 0 -34 -4 -32
-12z"/>
<path d="M969 2301 c8 -5 21 -7 29 -4 8 3 18 0 22 -7 5 -8 15 -15 24 -16 12
-2 13 1 3 17 -8 14 -23 19 -52 19 -27 0 -36 -3 -26 -9z"/>
<path d="M2695 2290 c4 -6 -8 -10 -27 -11 -18 0 -27 -3 -20 -6 11 -4 19 -113
8 -113 -2 0 -15 6 -29 13 -17 9 -23 17 -17 28 8 14 13 52 11 77 -1 6 -8 12
-16 12 -10 0 -17 -14 -21 -40 -4 -24 -12 -40 -20 -40 -20 0 -17 -14 9 -37 44
-42 144 -36 195 11 l24 21 -28 5 c-24 4 -30 12 -37 48 -5 27 -14 42 -23 42 -8
0 -12 -4 -9 -10z m20 -64 c16 -46 13 -56 -21 -56 -22 0 -24 4 -24 51 0 41 3
50 16 47 9 -2 22 -21 29 -42z"/>
<path d="M1049 2233 c-2 -24 -2 -25 -6 -5 -2 12 -8 22 -13 22 -5 0 -7 -6 -4
-14 3 -8 1 -17 -5 -20 -17 -11 -60 5 -63 22 -3 11 -6 7 -9 -10 -6 -26 -5 -26
53 -30 l58 -3 0 33 c0 39 -9 43 -11 5z"/>
<path d="M1039 2023 c39 -79 71 -145 71 -148 0 -8 -162 -87 -168 -81 -3 3 -12
-3 -20 -15 -8 -11 -12 -22 -9 -25 2 -3 57 21 121 52 94 46 114 59 105 70 -6 8
-8 14 -3 14 5 0 -1 7 -13 15 -12 8 -47 66 -78 128 -31 61 -61 117 -67 122 -5
6 22 -54 61 -132z"/>
<path d="M2539 2132 c-3 -20 -2 -29 4 -23 5 5 7 19 5 32 -3 20 -5 19 -9 -9z"/>
<path d="M2905 2080 c6 -113 16 -190 25 -190 10 0 2 99 -16 200 l-13 75 4 -85z"/>
<path d="M2492 2125 c-7 -14 -12 -34 -11 -43 0 -9 7 1 15 22 16 45 13 59 -4
21z"/>
<path d="M1175 2119 c-18 -11 -24 -19 -14 -19 9 0 24 9 34 20 22 24 19 24 -20
-1z"/>
<path d="M2416 2118 c-3 -13 -7 -67 -11 -120 -3 -54 -10 -109 -15 -124 -6 -14
-7 -31 -3 -37 14 -23 35 73 40 186 5 107 0 150 -11 95z"/>
<path d="M777 2098 c-21 -11 -36 -22 -33 -25 5 -5 86 35 86 42 0 9 -14 4 -53
-17z"/>
<path d="M845 2090 c-4 -6 -1 -17 5 -25 7 -8 9 -15 5 -15 -5 0 0 -9 9 -19 14
-15 17 -33 14 -80 -1 -33 0 -61 5 -61 15 0 26 4 77 28 52 24 78 57 54 66 -9 3
-25 6 -37 6 -30 1 -68 31 -70 58 -1 12 -7 22 -13 22 -7 0 -14 7 -18 15 -6 17
-22 20 -31 5z m45 -45 c0 -9 10 -26 23 -38 12 -12 31 -33 42 -46 l20 -24 -22
5 c-16 4 -23 2 -23 -8 0 -16 -19 -19 -21 -4 -1 6 -3 15 -4 20 -1 6 -3 20 -4
33 0 13 -10 33 -20 44 -11 12 -17 24 -14 27 11 11 23 6 23 -9z"/>
<path d="M1111 2076 c-8 -10 -8 -20 4 -42 l15 -29 0 43 c0 46 -2 49 -19 28z"/>
<path d="M35 2059 c-37 -6 -38 -6 -8 -8 18 0 37 -8 43 -18 9 -15 11 -15 7 -2
-4 13 3 18 31 23 68 11 114 7 128 -11 13 -17 14 -17 8 0 -6 15 2 17 80 17 47
0 86 -3 86 -7 1 -5 3 -64 5 -132 3 -68 7 -127 10 -130 3 -3 4 58 3 135 l-3
139 -175 0 c-96 1 -193 -2 -215 -6z"/>
<path d="M458 2063 c12 -2 30 -2 40 0 9 3 -1 5 -23 4 -22 0 -30 -2 -17 -4z"/>
<path d="M716 2052 c-2 -4 10 -35 28 -67 18 -33 50 -91 71 -130 41 -77 65
-108 65 -86 0 17 -143 291 -152 291 -4 0 -9 -4 -12 -8z"/>
<path d="M2738 1960 c-3 -52 -8 -104 -11 -115 -3 -11 -6 -23 -6 -27 -1 -5 -8
-8 -16 -8 -9 0 -12 -6 -8 -16 4 -10 -1 -17 -15 -21 -11 -3 -23 -11 -26 -19 -4
-11 7 -14 55 -14 42 0 58 -3 53 -11 -4 -8 -29 -10 -73 -6 -36 3 -59 3 -51 0
23 -9 30 -24 31 -73 0 -25 5 -56 9 -70 6 -16 7 1 3 45 -3 39 -7 74 -10 78 -3
5 8 7 23 5 23 -2 28 -7 26 -23 -2 -11 -5 -86 -6 -168 -2 -81 -6 -150 -10 -154
-3 -3 -6 7 -7 23 -1 29 -1 29 -9 4 -12 -36 -12 -70 0 -70 6 0 10 7 10 15 0 12
5 13 26 4 15 -5 29 -7 32 -5 3 3 -3 8 -12 12 -14 5 -16 27 -16 171 0 162 0
164 25 189 14 14 23 30 20 35 -7 11 43 32 61 25 6 -2 16 0 22 6 10 10 59 -20
104 -64 26 -25 38 -22 38 10 0 15 -3 22 -8 15 -11 -18 -50 19 -56 53 -6 41 -6
41 -16 17 -17 -41 -32 -27 -24 22 6 41 4 45 -11 38 -16 -6 -18 -2 -12 39 4 25
7 50 8 55 1 4 0 26 -1 48 l-2 40 -13 -50 c-7 -27 -14 -89 -14 -137 -1 -66 -4
-86 -14 -82 -7 2 -35 -2 -62 -11 -28 -8 -60 -15 -72 -15 -23 0 -23 0 -4 19 52
52 71 135 53 236 -9 49 -9 47 -14 -45z"/>
<path d="M2666 1985 c2 -33 9 -64 13 -68 5 -5 4 15 -1 45 -13 81 -18 89 -12
23z"/>
<path d="M2481 1970 c0 -51 22 -177 34 -188 4 -4 5 9 1 28 -4 19 -14 73 -21
120 -10 66 -13 75 -14 40z"/>
<path d="M206 1971 c-17 -32 -3 -59 20 -40 18 15 47 -17 35 -40 -7 -12 -5 -20
7 -28 15 -9 17 -4 17 41 0 89 -47 129 -79 67z"/>
<path d="M2974 1955 c-22 -41 -38 -95 -29 -95 2 0 12 17 20 37 9 21 20 40 26
44 6 3 9 17 7 30 -3 22 -5 21 -24 -16z"/>
<path d="M90 1951 c-5 -11 -10 -30 -10 -43 0 -18 -2 -20 -10 -8 -8 12 -10 10
-11 -10 -1 -14 -1 -33 0 -44 1 -16 -1 -17 -14 -6 -9 8 -15 8 -15 2 0 -6 5 -14
10 -17 6 -3 10 -15 10 -26 0 -10 5 -19 10 -19 6 0 10 6 10 13 0 14 59 110 71
115 12 5 -3 42 -22 52 -14 8 -20 6 -29 -9z m40 -21 c0 -20 -32 -60 -48 -60
-13 0 -11 4 6 16 12 8 22 24 22 35 0 10 5 19 10 19 6 0 10 -5 10 -10z"/>
<path d="M1250 1956 c0 -12 12 -16 48 -18 l47 -1 -50 -7 c-64 -9 -60 -10 54
-13 63 -2 85 0 65 5 -16 5 -49 15 -74 23 -88 27 -90 27 -90 11z"/>
<path d="M2578 1945 c-8 -8 3 -44 31 -107 31 -68 34 -59 7 15 -13 34 -25 70
-27 80 -2 11 -7 16 -11 12z"/>
<path d="M0 1923 c0 -13 5 -23 10 -23 13 0 13 11 0 30 -8 12 -10 11 -10 -7z"/>
<path d="M2778 1890 c-3 -19 -9 -46 -13 -60 -3 -15 0 -11 10 10 9 19 14 46 13
60 -3 21 -4 20 -10 -10z"/>
<path d="M1178 1903 c12 -2 32 -2 45 0 12 2 2 4 -23 4 -25 0 -35 -2 -22 -4z"/>
<path d="M337 1841 c-10 -95 -10 -98 18 -103 30 -6 30 -6 6 91 l-18 75 -6 -63z"/>
<path d="M2446 1874 c-8 -20 -8 -59 0 -52 7 8 17 68 11 68 -3 0 -8 -7 -11 -16z"/>
<path d="M140 1855 c0 -5 7 -45 15 -88 19 -101 61 -184 82 -163 4 3 -2 14 -11
25 -22 24 -52 103 -61 161 -7 42 -24 87 -25 65z"/>
<path d="M196 1820 c7 -55 37 -121 66 -146 17 -16 15 -9 -10 36 -16 30 -33 71
-37 90 -12 56 -26 71 -19 20z"/>
<path d="M244 1811 c6 -60 34 -95 77 -98 l34 -3 -35 13 c-35 12 -55 41 -72
102 -6 24 -7 22 -4 -14z"/>
<path d="M14 1798 c3 -14 9 -34 13 -44 4 -12 3 -15 -6 -10 -9 6 -11 -1 -5 -31
10 -52 8 -329 -2 -378 -5 -22 -7 -100 -4 -173 3 -77 1 -133 -4 -135 -6 -2 -6
-11 -1 -23 4 -10 7 -25 6 -31 -1 -7 3 -13 8 -13 5 0 12 -9 16 -19 9 -30 44
-33 70 -5 13 14 34 24 49 24 19 0 26 5 26 20 0 12 7 20 17 20 9 0 30 10 47 23
37 27 134 62 144 52 4 -4 8 -66 9 -138 1 -72 3 -188 4 -257 2 -69 0 -131 -5
-138 -4 -6 -5 -16 -2 -21 7 -11 -22 -37 -64 -55 l-35 -15 55 1 c30 0 47 2 37
5 -22 6 -12 23 14 23 20 0 21 4 18 625 -2 603 -3 624 -20 598 -10 -15 -14 -32
-10 -38 4 -5 7 -59 7 -118 -1 -60 1 -110 5 -112 7 -5 3 -146 -6 -253 -6 -65
-9 -74 -34 -86 -14 -8 -47 -17 -73 -21 -26 -4 -49 -13 -52 -21 -6 -16 -75 -49
-84 -40 -3 3 -13 23 -22 45 -15 32 -16 43 -5 67 12 28 38 194 31 201 -1 2 -15
-27 -29 -64 -23 -58 -27 -86 -29 -195 -3 -111 -5 -128 -20 -132 -10 -2 -21 0
-24 6 -3 5 -5 74 -5 154 1 79 -2 144 -6 144 -5 0 -5 51 -1 113 12 182 15 411
6 422 -5 5 -16 19 -24 30 -15 19 -15 19 -10 -7z"/>
<path d="M2430 1796 c0 -17 14 -29 23 -20 8 8 -3 34 -14 34 -5 0 -9 -6 -9 -14z"/>
<path d="M455 1533 c9 -297 11 -405 7 -415 -5 -15 -6 -586 -1 -582 14 8 21
215 20 614 0 228 -2 430 -4 448 -2 17 -4 70 -5 117 -1 57 -6 85 -14 85 -8 0
-9 -66 -3 -267z"/>
<path d="M87 1730 c-4 -25 -5 -113 -2 -195 3 -83 5 -186 6 -230 l1 -80 15 35
c16 36 15 119 -6 420 -6 87 -7 91 -14 50z"/>
<path d="M2806 1753 c-15 -4 -16 -7 -5 -14 11 -8 9 -14 -12 -32 -22 -20 -26
-31 -25 -73 1 -27 3 -97 4 -156 2 -92 4 -107 20 -111 9 -2 25 4 36 12 17 15
18 14 11 -42 -5 -39 -4 -57 4 -57 6 0 11 10 12 23 1 21 1 21 9 -3 6 -18 8 -8
6 32 -2 32 1 55 6 52 4 -3 8 42 8 99 0 102 -15 176 -45 220 -7 10 -11 27 -8
38 3 10 4 18 2 18 -2 -1 -13 -4 -23 -6z m19 -215 c0 -96 -4 -141 -12 -149 -7
-7 -14 -11 -17 -8 -2 2 -7 40 -10 84 -4 44 -9 107 -12 140 -4 49 -2 64 13 82
16 20 19 20 27 5 6 -9 10 -79 11 -154z"/>
<path d="M2528 1743 c18 -2 45 -2 60 0 15 2 0 4 -33 4 -33 0 -45 -2 -27 -4z"/>
<path d="M132 1705 c0 -11 4 -31 8 -45 6 -20 8 -21 8 -5 0 11 -4 31 -8 45 -6
20 -8 21 -8 5z"/>
<path d="M2563 1675 c0 -22 2 -30 4 -17 2 12 2 30 0 40 -3 9 -5 -1 -4 -23z"/>
<path d="M630 1674 c-39 -24 -50 -56 -32 -93 18 -38 34 -31 19 9 -9 24 -8 32
8 50 11 12 33 28 50 35 29 13 29 13 5 14 -14 0 -36 -7 -50 -15z"/>
<path d="M257 1634 c3 -8 11 -14 19 -14 9 0 14 -13 15 -37 1 -21 5 -51 10 -68
7 -26 8 -25 4 10 -3 22 -5 54 -5 70 0 22 -7 33 -24 41 -20 9 -23 9 -19 -2z"/>
<path d="M713 1627 c-49 -24 -55 -37 -15 -37 15 0 45 -3 67 -6 l40 -6 -27 25
c-19 18 -23 28 -15 36 16 16 -1 12 -50 -12z"/>
<path d="M640 1554 c0 -14 3 -14 15 -4 8 7 15 14 15 16 0 2 -7 4 -15 4 -8 0
-15 -7 -15 -16z"/>
<path d="M703 1556 c0 -8 8 -11 19 -8 10 2 18 7 18 11 0 4 -8 7 -18 8 -10 1
-19 -4 -19 -11z"/>
<path d="M795 1559 c-4 -6 -4 -13 0 -17 3 -3 9 -1 13 5 6 9 14 9 34 -1 23 -12
27 -12 32 1 5 12 9 13 20 4 10 -8 16 -9 21 -1 3 6 10 8 15 5 5 -3 11 -1 15 5
4 6 -21 10 -69 10 -42 0 -78 -5 -81 -11z"/>
<path d="M1438 1472 c3 -46 0 -67 -10 -73 -8 -5 8 -9 42 -9 30 0 50 4 43 8 -7
5 -14 35 -15 73 -3 65 -3 65 -33 65 l-30 0 3 -64z"/>
<path d="M1264 1517 c-3 -9 -14 -14 -27 -12 -15 3 -18 2 -10 -6 8 -8 31 -9 69
-4 36 4 52 10 44 15 -7 4 -19 6 -27 3 -7 -3 -20 0 -28 7 -12 10 -16 9 -21 -3z"/>
<path d="M600 1501 c-12 -24 -13 -51 -2 -51 5 0 9 6 9 13 0 6 3 22 7 35 9 27
0 29 -14 3z"/>
<path d="M630 1510 c0 -5 18 -10 39 -10 38 0 40 -1 39 -32 -1 -38 -23 -67 -32
-43 -4 11 -14 13 -38 8 -18 -3 -34 -10 -36 -15 -2 -4 -12 -8 -21 -8 -10 0 -31
-10 -46 -22 l-27 -21 5 -336 c4 -185 8 -356 11 -381 3 -25 8 -64 11 -87 3 -27
0 -45 -9 -52 -19 -16 -25 -89 -9 -95 15 -6 17 -42 4 -50 -5 -4 -15 -4 -23 -1
-20 8 -21 103 -2 133 8 12 12 27 9 32 -3 5 -27 -21 -53 -58 -44 -63 -47 -72
-52 -145 -4 -68 -3 -78 13 -83 11 -4 17 -13 15 -26 -4 -27 -33 -47 -48 -32
-15 15 -24 163 -12 206 l10 38 -111 0 -112 0 0 -69 c0 -66 1 -69 18 -54 9 9
17 24 17 35 0 10 6 18 13 18 9 0 9 2 -1 9 -18 11 5 20 71 27 47 5 49 4 44 -15
-3 -12 -1 -24 4 -27 5 -3 7 -9 4 -14 -3 -5 -1 -11 5 -15 5 -3 7 -19 3 -36 -3
-17 0 -41 7 -55 17 -31 11 -36 -44 -38 -77 -4 -61 -13 34 -20 82 -6 95 -5 124
14 19 11 44 20 57 20 16 0 20 3 12 11 -7 7 -22 8 -47 1 -36 -10 -41 -6 -35 34
0 4 -4 10 -10 13 -7 5 -7 20 1 50 9 36 14 42 32 37 12 -3 29 -6 39 -6 9 0 17
-6 17 -14 0 -8 5 -18 10 -21 12 -7 32 3 26 14 -3 4 -8 239 -12 522 l-6 515 38
17 c22 9 68 17 104 19 36 1 70 6 77 11 7 5 21 4 33 -3 19 -10 21 -9 19 7 -2
10 0 23 4 29 5 9 -3 10 -27 4 -26 -6 -36 -4 -40 7 -3 8 -1 11 4 8 22 -14 8 5
-17 23 -33 23 -103 38 -103 22z m-167 -1120 c-3 -11 -12 -20 -20 -20 -8 0 -12
3 -10 8 2 4 7 15 10 25 9 24 27 12 20 -13z"/>
<path d="M1380 1488 c-14 -5 -73 -10 -132 -9 -92 1 -108 -1 -108 -15 0 -12 7
-14 30 -9 24 5 30 3 30 -10 0 -13 -6 -16 -24 -11 -16 4 -26 1 -29 -8 -4 -9 3
-16 16 -20 46 -12 54 -8 49 25 -4 24 -1 30 9 27 8 -3 24 -2 36 3 15 5 23 4 27
-7 3 -8 11 -14 18 -14 9 0 8 3 -2 10 -13 9 -13 10 0 11 8 0 28 2 44 4 26 4 28
2 24 -26 -4 -24 -1 -29 16 -30 21 0 21 -1 1 -9 -19 -8 -19 -9 3 -9 20 -1 22 3
22 54 0 30 -1 55 -2 54 -2 0 -14 -5 -28 -11z"/>
<path d="M873 1477 c-4 -7 -16 -16 -25 -20 -26 -9 -22 -37 5 -37 21 1 22 1 3
15 -11 8 -15 15 -10 15 6 0 19 -7 30 -15 25 -19 35 -19 27 2 -4 11 -3 14 6 9
15 -10 10 -37 -9 -53 -13 -11 -10 -12 18 -11 21 2 34 8 38 20 3 10 12 18 20
18 9 0 14 10 14 28 0 27 -3 29 -46 31 -26 0 -50 4 -55 6 -4 3 -11 -1 -16 -8z"/>
<path d="M1232 1408 c2 -19 10 -24 43 -26 34 -2 41 0 42 17 2 20 -21 31 -65
31 -19 0 -23 -5 -20 -22z"/>
<path d="M1018 1413 c27 -5 29 -23 2 -23 -11 0 -20 -5 -20 -11 0 -6 8 -7 23
-3 12 5 54 8 92 7 69 -1 66 0 -25 14 l-45 7 45 7 c39 5 36 6 -25 6 -38 0 -60
-2 -47 -4z"/>
<path d="M967 1404 c-8 -8 1 -24 14 -24 5 0 9 7 9 15 0 15 -12 20 -23 9z"/>
<path d="M1554 1381 c3 -5 6 -220 6 -479 1 -258 5 -483 9 -499 6 -20 4 -40 -5
-62 -7 -17 -9 -29 -4 -26 6 3 10 -1 10 -10 0 -8 9 -19 21 -23 24 -9 91 -3 84
8 -2 4 -16 6 -30 5 -14 -2 -25 1 -25 6 0 5 -5 9 -11 9 -5 0 -7 -4 -4 -10 3 -5
-1 -10 -9 -10 -20 0 -21 39 -1 46 8 4 12 10 9 15 -3 5 2 12 10 15 12 5 13 9 3
19 -8 9 -16 10 -24 3 -10 -8 -13 -4 -13 16 0 14 5 26 11 26 5 0 7 -6 3 -12 -4
-7 2 -4 13 7 19 20 19 20 -1 30 -24 12 -23 -24 -27 530 -3 379 -4 405 -21 405
-5 0 -7 -4 -4 -9z"/>
<path d="M1453 1373 c9 -2 25 -2 35 0 9 3 1 5 -18 5 -19 0 -27 -2 -17 -5z"/>
<path d="M338 1318 c-2 -13 -1 -39 3 -58 5 -30 7 -26 8 23 1 58 -4 74 -11 35z"/>
<path d="M1240 1320 l-185 -5 5 -220 6 -220 2 218 2 217 215 0 215 0 0 -214
c0 -196 -2 -215 -17 -219 -14 -4 -12 -5 5 -6 l22 -1 -2 228 -3 227 -40 0 c-22
0 -123 -2 -225 -5z"/>
<path d="M590 1315 c0 -4 6 -18 14 -33 16 -32 20 -243 4 -220 -7 9 -8 8 -4 -5
3 -10 6 -53 6 -95 l0 -77 35 -1 34 0 -24 22 c-21 19 -25 33 -25 77 l0 54 33
-4 c29 -4 30 -3 12 8 -25 16 -45 42 -38 52 2 4 10 4 16 0 7 -4 4 6 -7 22 l-18
30 29 -30 c16 -17 33 -43 37 -58 4 -19 13 -27 29 -27 18 0 22 6 23 35 0 28 -3
35 -18 35 -15 0 -17 -3 -8 -19 5 -11 10 -23 10 -28 -1 -4 -7 3 -14 17 -8 14
-12 28 -10 32 3 5 1 8 -5 8 -16 0 -61 46 -54 54 4 4 8 28 9 54 3 84 3 85 17
74 9 -8 62 -9 161 -6 118 5 150 3 157 -8 5 -7 9 -44 9 -81 l0 -68 -92 0 c-112
1 -176 -4 -185 -12 -3 -4 7 -7 24 -7 31 0 31 0 27 -50 -1 -27 -8 -59 -14 -71
-7 -11 -9 -30 -7 -41 4 -13 -3 -29 -19 -44 l-24 -25 164 1 165 2 -1 87 c0 58
-4 88 -12 89 -6 0 -22 3 -36 7 -24 5 -24 5 -2 -4 15 -7 22 -18 21 -38 0 -15
-3 -22 -6 -15 -2 6 -11 12 -19 12 -9 0 -12 -4 -9 -10 4 -6 -8 -10 -28 -10 -58
0 -127 -12 -121 -21 3 -5 44 -6 92 -3 65 4 83 3 72 -5 -13 -10 -13 -13 2 -24
15 -12 14 -14 -15 -25 -18 -6 -66 -12 -107 -14 -71 -3 -75 -2 -78 20 -2 12 2
22 8 22 6 0 8 5 5 10 -3 6 -11 10 -16 10 -6 0 -7 -4 -4 -10 3 -5 2 -10 -4 -10
-15 0 -22 16 -15 35 4 10 14 15 24 12 15 -4 18 1 15 32 -2 20 -1 49 2 64 l6
29 91 -7 c73 -6 96 -11 114 -29 l24 -21 -4 127 -3 128 -222 0 c-123 0 -223 -2
-223 -5z"/>
<path d="M240 1225 c0 -71 3 -85 16 -85 12 0 14 7 10 28 -3 15 -7 53 -8 85 -4
88 -18 67 -18 -28z"/>
<path d="M2853 1158 c-2 -66 -7 -116 -14 -124 -7 -8 -9 -17 -6 -20 21 -22 49
186 30 233 -5 14 -9 -16 -10 -89z"/>
<path d="M355 1220 c-12 -49 -13 -70 -4 -64 11 6 22 69 17 86 -3 7 -9 -3 -13
-22z"/>
<path d="M2444 1025 c0 -99 2 -138 3 -87 2 51 2 132 0 180 -1 48 -3 6 -3 -93z"/>
<path d="M845 1092 c-7 -19 -8 -19 40 -12 l40 5 -37 11 c-31 10 -38 9 -43 -4z"/>
<path d="M1090 1091 c0 -5 9 -11 20 -14 24 -6 27 8 4 17 -21 8 -24 8 -24 -3z"/>
<path d="M813 1028 c-5 -10 -4 -10 82 -8 38 1 76 6 85 11 10 6 -16 8 -73 7
-49 -2 -91 -6 -94 -10z"/>
<path d="M2833 945 c0 -27 2 -38 4 -22 2 15 2 37 0 50 -2 12 -4 0 -4 -28z"/>
<path d="M807 933 c-6 -9 151 -8 160 1 4 3 -30 6 -75 6 -44 0 -83 -3 -85 -7z"/>
<path d="M668 853 c18 -2 45 -2 60 0 15 2 0 4 -33 4 -33 0 -45 -2 -27 -4z"/>
<path d="M1067 853 c-10 -9 -9 -443 1 -443 4 0 6 97 4 215 l-3 215 79 0 c43 0
140 3 215 7 l137 6 0 -221 c0 -122 4 -222 8 -222 5 0 8 33 7 73 -1 39 -2 141
-3 225 l-2 152 -218 0 c-120 0 -222 -3 -225 -7z"/>
<path d="M596 633 c3 -120 8 -220 10 -222 2 -2 4 95 4 217 0 151 -3 222 -11
222 -7 0 -8 -66 -3 -217z"/>
<path d="M747 703 c-12 -11 -8 -23 8 -23 8 0 15 7 15 15 0 16 -12 20 -23 8z"/>
<path d="M810 695 c0 -8 7 -15 15 -15 8 0 15 7 15 15 0 8 -7 15 -15 15 -8 0
-15 -7 -15 -15z"/>
<path d="M870 695 c0 -8 7 -15 15 -15 8 0 15 7 15 15 0 8 -7 15 -15 15 -8 0
-15 -7 -15 -15z"/>
<path d="M2653 573 c0 -76 2 -130 4 -120 4 14 8 15 18 7 12 -10 13 10 12 119
-2 114 -4 131 -18 131 -15 0 -17 -17 -16 -137z"/>
<path d="M1040 538 c-3 -75 -1 -134 3 -129 4 4 6 66 5 137 l-3 129 -5 -137z"/>
<path d="M747 643 c-11 -10 -8 -20 8 -27 10 -4 15 1 15 14 0 20 -11 26 -23 13z"/>
<path d="M810 629 c0 -12 5 -19 12 -17 18 6 20 25 3 31 -10 5 -15 0 -15 -14z"/>
<path d="M0 632 c0 -4 15 -6 34 -4 34 4 70 -12 76 -33 1 -5 7 -20 13 -33 8
-16 7 -26 -1 -34 -7 -7 -12 -20 -12 -29 0 -10 -7 -25 -16 -33 -14 -15 -13 -16
14 -16 26 0 31 5 40 41 8 33 7 46 -6 70 -10 16 -21 29 -25 29 -5 0 -6 4 -2 9
11 19 -27 41 -71 41 -24 0 -44 -4 -44 -8z"/>
<path d="M870 624 c0 -17 22 -14 28 4 2 7 -3 12 -12 12 -9 0 -16 -7 -16 -16z"/>
<path d="M1095 620 c3 -5 13 -10 21 -10 8 0 12 5 9 10 -3 6 -13 10 -21 10 -8
0 -12 -4 -9 -10z"/>
<path d="M22 590 c-31 -13 -28 -15 18 -16 33 -1 38 1 29 12 -13 16 -16 16 -47
4z"/>
<path d="M175 570 c-10 -11 -15 -23 -12 -27 4 -3 7 -1 7 6 0 7 6 11 13 8 8 -3
13 3 13 14 0 23 1 23 -21 -1z"/>
<path d="M213 575 c4 -9 7 -19 7 -21 0 -2 7 -4 15 -4 22 0 18 18 -7 31 -18 10
-20 9 -15 -6z"/>
<path d="M307 583 c-14 -13 -6 -33 13 -33 11 0 20 4 20 9 0 13 -26 32 -33 24z"/>
<path d="M742 568 c6 -18 28 -21 28 -4 0 9 -7 16 -16 16 -9 0 -14 -5 -12 -12z"/>
<path d="M810 565 c0 -8 7 -15 15 -15 8 0 15 7 15 15 0 8 -7 15 -15 15 -8 0
-15 -7 -15 -15z"/>
<path d="M870 565 c0 -8 7 -15 15 -15 8 0 15 7 15 15 0 8 -7 15 -15 15 -8 0
-15 -7 -15 -15z"/>
<path d="M251 503 l-1 -42 -52 -4 -53 -3 60 -2 61 -2 -4 38 c-5 56 -10 62 -11
15z"/>
<path d="M167 523 c-4 -3 -7 -18 -6 -32 1 -26 1 -25 10 3 9 31 7 41 -4 29z"/>
<path d="M2205 459 c6 -9 45 -8 45 2 0 4 -11 7 -25 7 -13 0 -22 -4 -20 -9z"/>
<path d="M2338 463 c12 -2 32 -2 45 0 12 2 2 4 -23 4 -25 0 -35 -2 -22 -4z"/>
<path d="M2530 449 c0 -11 5 -17 10 -14 6 3 10 13 10 21 0 8 -4 14 -10 14 -5
0 -10 -9 -10 -21z"/>
<path d="M2 411 c2 -11 16 -16 51 -17 57 -2 69 -10 36 -23 -16 -6 -18 -10 -8
-10 18 -1 33 -27 24 -41 -3 -5 3 -13 13 -19 17 -9 19 -5 20 60 l2 70 -70 -2
c-59 -2 -70 -5 -68 -18z"/>
<path d="M2628 423 c-19 -5 -25 -33 -7 -33 5 0 7 -4 4 -10 -4 -6 11 -10 39
-10 26 0 46 -5 49 -12 3 -8 6 -6 6 5 1 20 -1 20 81 1 106 -25 120 -27 120 -16
0 13 -14 17 -110 32 -42 7 -79 18 -83 26 -4 8 -18 14 -30 13 -20 0 -21 -1 -3
-8 12 -4 15 -10 9 -14 -6 -4 -18 2 -28 13 -10 11 -21 19 -24 19 -3 -1 -14 -3
-23 -6z"/>
<path d="M917 403 c18 -2 50 -2 70 0 21 2 7 4 -32 4 -38 0 -55 -2 -38 -4z"/>
<path d="M2490 395 c0 -8 9 -15 20 -15 24 0 27 15 4 24 -22 9 -24 8 -24 -9z"/>
<path d="M560 380 c0 -5 7 -10 15 -10 8 0 15 5 15 10 0 6 -7 10 -15 10 -8 0
-15 -4 -15 -10z"/>
<path d="M1520 376 c0 -24 -126 -29 -537 -24 -329 5 -383 3 -387 -9 -8 -19 1
-33 20 -33 8 0 13 4 10 9 -10 16 22 20 81 10 33 -5 215 -9 418 -8 198 1 365 1
370 -1 24 -6 37 0 27 13 -8 10 -6 16 9 25 23 14 25 32 4 32 -8 0 -15 -6 -15
-14z"/>
<path d="M2448 385 c-3 -3 -35 -6 -71 -7 -36 -1 -64 -5 -61 -9 2 -4 -2 -10 -8
-13 -7 -3 -4 -4 7 -2 11 3 45 7 75 11 48 5 105 24 74 25 -6 0 -13 -2 -16 -5z"/>
<path d="M1783 373 c9 -2 25 -2 35 0 9 3 1 5 -18 5 -19 0 -27 -2 -17 -5z"/>
<path d="M1958 373 c12 -2 30 -2 40 0 9 3 -1 5 -23 4 -22 0 -30 -2 -17 -4z"/>
<path d="M2080 371 c8 -6 28 -11 44 -11 39 0 31 6 -19 14 -29 5 -36 4 -25 -3z"/>
<path d="M2418 352 c-65 -9 -118 -19 -118 -24 0 -4 57 -7 128 -7 70 1 111 4
92 8 -43 8 -28 20 38 31 86 14 -13 9 -140 -8z"/>
<path d="M2759 267 c24 -43 41 -80 40 -82 -2 -2 -26 12 -54 30 -27 19 -51 32
-54 29 -2 -2 -2 -5 0 -7 99 -70 139 -89 139 -66 0 5 -4 7 -10 4 -5 -3 -7 0 -5
7 7 17 -47 118 -77 144 -16 14 -10 -2 21 -59z"/>
<path d="M643 306 c-10 -11 -9 -15 2 -20 24 -9 18 -54 -9 -71 -28 -19 -50 -12
-64 19 -7 17 -7 27 1 35 13 13 10 16 -23 26 -20 6 -23 5 -13 -5 8 -9 9 -19 2
-32 -12 -22 -3 -41 14 -31 7 4 7 1 -1 -9 -12 -15 -9 -18 23 -24 27 -5 51 -1
89 14 28 12 74 26 101 33 28 6 57 17 65 24 8 7 25 11 38 9 12 -2 22 1 22 6 0
6 -16 10 -35 10 -19 0 -35 -4 -35 -9 0 -5 -21 -9 -46 -9 -26 0 -51 -5 -57 -11
-18 -18 -25 -13 -37 24 -13 38 -19 41 -37 21z"/>
<path d="M1043 293 c9 -2 25 -2 35 0 9 3 1 5 -18 5 -19 0 -27 -2 -17 -5z"/>
<path d="M1486 285 c-3 -9 0 -15 8 -15 8 0 17 -10 20 -22 l7 -23 11 22 c8 17
8 26 -2 38 -16 19 -36 19 -44 0z"/>
<path d="M900 273 c0 -5 11 -8 24 -8 13 0 22 3 19 8 -2 4 -13 7 -24 7 -10 0
-19 -3 -19 -7z"/>
<path d="M993 267 c3 -7 10 -11 18 -9 25 6 125 5 147 -2 16 -5 22 -3 22 7 0
12 -19 15 -96 15 -70 1 -94 -2 -91 -11z"/>
<path d="M1565 260 c-7 -12 2 -30 16 -30 5 0 9 9 9 20 0 21 -15 27 -25 10z"/>
<path d="M2088 263 c12 -2 30 -2 40 0 9 3 -1 5 -23 4 -22 0 -30 -2 -17 -4z"/>
<path d="M1630 241 c0 -30 -36 -51 -68 -41 -34 11 -184 21 -157 10 11 -4 58
-13 105 -19 69 -9 94 -8 130 4 30 9 37 14 22 14 -15 1 -22 6 -19 14 2 6 15 11
28 9 28 -3 15 12 -18 23 -19 5 -23 2 -23 -14z"/>
<path d="M515 100 c-19 -8 -19 -9 2 -9 12 -1 25 4 28 9 7 12 -2 12 -30 0z"/>
</g>
</svg>
