<?xml version="1.0" standalone="no"?>
<!DOCTYPE svg PUBLIC "-//W3C//DTD SVG 20010904//EN"
 "http://www.w3.org/TR/2001/REC-SVG-20010904/DTD/svg10.dtd">
<svg version="1.0" xmlns="http://www.w3.org/2000/svg"
 width="1350.000000pt" height="1350.000000pt" viewBox="0 0 1350.000000 1350.000000"
 preserveAspectRatio="xMidYMid meet">
<metadata>
Created by potrace 1.10, written by Peter Selinger 2001-2011
</metadata>
<g transform="translate(0.000000,1350.000000) scale(0.100000,-0.100000)"
fill="#a092b2" stroke="none">
<path d="M7355 11899 c-67 -8 -131 -10 -240 -7 -91 3 -145 -2 -145 -12 0 -6
30 -10 69 -10 66 0 141 -21 141 -39 0 -4 -62 -11 -137 -13 -110 -5 -144 -3
-167 9 -22 12 -34 12 -56 3 -15 -6 -63 -11 -107 -11 -43 0 -478 -2 -968 -4
-856 -5 -890 -5 -893 -23 -2 -10 4 -25 13 -32 8 -7 15 -18 15 -24 1 -24 78
-155 122 -206 21 -25 90 -75 128 -92 51 -24 155 -39 238 -36 79 3 96 -7 86
-48 -3 -12 -1 -55 5 -97 6 -41 15 -169 21 -284 5 -114 14 -255 20 -313 5 -58
12 -177 14 -265 2 -88 9 -191 15 -230 6 -38 14 -163 17 -277 6 -206 6 -208 28
-208 12 0 37 16 56 35 18 19 47 41 64 50 17 9 45 25 61 35 34 22 65 37 150 72
85 36 214 38 299 7 34 -13 67 -29 74 -36 7 -7 17 -13 21 -13 15 0 130 -121
137 -143 3 -12 12 -29 19 -37 6 -8 22 -40 34 -70 12 -30 26 -64 30 -75 14 -35
34 -118 41 -179 5 -32 13 -63 19 -69 6 -6 11 -26 11 -45 0 -19 6 -46 13 -60 8
-15 21 -42 30 -60 9 -19 17 -38 17 -44 0 -14 71 -102 108 -133 38 -32 39 -42
9 -87 -13 -19 -27 -49 -30 -66 l-7 -33 53 7 c67 8 74 16 59 57 -7 18 -12 44
-12 58 0 25 -22 99 -46 157 -8 18 -14 43 -14 55 0 12 -6 31 -14 42 -7 11 -16
34 -19 50 -5 29 -28 100 -46 140 -5 11 -12 29 -14 40 -6 25 -26 80 -43 120 -7
17 -20 50 -29 75 -24 61 -115 248 -123 252 -4 2 -29 36 -55 75 -26 40 -64 90
-83 110 -110 118 -116 123 -143 123 -15 0 -31 -3 -35 -7 -4 -5 -38 -14 -74
-20 -37 -7 -89 -17 -117 -22 -27 -5 -68 -16 -90 -25 -22 -8 -50 -15 -62 -16
-20 0 -23 5 -23 34 0 19 -4 38 -10 41 -5 3 -10 32 -10 63 -1 31 -7 75 -15 97
-8 22 -15 51 -15 65 0 22 -6 56 -42 210 -5 25 -14 70 -18 100 -5 30 -13 73
-19 95 -14 57 -30 140 -41 210 -5 33 -13 73 -19 88 -6 16 -11 43 -11 60 0 18
-7 54 -15 81 -8 27 -15 63 -15 80 0 17 -7 49 -15 71 -8 22 -14 57 -15 77 0 21
-9 55 -21 77 -11 23 -19 46 -17 53 5 13 102 36 156 37 18 1 48 8 68 16 19 8
57 16 85 19 28 2 56 9 62 14 7 5 42 13 79 17 37 3 70 11 73 16 4 5 23 9 44 9
21 0 58 7 81 15 23 8 55 15 71 15 16 0 46 6 66 14 35 13 76 21 223 46 30 5 65
15 78 22 20 11 25 10 33 -5 13 -22 82 -23 160 -3 31 9 113 16 185 17 82 2 138
7 154 16 14 7 39 13 55 13 17 0 43 7 59 15 15 8 36 15 46 15 10 0 23 7 30 15
7 8 26 15 42 15 16 0 45 7 65 15 19 8 46 15 59 15 21 0 41 16 32 25 -10 10
-89 12 -153 4z m-1211 -137 c3 -5 -3 -17 -14 -27 -14 -13 -30 -16 -62 -13 -34
4 -58 -2 -116 -29 -40 -18 -78 -31 -83 -28 -5 4 -25 1 -43 -6 -26 -9 -38 -10
-48 -1 -11 8 -17 6 -27 -9 -8 -14 -19 -19 -32 -16 -10 3 -22 1 -25 -4 -3 -5
-17 -9 -32 -9 -58 0 -171 -47 -186 -77 -5 -10 -13 -25 -18 -33 -5 -8 -11 -23
-14 -32 -7 -20 -24 -24 -24 -7 0 7 -11 9 -27 6 -100 -19 -100 -19 -121 3 -18
20 -27 22 -70 16 -42 -5 -51 -3 -68 15 -10 12 -30 25 -43 30 -15 6 -21 15 -17
24 6 16 -12 65 -24 65 -3 0 -12 -6 -18 -12 -10 -10 -15 -10 -22 2 -13 20 -12
37 0 45 6 4 0 18 -15 37 -24 29 -31 49 -20 60 10 9 1163 9 1169 0z m164 -11
c4 -10 -2 -12 -22 -7 -18 4 -37 1 -55 -10 -30 -18 -66 -13 -59 9 9 24 128 32
136 8z m-709 -1093 c1 -15 9 -51 20 -80 10 -29 26 -96 35 -148 15 -86 28 -140
58 -239 6 -19 11 -67 11 -108 0 -68 2 -74 23 -79 13 -3 30 -19 38 -35 13 -25
13 -33 0 -59 -18 -34 -29 -37 -43 -12 -9 14 -10 11 -11 -15 0 -22 -5 -33 -15
-33 -8 0 -19 -9 -25 -20 -25 -47 -71 -6 -69 61 2 64 -10 272 -20 359 -6 41
-15 143 -21 225 -6 83 -14 157 -17 165 -3 8 -7 62 -8 120 l-4 105 24 -90 c13
-49 24 -102 24 -117z"/>
<path d="M4718 11892 c-32 -2 -58 -7 -58 -11 0 -13 41 -21 67 -15 19 5 23 2
23 -19 0 -24 -1 -25 -112 -30 -62 -3 -196 -6 -297 -7 -102 -1 -196 -6 -210
-11 -13 -6 -36 -8 -50 -5 -14 3 -93 8 -175 11 l-149 6 7 -41 c10 -66 7 -2205
-3 -2233 -8 -20 -6 -27 6 -31 8 -4 22 -1 30 6 19 15 43 29 113 63 30 15 69 38
86 50 16 13 41 25 55 27 24 3 24 4 20 93 -2 50 -9 105 -17 124 -8 18 -14 65
-14 103 0 38 -7 84 -15 105 -8 19 -15 52 -15 73 l0 37 51 6 c28 4 56 11 63 16
6 5 32 12 57 16 68 10 70 13 67 86 -3 57 -5 64 -23 61 -11 -1 -59 -5 -108 -9
-52 -3 -91 -11 -98 -19 -17 -21 -6 -48 25 -63 22 -10 25 -15 15 -22 -8 -5 -22
-9 -31 -9 -28 0 -61 -85 -60 -155 1 -98 2 -114 12 -120 14 -8 12 -52 -1 -61
-8 -5 -7 -10 4 -16 13 -7 16 -26 16 -98 0 -64 -4 -90 -12 -90 -7 0 -20 -9 -30
-20 -18 -21 -56 -27 -72 -11 -6 5 -21 11 -35 13 -28 3 -48 45 -35 74 9 24 10
76 1 99 -3 10 -2 23 3 29 6 7 6 17 1 26 -12 20 0 157 17 190 7 14 13 33 13 44
0 15 -3 16 -14 7 -19 -16 -32 4 -16 24 8 9 9 29 5 54 -4 23 -2 48 5 60 8 16 8
27 -1 42 -7 13 -7 25 -1 31 6 6 4 24 -5 51 -11 31 -12 54 -5 95 5 31 6 73 1
100 -6 28 -5 50 0 55 7 7 6 17 0 29 -11 21 -4 38 17 38 18 0 18 5 -2 35 -13
20 -14 31 -5 56 8 23 7 37 -2 57 -10 20 -13 101 -13 327 1 287 2 300 20 297
11 -2 17 1 14 10 -3 7 -11 13 -19 13 -17 0 -26 112 -11 127 6 6 5 21 -1 39 -7
18 -8 32 -2 38 13 12 193 22 200 11 3 -5 18 -5 34 0 16 4 79 9 141 9 62 1 117
4 122 7 5 3 14 1 21 -4 7 -6 25 -12 40 -14 15 -1 29 -7 30 -13 3 -15 -52 -18
-69 -4 -23 19 -17 -8 7 -32 26 -26 17 -37 -16 -19 -20 10 -28 11 -37 2 -16
-16 -40 -15 -74 3 -39 20 -114 20 -114 0 0 -10 10 -15 28 -15 15 0 33 -5 40
-12 6 -6 22 -12 34 -14 58 -5 105 -18 121 -32 17 -15 20 -14 43 16 14 18 34
32 45 32 10 0 48 14 82 30 35 17 71 30 79 30 9 0 21 7 28 15 7 8 24 15 39 15
14 0 35 7 45 15 11 8 28 15 38 15 10 0 22 8 25 18 12 31 47 51 89 52 42 0 75
22 54 35 -13 8 -93 11 -172 7z"/>
<path d="M7550 11894 c0 -17 43 -63 70 -74 29 -12 37 -10 96 20 35 19 64 37
64 41 0 12 -40 18 -69 9 -16 -4 -35 -4 -42 1 -16 10 -119 12 -119 3z"/>
<path d="M5330 11880 c0 -5 7 -10 15 -10 8 0 15 5 15 10 0 6 -7 10 -15 10 -8
0 -15 -4 -15 -10z"/>
<path d="M5516 11880 c7 -7 19 -7 35 -1 23 9 22 10 -10 10 -24 1 -32 -2 -25
-9z"/>
<path d="M5805 11880 c3 -5 12 -10 20 -10 8 0 17 5 20 10 4 6 -5 10 -20 10
-15 0 -24 -4 -20 -10z"/>
<path d="M6540 11880 c18 -12 68 -12 95 0 14 6 0 9 -45 9 -45 1 -60 -2 -50 -9z"/>
<path d="M8413 11883 c-17 -6 -16 -23 2 -44 15 -15 12 -17 -32 -24 -26 -4
-115 -6 -198 -5 -193 3 -205 2 -205 -12 0 -8 36 -20 96 -31 92 -18 98 -18 129
-1 30 16 35 16 73 1 25 -10 43 -13 47 -7 3 6 17 10 31 10 23 0 24 -3 26 -72 1
-40 1 -109 1 -153 -1 -44 -2 -444 -3 -888 -2 -788 -3 -809 -22 -827 -19 -17
-19 -19 -2 -28 16 -9 19 -27 20 -166 1 -86 -1 -156 -5 -156 -4 0 -12 5 -19 12
-8 8 -15 8 -24 1 -7 -6 -28 -13 -45 -16 l-33 -6 0 72 c0 39 -5 90 -10 112 -6
22 -13 99 -15 170 -3 72 -12 161 -21 199 -19 79 -14 174 12 246 9 25 20 61 25
80 9 43 36 119 49 142 15 27 12 65 -7 72 -20 8 -30 -7 -39 -54 -4 -19 -12 -46
-19 -60 -47 -95 -69 -187 -72 -304 -3 -65 1 -149 6 -186 6 -37 13 -128 16
-201 3 -74 12 -183 20 -244 23 -169 60 -698 51 -721 -2 -6 -37 -14 -77 -18
-40 -3 -78 -11 -86 -17 -7 -7 -27 -9 -43 -5 l-30 6 0 -59 c0 -42 5 -65 18 -82
19 -22 19 -22 69 -6 39 13 88 16 215 16 99 -1 173 3 185 9 11 6 30 8 42 5 l22
-5 -3 163 c-4 209 -23 220 -24 14 -1 -80 -4 -148 -7 -151 -3 -3 -19 2 -36 12
-26 15 -34 16 -58 4 -35 -16 -350 -15 -370 2 -22 18 -15 38 13 38 14 0 34 5
44 10 11 6 81 12 157 14 l138 4 7 1034 c3 568 8 1249 9 1513 1 264 5 491 9
505 3 14 15 27 26 29 27 5 44 21 44 42 0 16 -7 19 -42 18 -24 0 -49 -3 -55 -6z
m-40 -2663 c-2 -232 -9 -396 -18 -411 -4 -5 -13 -9 -21 -9 -10 0 -14 11 -14
38 1 20 -2 71 -6 113 -4 45 -2 84 3 94 8 13 4 28 -13 59 -18 31 -24 56 -24
107 0 36 -5 92 -11 124 -11 58 -10 60 16 83 19 16 37 22 59 20 l31 -3 -2 -215z"/>
<path d="M8336 9163 c-11 -11 -6 -23 9 -23 8 0 15 4 15 9 0 13 -16 22 -24 14z"/>
<path d="M3697 11866 c-8 -19 1 -26 33 -26 33 0 43 9 29 27 -15 17 -55 17 -62
-1z"/>
<path d="M3795 11870 c-3 -6 5 -10 19 -10 14 0 28 5 31 10 3 6 -5 10 -19 10
-14 0 -28 -4 -31 -10z"/>
<path d="M4320 11871 c-12 -9 -12 -11 2 -16 23 -9 73 -2 73 10 0 13 -56 18
-75 6z"/>
<path d="M4050 11860 c0 -5 14 -10 31 -10 17 0 28 4 24 10 -3 6 -17 10 -31 10
-13 0 -24 -4 -24 -10z"/>
<path d="M7805 11818 c23 -100 4 -112 -173 -111 -143 2 -142 2 -142 -101 0
-36 -4 -68 -10 -71 -5 -3 -10 -19 -10 -35 0 -15 -9 -57 -20 -92 -11 -34 -20
-74 -20 -88 0 -14 -7 -43 -15 -65 -8 -22 -14 -57 -15 -78 0 -21 -4 -46 -9 -55
-5 -10 -14 -49 -20 -87 -27 -167 -75 -404 -119 -585 -12 -47 -26 -114 -31
-150 -6 -36 -17 -96 -25 -135 -8 -38 -21 -104 -29 -145 -8 -41 -17 -82 -21
-90 -3 -8 -10 -42 -16 -75 -22 -137 -39 -224 -53 -285 -25 -103 -59 -270 -71
-345 -3 -16 -12 -59 -21 -95 -9 -36 -21 -93 -25 -127 -5 -35 -14 -72 -20 -82
-12 -23 -14 -191 -2 -191 5 0 16 26 26 58 10 31 22 62 26 67 4 6 13 57 20 115
6 57 16 113 22 123 12 23 30 112 31 155 0 19 6 32 14 32 12 0 19 41 15 90 -1
8 8 40 19 70 12 30 22 75 24 100 2 25 11 74 19 110 9 36 23 101 32 145 8 44
24 108 35 143 12 34 22 88 22 120 2 40 7 61 18 69 11 9 18 34 22 80 8 95 31
202 53 243 11 20 19 58 20 90 2 53 21 166 43 260 6 25 15 73 20 108 5 34 14
68 19 75 5 7 12 41 15 77 7 90 17 151 26 169 5 9 16 52 25 96 10 44 22 88 27
97 5 10 9 33 9 53 0 40 28 105 46 105 6 0 14 6 17 14 3 7 22 17 43 21 21 4 48
17 59 29 12 13 39 26 63 30 32 5 45 13 54 31 12 28 48 54 93 71 63 23 31 54
-56 54 -15 0 -31 5 -34 10 -14 23 -27 9 -20 -22z m-189 -160 c-4 -23 -8 -44
-10 -45 -6 -7 -56 17 -56 26 0 33 21 61 46 61 26 0 26 -2 20 -42z"/>
<path d="M8190 11742 c0 -11 69 -46 77 -39 11 12 -29 47 -54 47 -12 0 -23 -3
-23 -8z"/>
<path d="M6980 11646 c0 -43 43 -138 82 -183 9 -10 18 -25 21 -33 4 -10 6 -8
6 7 1 12 -3 25 -9 28 -5 3 -10 14 -10 23 0 28 -73 192 -85 192 -3 0 -5 -15 -5
-34z"/>
<path d="M8330 11659 c-5 -13 -14 -31 -18 -39 -5 -8 -14 -24 -20 -35 -15 -29
-81 -164 -99 -205 -9 -19 -22 -47 -30 -62 -7 -14 -13 -35 -13 -46 0 -11 -7
-25 -15 -32 -8 -7 -15 -23 -15 -35 0 -13 -6 -36 -14 -52 -18 -37 -46 -126 -46
-147 0 -24 27 -19 42 7 7 12 18 45 24 72 10 45 51 168 73 220 5 11 17 40 27
65 10 25 24 50 31 56 7 6 13 20 13 31 0 11 7 26 15 33 8 7 31 45 52 86 35 69
37 75 21 91 -16 15 -18 15 -28 -8z"/>
<path d="M4071 11647 c-7 -9 -11 -28 -8 -42 2 -15 -6 -51 -19 -83 -13 -31 -24
-78 -24 -104 0 -26 -4 -50 -10 -53 -5 -3 -10 -30 -10 -60 0 -30 -4 -57 -10
-60 -13 -8 -13 -55 -1 -55 23 0 51 68 51 124 0 38 5 63 15 72 8 9 15 33 15 55
0 22 5 59 11 82 5 24 9 65 7 91 -3 43 -5 47 -17 33z"/>
<path d="M4722 11635 c-11 -23 -9 -27 14 -35 42 -16 94 -10 94 12 0 18 -44 47
-71 48 -18 0 -29 -8 -37 -25z"/>
<path d="M6656 11621 c-8 -13 20 -141 33 -154 8 -8 16 -6 30 8 31 32 30 56 -4
75 -22 12 -31 25 -33 48 -3 31 -15 41 -26 23z"/>
<path d="M4345 11541 c-7 -23 7 -76 38 -137 11 -23 18 -50 15 -61 -3 -11 1
-31 8 -44 7 -13 13 -43 14 -66 0 -54 8 -73 31 -73 17 0 18 6 13 93 -4 50 -13
110 -20 132 -8 22 -14 49 -14 60 -2 32 -44 109 -62 113 -9 2 -19 -5 -23 -17z"/>
<path d="M6084 11505 c-10 -8 -29 -15 -40 -15 -12 0 -25 -7 -28 -16 -11 -28
-6 -74 7 -80 19 -7 84 23 96 43 8 16 11 15 20 -10 6 -16 11 -37 11 -47 0 -29
42 -10 53 24 10 31 2 76 -15 76 -6 0 -19 6 -27 14 -26 23 -56 27 -77 11z"/>
<path d="M6807 11504 c-8 -8 1 -24 14 -24 5 0 9 7 9 15 0 15 -12 20 -23 9z"/>
<path d="M6930 11497 c0 -9 4 -17 9 -17 5 0 12 -12 16 -27 6 -24 1 -33 -32
-61 -21 -19 -50 -36 -65 -39 -49 -10 -63 -53 -18 -53 25 0 100 29 121 47 9 8
33 16 52 20 52 8 52 27 0 69 -25 20 -54 46 -64 57 -16 18 -19 18 -19 4z"/>
<path d="M6835 11449 c-4 -6 -4 -13 -1 -16 8 -8 36 5 36 17 0 13 -27 13 -35
-1z"/>
<path d="M6753 11420 c-24 -10 -30 -25 -14 -34 15 -10 61 12 61 29 0 17 -14
18 -47 5z"/>
<path d="M6693 11393 c3 -16 10 -54 15 -85 6 -31 16 -66 21 -77 6 -11 11 -41
11 -68 1 -26 7 -59 15 -73 8 -14 14 -47 15 -75 0 -27 7 -63 15 -79 8 -15 15
-48 15 -73 0 -24 6 -56 14 -71 7 -15 16 -56 19 -91 3 -35 10 -68 16 -74 6 -6
11 -29 11 -51 0 -21 6 -62 14 -90 8 -28 20 -76 26 -106 28 -137 35 -160 45
-157 5 2 11 33 12 68 1 35 5 88 9 117 4 35 2 52 -5 52 -7 0 -11 -20 -11 -50 0
-27 -4 -50 -10 -50 -6 0 -10 27 -10 60 0 33 4 60 10 60 11 0 13 81 4 118 -10
37 -24 25 -24 -20 0 -71 -17 -79 -24 -12 -3 32 -6 70 -6 84 -1 14 -5 34 -9 45
-5 11 -17 63 -26 115 -10 52 -23 116 -31 142 -8 26 -14 65 -14 88 0 22 -7 57
-15 77 -8 19 -15 48 -15 64 0 16 -6 46 -14 66 -8 21 -17 54 -20 74 -8 45 -34
99 -48 99 -6 0 -8 -12 -5 -27z"/>
<path d="M6052 11346 c1 -10 8 -17 13 -17 15 1 12 24 -3 29 -9 3 -13 -2 -10
-12z"/>
<path d="M6187 11302 c-19 -21 -22 -42 -7 -42 14 0 13 -67 -2 -107 -21 -58
-68 -34 -68 35 0 21 8 35 27 47 l27 18 -24 9 c-14 5 -28 16 -33 24 -4 8 -12
14 -17 14 -18 0 -64 -51 -82 -92 l-19 -42 31 -24 c19 -15 30 -33 30 -48 0 -13
6 -24 13 -24 8 0 22 -9 32 -20 12 -13 31 -20 55 -20 42 0 50 -11 50 -66 0 -33
1 -34 41 -34 38 0 40 -1 37 -27 -2 -16 -8 -27 -15 -25 -26 5 -12 -16 17 -27
20 -6 30 -17 30 -30 0 -11 6 -26 13 -33 6 -7 23 -35 36 -63 42 -88 67 -105 91
-61 11 22 9 28 -27 73 -35 43 -73 109 -73 128 0 4 -9 18 -19 32 -11 13 -18 30
-15 37 5 14 -60 116 -82 129 -19 11 -18 46 2 54 8 3 20 17 25 30 7 18 14 23
28 18 15 -4 20 1 24 27 4 29 -1 39 -41 81 -51 52 -61 55 -85 29z"/>
<path d="M4010 11168 c0 -15 67 -53 87 -49 7 1 26 -5 43 -14 25 -13 34 -14 46
-4 12 9 20 9 40 -1 14 -8 48 -13 77 -13 70 2 83 -3 97 -38 10 -22 10 -36 2
-52 -6 -12 -14 -37 -17 -56 -4 -18 -14 -41 -24 -50 -9 -9 -34 -40 -56 -69 -21
-28 -45 -52 -53 -52 -7 0 -23 -12 -36 -27 -23 -27 -24 -27 -163 -32 -25 -1
-36 -8 -47 -29 -8 -15 -34 -37 -58 -49 -24 -12 -51 -35 -61 -52 -21 -37 -23
-91 -2 -91 8 0 17 -12 20 -27 8 -38 38 -96 52 -100 18 -6 25 32 25 140 0 131
4 137 90 137 65 0 82 5 185 52 48 21 143 103 143 123 0 7 7 18 15 25 8 7 15
21 15 32 0 10 6 29 13 41 8 12 19 57 26 101 11 67 11 81 -2 93 -11 11 -19 12
-35 4 -10 -6 -23 -7 -27 -3 -3 4 -35 7 -70 8 -35 0 -70 6 -77 11 -7 6 -38 14
-68 18 -30 4 -60 11 -65 16 -6 4 -20 8 -30 7 -11 -1 -35 2 -52 6 -25 6 -33 4
-33 -6z"/>
<path d="M7147 11163 c-12 -11 -8 -31 8 -37 11 -4 15 1 15 19 0 24 -10 32 -23
18z"/>
<path d="M5997 11026 c-4 -10 -5 -21 -2 -24 9 -9 17 6 13 25 -3 17 -4 17 -11
-1z"/>
<path d="M6492 10978 c5 -34 38 -37 38 -4 0 20 -5 26 -21 26 -15 0 -20 -5 -17
-22z"/>
<path d="M6100 10960 c-6 -11 -13 -50 -16 -88 -3 -37 -14 -94 -24 -128 -21
-68 -17 -104 11 -104 16 0 19 8 19 46 0 26 4 43 10 39 5 -3 7 -32 3 -69 -5
-57 -3 -66 17 -86 20 -20 29 -22 87 -17 71 7 163 51 163 78 0 9 -9 24 -20 34
-20 18 -21 18 -34 0 -12 -17 -16 -17 -30 -6 -19 16 -32 7 -38 -24 -5 -32 -42
-30 -63 2 -27 40 -35 192 -11 205 9 5 16 20 16 34 0 21 -4 24 -20 19 -16 -5
-20 -2 -20 17 -1 63 -28 89 -50 48z"/>
<path d="M8100 10892 c0 -52 5 -85 13 -94 15 -16 20 -90 7 -123 -8 -20 -4 -28
26 -54 21 -19 46 -31 62 -31 27 0 27 1 -15 38 -39 35 -41 39 -39 92 1 32 -4
61 -11 70 -7 9 -13 51 -15 94 -2 52 -7 81 -15 84 -10 3 -13 -17 -13 -76z"/>
<path d="M5913 10885 c-38 -37 -40 -45 -15 -45 25 0 54 34 50 58 -3 17 -7 15
-35 -13z"/>
<path d="M6234 10445 c-4 -16 0 -34 10 -50 9 -13 16 -38 16 -55 0 -17 5 -40
11 -51 8 -16 7 -23 -7 -33 -23 -17 -11 -46 19 -46 14 0 30 7 37 15 15 19 5 81
-15 88 -18 7 -34 67 -28 101 5 25 -10 56 -28 56 -5 0 -11 -11 -15 -25z"/>
<path d="M6328 10445 c-2 -11 1 -34 8 -50 7 -17 10 -42 7 -56 -6 -35 18 -55
46 -37 32 20 29 33 -20 87 -9 10 -21 31 -26 47 -9 25 -11 26 -15 9z"/>
<path d="M11960 10453 c-66 -6 -145 -26 -163 -42 -26 -22 -18 -64 13 -71 16
-4 26 -14 28 -28 4 -24 8 -25 117 -26 63 -1 70 -3 70 -21 0 -18 -6 -20 -70
-17 -38 1 -76 -1 -84 -7 -21 -14 -2 -33 27 -27 57 12 57 10 56 -268 -1 -140
-5 -259 -8 -265 -5 -7 -32 2 -78 25 -48 24 -88 37 -123 39 -29 2 -63 6 -76 10
l-24 8 23 8 c33 12 17 32 -19 24 -26 -6 -29 -4 -29 17 0 13 17 41 38 64 43 48
65 102 56 138 -4 17 0 35 9 50 12 17 13 32 7 61 -11 48 -5 58 29 50 31 -6 81
9 81 25 0 5 -8 10 -19 10 -16 0 -51 38 -51 55 0 3 12 10 28 16 25 10 26 11 8
21 -25 14 -121 3 -153 -17 -23 -15 -25 -22 -20 -59 5 -31 2 -49 -10 -66 -9
-13 -18 -52 -21 -91 -3 -38 -9 -72 -13 -75 -5 -3 -9 -13 -9 -23 0 -10 -10 -27
-23 -39 -20 -19 -31 -21 -70 -16 -42 6 -47 5 -47 -13 0 -11 10 -28 23 -39 12
-11 38 -39 57 -63 50 -61 137 -121 174 -121 17 0 40 -7 50 -15 14 -11 46 -15
108 -15 51 0 96 -5 107 -12 15 -9 25 -9 46 0 14 7 55 12 90 12 38 0 80 7 102
16 63 28 97 42 113 49 60 24 230 170 227 195 -2 12 -14 14 -51 11 -27 -1 -58
2 -70 7 -11 6 -33 13 -47 16 -15 3 -40 18 -57 34 -24 23 -31 40 -41 102 -6 41
-17 95 -23 120 -6 25 -11 59 -10 77 1 17 -5 39 -14 47 -16 17 -84 21 -119 7
-20 -8 -20 -8 2 -15 11 -4 28 -18 37 -31 15 -23 15 -25 -3 -35 -24 -13 -71
-13 -91 0 -12 8 -13 13 -2 30 16 26 15 30 -3 30 -23 0 -18 15 16 49 38 39 32
64 -22 85 -21 9 -40 15 -42 14 -1 0 -18 -3 -37 -5z m69 -52 c17 -11 5 -31 -19
-31 -21 0 -34 15 -25 30 8 12 25 13 44 1z m79 -186 c34 -4 65 -11 68 -16 3 -5
9 -48 14 -95 6 -52 15 -93 24 -103 9 -9 17 -26 19 -38 4 -27 74 -100 103 -107
28 -7 30 -23 8 -54 -17 -25 -54 -30 -54 -7 0 21 -17 19 -30 -5 -14 -26 -54
-46 -110 -54 -25 -4 -54 -13 -65 -20 -26 -17 -72 -17 -79 -1 -8 21 -9 491 -1
504 3 7 14 10 23 7 10 -2 45 -8 80 -11z"/>
<path d="M4390 10390 c-24 -4 -53 -5 -62 -2 -29 7 -21 -11 13 -31 17 -9 33
-25 35 -35 4 -12 15 -17 37 -16 27 1 32 5 35 28 4 31 21 41 58 32 22 -6 25
-11 22 -36 -5 -33 11 -41 19 -10 3 11 12 20 21 20 25 0 92 34 88 45 -3 12
-201 16 -266 5z"/>
<path d="M4697 10333 c-43 -5 -58 -26 -34 -50 14 -14 19 -14 51 1 23 11 36 24
36 36 0 11 -3 19 -7 18 -5 -1 -25 -3 -46 -5z"/>
<path d="M4664 10209 c-3 -6 3 -23 13 -38 11 -14 23 -36 27 -49 13 -39 24 -14
15 33 -5 26 -11 51 -14 56 -8 12 -32 11 -41 -2z"/>
<path d="M6775 10203 c-11 -3 -24 -9 -30 -13 -5 -5 -27 -8 -48 -8 -50 0 -70
-18 -30 -26 45 -10 203 28 203 48 0 7 -66 6 -95 -1z"/>
<path d="M4290 10150 c0 -19 3 -21 12 -12 9 9 9 15 0 24 -9 9 -12 7 -12 -12z"/>
<path d="M6565 10148 c-19 -11 -18 -12 10 -20 31 -8 52 3 41 21 -9 14 -26 14
-51 -1z"/>
<path d="M6480 10134 c-14 -7 -42 -14 -62 -14 -37 0 -51 -13 -25 -23 15 -6 63
1 92 13 11 4 28 11 38 14 10 3 15 10 12 16 -8 13 -24 11 -55 -6z"/>
<path d="M4288 10094 c-3 -5 -3 -27 1 -49 7 -37 8 -38 15 -15 7 26 -6 80 -16
64z"/>
<path d="M4660 10055 c0 -18 5 -25 19 -25 28 0 37 21 16 37 -27 19 -35 16 -35
-12z"/>
<path d="M8054 10022 c-4 -17 -14 -32 -24 -35 -13 -3 -19 -18 -23 -53 -13
-124 -30 -211 -47 -239 -11 -18 -21 -61 -25 -110 -4 -44 -14 -96 -22 -115 -9
-19 -17 -48 -19 -65 -1 -16 -8 -55 -14 -85 -7 -30 -13 -98 -13 -151 -2 -76 -6
-99 -19 -113 -14 -13 -18 -34 -18 -84 -1 -37 -7 -78 -14 -91 -8 -14 -11 -41
-8 -68 3 -33 0 -48 -13 -63 -15 -16 -15 -22 -5 -35 14 -16 3 -79 -25 -140 -7
-16 -15 -37 -18 -46 -6 -19 -91 -69 -116 -69 -9 0 -21 4 -27 9 -9 10 -162 20
-334 23 -52 0 -103 5 -112 10 -11 5 -25 4 -37 -4 -16 -10 -23 -9 -39 5 -12 11
-35 17 -66 17 -29 0 -48 5 -50 13 -16 60 -23 72 -44 75 -18 3 -23 -3 -29 -28
-3 -18 -12 -34 -19 -37 -25 -9 -17 -43 10 -43 13 0 36 -10 51 -22 25 -19 42
-22 169 -25 77 -2 202 -10 276 -18 74 -8 169 -15 210 -14 147 2 190 -1 232
-16 56 -19 77 -19 85 1 8 22 -22 44 -60 44 -29 0 -29 1 -24 48 7 72 28 213 37
252 15 61 50 288 50 325 0 20 5 45 10 55 6 11 13 86 16 167 5 126 9 150 24
160 13 10 20 33 25 95 4 46 13 94 20 108 7 14 16 58 20 98 4 39 11 75 16 78 5
3 9 36 9 73 0 49 4 72 15 81 17 14 20 46 5 55 -6 4 -13 -7 -16 -23z"/>
<path d="M4705 9999 c-4 -5 -9 -37 -12 -70 l-6 -59 33 0 c27 0 31 3 25 18 -4
9 -10 38 -13 65 -5 48 -15 66 -27 46z"/>
<path d="M4257 9962 c-25 -28 -21 -57 9 -71 22 -10 30 -9 44 4 9 9 37 19 61
23 57 10 53 24 -10 37 -27 6 -53 13 -57 18 -12 12 -30 8 -47 -11z"/>
<path d="M4645 9960 c-3 -5 -35 -10 -70 -10 -35 0 -76 -5 -92 -11 l-28 -11 44
-13 c30 -9 51 -11 69 -4 32 12 63 2 60 -19 -2 -12 4 -17 22 -17 21 0 25 5 27
36 3 37 -19 71 -32 49z"/>
<path d="M6016 9825 c-3 -9 0 -15 9 -15 8 0 15 7 15 15 0 8 -4 15 -9 15 -5 0
-11 -7 -15 -15z"/>
<path d="M6116 9833 c-13 -14 -5 -33 14 -33 11 0 20 6 20 14 0 15 -24 28 -34
19z"/>
<path d="M4205 9760 c-3 -5 3 -10 14 -10 12 0 21 5 21 10 0 6 -6 10 -14 10 -8
0 -18 -4 -21 -10z"/>
<path d="M11302 9706 c-6 -14 -16 -26 -22 -26 -5 0 -10 -8 -10 -19 0 -10 -6
-24 -14 -30 -8 -7 -31 -55 -51 -109 -20 -53 -43 -111 -50 -128 -17 -40 -31
-206 -16 -184 6 8 11 23 11 33 0 9 4 25 9 35 5 9 19 46 31 82 12 36 26 73 31
82 5 10 19 48 30 85 12 38 28 82 35 100 8 17 14 37 14 45 0 8 5 19 11 25 6 6
9 17 7 23 -2 7 -9 1 -16 -14z"/>
<path d="M13024 9628 c3 -45 10 -128 15 -183 5 -55 15 -172 21 -260 6 -88 17
-182 25 -210 18 -65 45 -243 45 -293 0 -22 7 -59 15 -82 8 -23 15 -60 15 -81
0 -22 5 -39 10 -39 18 0 27 43 23 105 -11 164 -35 451 -39 456 -2 4 -9 65 -14
135 -6 71 -15 152 -20 179 -6 28 -14 86 -20 130 -5 44 -16 112 -23 150 -11 62
-15 70 -36 73 -24 4 -24 4 -17 -80z"/>
<path d="M4376 9691 c-9 -14 4 -41 20 -41 15 0 17 10 8 34 -7 18 -20 21 -28 7z"/>
<path d="M11430 9625 c-21 -54 -6 -155 23 -155 18 0 18 171 0 177 -7 3 -17 -7
-23 -22z"/>
<path d="M4416 9623 c-15 -15 -4 -33 19 -33 14 0 25 4 25 10 0 12 -35 31 -44
23z"/>
<path d="M5412 9600 c-12 -5 -37 -23 -55 -40 -18 -16 -36 -30 -42 -30 -14 -1
-55 -36 -55 -47 0 -5 -12 -14 -27 -20 -26 -10 -26 -11 -5 -12 20 -1 34 4 78
28 37 20 101 67 112 82 7 10 19 25 28 34 18 17 4 20 -34 5z"/>
<path d="M10868 9558 c-20 -40 -22 -58 -24 -293 -2 -137 -8 -299 -13 -360 -19
-195 -21 -219 -20 -302 0 -60 -4 -89 -15 -105 -9 -12 -16 -32 -16 -44 0 -12
-7 -27 -15 -34 -8 -7 -15 -22 -15 -33 0 -11 -7 -29 -16 -39 -14 -14 -15 -26
-8 -60 8 -37 13 -43 37 -46 25 -3 27 -1 27 33 0 20 6 51 14 68 31 71 76 248
76 303 0 16 7 54 15 84 12 44 15 114 13 340 -3 416 -2 448 12 465 10 12 9 20
-4 40 -9 14 -19 25 -21 25 -3 0 -14 -19 -27 -42z"/>
<path d="M4453 9573 c-15 -6 -17 -39 -3 -48 6 -3 10 -15 10 -25 0 -10 6 -25
13 -32 7 -7 18 -25 24 -40 7 -16 17 -28 22 -28 5 0 7 -8 4 -18 -2 -10 3 -24
11 -31 9 -8 16 -24 16 -36 0 -12 7 -28 15 -35 8 -7 15 -20 15 -30 0 -10 7 -23
15 -30 8 -7 15 -20 15 -30 0 -10 7 -23 15 -30 8 -7 15 -20 15 -30 0 -10 7 -23
15 -30 8 -7 15 -20 15 -30 0 -10 7 -23 15 -30 8 -7 15 -21 15 -32 0 -10 7 -21
15 -24 8 -4 15 -14 15 -24 0 -10 7 -23 15 -30 8 -7 15 -18 15 -25 0 -6 11 -32
25 -56 14 -24 27 -51 31 -59 3 -8 9 -22 14 -30 11 -19 46 -90 54 -110 4 -8 15
-28 26 -45 11 -16 25 -41 32 -55 7 -14 25 -43 40 -64 16 -21 28 -45 28 -52 0
-7 -17 -20 -37 -29 -44 -19 -89 -41 -193 -94 -41 -21 -82 -41 -90 -45 -8 -3
-35 -18 -60 -32 -25 -15 -100 -55 -168 -89 -68 -35 -128 -68 -135 -73 -7 -5
-27 -14 -44 -21 -29 -12 -37 -11 -73 8 -36 18 -41 19 -47 5 -3 -8 0 -25 6 -37
9 -18 8 -29 -7 -61 -17 -34 -20 -36 -25 -17 -7 27 -21 27 -47 -1 -26 -28 -26
-31 10 -47 36 -16 67 -9 116 24 20 13 52 27 73 31 20 3 54 18 76 33 22 15 60
36 84 46 24 11 87 41 140 68 52 26 103 47 112 47 9 0 23 8 33 18 9 11 35 25
59 32 23 8 53 21 67 30 14 9 45 27 70 39 25 13 49 29 53 37 4 8 21 14 36 14
16 0 34 7 41 15 7 8 24 15 39 15 44 0 53 18 28 53 -12 17 -34 42 -49 55 -36
31 -35 38 7 52 44 15 45 30 3 30 -39 0 -92 30 -109 62 -7 13 -30 46 -51 74
-21 28 -38 54 -38 58 0 10 -35 80 -75 151 -55 98 -75 138 -75 152 0 8 -7 16
-15 19 -8 4 -15 11 -15 16 0 14 -72 158 -82 164 -4 3 -8 14 -8 25 0 11 -7 22
-15 25 -8 4 -15 14 -15 24 0 9 -11 34 -25 54 -14 20 -25 42 -25 47 0 13 -47
97 -68 121 -12 14 -12 20 -2 33 12 15 6 18 -17 8z m586 -1182 c-42 -35 -49
-22 -11 22 10 11 19 14 25 8 7 -7 2 -17 -14 -30z"/>
<path d="M3646 9495 c-11 -8 -26 -15 -34 -15 -8 0 -34 -13 -59 -30 -24 -16
-50 -30 -58 -30 -8 0 -17 -5 -21 -11 -3 -6 -30 -22 -58 -35 -28 -13 -64 -35
-81 -49 -30 -25 -30 -25 -6 -25 22 0 115 37 151 60 8 6 42 23 75 40 98 48 158
85 157 95 -2 16 -45 16 -66 0z"/>
<path d="M5138 9448 c-38 -13 -35 -30 4 -26 22 2 34 9 36 21 4 19 -1 20 -40 5z"/>
<path d="M3828 9430 c-14 -11 -35 -38 -47 -59 -20 -41 -17 -52 19 -63 8 -2 24
-22 35 -44 25 -48 49 -51 53 -6 2 17 -1 32 -6 32 -5 0 -17 11 -26 25 -13 20
-14 28 -4 45 7 11 17 20 22 20 15 0 35 -33 36 -58 0 -43 17 -62 49 -56 25 5
30 2 40 -27 6 -17 11 -45 11 -61 0 -16 11 -46 25 -66 29 -42 31 -58 10 -66
-27 -10 -16 -26 19 -26 22 0 45 -9 64 -25 17 -14 34 -25 39 -25 5 0 30 -13 56
-30 26 -16 54 -30 61 -30 7 0 23 -12 37 -26 13 -14 38 -32 55 -39 32 -13 81
-71 70 -83 -4 -3 -16 -1 -26 6 -11 7 -25 12 -31 12 -7 0 -18 8 -25 18 -10 13
-15 14 -24 5 -9 -8 -7 -14 9 -22 30 -16 28 -51 -2 -51 -28 0 -55 -46 -38 -63
17 -17 73 -12 87 7 10 14 17 15 33 7 27 -15 28 -15 40 19 5 17 15 29 22 28 6
-2 24 19 39 47 16 27 34 51 42 53 19 6 38 33 38 54 0 23 -26 24 -34 1 -5 -12
-10 -13 -18 -5 -8 8 -8 15 1 26 10 12 5 15 -36 21 -112 14 -247 41 -259 52 -6
7 -30 22 -53 33 -22 12 -63 43 -91 69 -43 40 -51 55 -61 104 -11 51 -10 59 5
70 21 16 13 41 -19 55 -20 9 -26 7 -38 -11 -13 -20 -16 -17 -52 58 -21 44 -39
81 -40 82 -1 2 -15 5 -31 8 -20 4 -37 -1 -56 -15z"/>
<path d="M6025 9440 c-4 -6 -3 -16 3 -22 6 -6 12 -6 17 2 4 6 3 16 -3 22 -6 6
-12 6 -17 -2z"/>
<path d="M1071 9421 c-22 -17 -22 -41 0 -41 13 0 69 42 69 52 0 15 -45 8 -69
-11z"/>
<path d="M304 9412 c-19 -12 -46 -74 -37 -83 10 -10 93 60 93 79 0 13 -38 16
-56 4z"/>
<path d="M5026 9358 c-31 -29 -44 -68 -22 -68 8 0 18 5 21 10 11 17 24 11 31
-15 11 -45 24 -26 24 35 0 68 -12 76 -54 38z"/>
<path d="M11377 9373 c-3 -5 -2 -15 4 -23 5 -8 9 -27 9 -42 0 -34 16 -45 23
-15 10 42 3 82 -15 85 -9 2 -19 -1 -21 -5z"/>
<path d="M1020 9305 c-20 -11 -75 -15 -255 -15 -126 -1 -263 -5 -303 -9 -50
-5 -82 -3 -102 6 -26 11 -31 10 -44 -9 -12 -17 -20 -19 -58 -12 -60 11 -101
12 -186 6 -62 -4 -72 -7 -72 -23 0 -18 10 -19 125 -19 l125 0 20 -44 c11 -25
20 -50 20 -55 0 -6 5 -11 10 -11 6 0 10 -6 10 -13 0 -19 20 -36 36 -30 16 6
19 39 4 48 -16 10 -53 93 -46 103 3 6 36 8 73 6 38 -2 122 1 188 6 66 6 191
12 278 15 173 5 197 -1 197 -45 1 -27 31 -70 49 -70 16 0 13 26 -4 40 -8 7
-15 20 -15 29 0 9 -5 22 -11 28 -17 17 20 24 101 21 36 -1 204 -1 373 1 170 1
310 1 312 -1 2 -2 6 -124 8 -271 3 -148 8 -271 11 -274 3 -4 6 38 6 93 1 54 2
179 4 277 2 125 -1 183 -9 194 -11 15 -53 16 -397 14 -337 -2 -386 0 -398 13
-15 19 -18 19 -50 1z"/>
<path d="M2228 9315 c-3 -3 -63 -8 -134 -11 -71 -3 -131 -7 -133 -10 -3 -2 0
-9 6 -15 7 -7 67 -12 158 -13 l146 -1 -3 25 c-3 23 -27 38 -40 25z"/>
<path d="M3745 9281 c-3 -5 -1 -12 5 -16 12 -7 30 2 30 16 0 12 -27 12 -35 0z"/>
<path d="M1907 9253 c-3 -10 -5 -271 -6 -580 -1 -309 -6 -576 -11 -594 -8 -26
-6 -35 8 -45 9 -7 22 -12 27 -10 6 2 11 221 13 624 2 536 0 622 -12 622 -8 0
-17 -8 -19 -17z"/>
<path d="M12896 9224 c-4 -9 -6 -106 -5 -215 2 -188 1 -199 -20 -225 -11 -14
-21 -35 -21 -45 0 -12 -5 -16 -15 -13 -23 9 -26 -28 -20 -206 3 -91 8 -243 11
-339 l5 -174 -42 -43 c-36 -36 -40 -44 -26 -50 15 -6 61 23 124 76 22 18 53
11 62 -14 5 -13 31 -37 58 -53 27 -17 55 -37 63 -44 8 -8 51 -39 95 -68 48
-32 90 -69 104 -91 15 -24 44 -49 78 -67 82 -43 94 -50 106 -62 6 -6 19 -11
29 -11 16 0 18 10 18 94 0 52 -4 97 -9 101 -5 3 -20 -15 -32 -41 -13 -25 -27
-48 -31 -50 -11 -7 -68 28 -68 42 0 6 -7 18 -17 25 -9 8 -24 31 -33 52 -10 22
-21 34 -24 28 -12 -19 -35 -12 -75 24 l-38 35 5 125 c3 81 1 125 -6 125 -14 0
-33 -58 -26 -84 5 -22 -26 -65 -49 -67 -109 -10 -136 4 -129 64 2 22 -2 44
-11 58 -18 24 -13 71 10 104 23 34 17 47 -20 40 -22 -4 -37 -2 -44 7 -20 24
-31 139 -21 223 5 44 11 114 12 155 4 87 25 168 49 182 15 8 16 26 12 148 -3
93 -10 152 -20 176 -8 20 -15 49 -15 65 0 32 -14 39 -24 13z"/>
<path d="M3284 9193 c1 -21 16 -67 34 -103 17 -36 38 -84 47 -108 8 -24 24
-55 35 -69 11 -14 20 -34 20 -44 0 -10 6 -22 13 -26 15 -9 37 -57 37 -80 0 -8
12 -29 26 -46 23 -28 55 -86 135 -248 15 -31 35 -59 43 -62 9 -4 16 -15 16
-25 0 -11 6 -25 14 -31 7 -6 16 -24 19 -40 3 -15 20 -43 37 -61 17 -18 29 -39
26 -46 -3 -7 2 -18 10 -24 8 -7 14 -23 14 -36 0 -13 9 -28 20 -34 11 -6 20
-21 20 -33 0 -38 19 -91 42 -119 26 -31 78 -49 78 -26 0 7 -55 122 -121 253
-155 306 -267 526 -279 545 -4 8 -18 35 -31 60 -46 94 -114 225 -119 230 -5 5
-30 52 -91 168 -28 53 -48 55 -45 5z"/>
<path d="M12331 9211 c-6 -11 -14 -64 -16 -117 -4 -77 -2 -99 9 -108 12 -8 15
-44 17 -156 2 -80 0 -154 -4 -166 -5 -13 -1 -33 8 -50 19 -37 19 -60 0 -68
-11 -4 -15 -21 -15 -61 0 -37 -7 -70 -21 -97 -20 -39 -20 -52 -4 -119 6 -21 3
-27 -14 -32 -12 -3 -21 -13 -21 -24 0 -10 -21 -38 -46 -62 l-46 -43 -28 27
c-37 35 -49 16 -19 -31 20 -32 20 -40 9 -76 -18 -63 -40 -77 -147 -93 -37 -6
-43 -10 -43 -31 0 -28 -10 -29 -94 -13 -63 13 -73 10 -55 -19 10 -16 24 -20
77 -21 35 0 69 -4 75 -8 7 -4 57 -10 112 -14 55 -4 128 -10 162 -13 55 -5 64
-4 73 14 13 24 28 25 51 4 25 -23 97 0 118 38 13 22 25 29 61 33 25 3 58 12
73 20 16 8 37 15 47 15 10 0 21 4 24 9 3 5 23 12 43 16 37 7 73 34 73 55 0 12
-17 13 -24 1 -3 -4 -23 -11 -45 -15 -22 -3 -52 -12 -68 -20 -52 -26 -78 -34
-124 -40 -25 -3 -59 -12 -75 -19 -53 -27 -98 -39 -194 -54 -110 -17 -219 -22
-226 -11 -8 13 22 38 53 44 18 4 41 23 63 52 19 25 51 64 71 86 96 111 129
169 129 227 0 18 7 55 14 83 43 149 47 177 47 337 1 124 -3 168 -14 193 -17
34 -40 189 -41 278 -1 64 -9 79 -25 49z"/>
<path d="M5047 9198 c-24 -25 -8 -47 17 -23 16 17 22 46 9 44 -5 0 -16 -10
-26 -21z"/>
<path d="M11995 9208 c-15 -47 -29 -316 -17 -342 24 -54 35 -96 41 -149 3 -31
11 -57 16 -57 15 0 10 121 -10 225 -12 66 -15 123 -11 213 3 75 1 122 -5 122
-5 0 -11 -6 -14 -12z"/>
<path d="M3812 9183 c2 -13 12 -18 33 -18 43 0 40 29 -3 33 -28 3 -33 0 -30
-15z"/>
<path d="M3889 9128 c5 -23 14 -34 31 -38 19 -5 25 -12 23 -31 -9 -120 -10
-150 -2 -155 14 -9 10 -217 -5 -281 -27 -110 -28 -119 -10 -137 11 -11 29 -16
53 -14 33 3 36 6 39 36 4 35 16 40 50 16 19 -13 26 -13 54 -1 18 8 41 17 51
21 28 9 20 23 -33 53 -28 15 -53 36 -56 46 -3 10 -19 31 -35 48 -35 36 -39 78
-8 86 14 4 18 10 13 22 -7 15 -9 33 -12 114 -2 30 -7 39 -27 47 -29 11 -33 44
-7 59 16 10 16 12 -4 28 -12 10 -25 28 -28 39 -10 32 -52 74 -74 74 -17 0 -18
-5 -13 -32z m137 -513 c19 -29 12 -45 -21 -45 -49 0 -56 9 -33 41 26 35 33 36
54 4z"/>
<path d="M12470 9126 c0 -8 5 -18 10 -21 6 -3 10 1 10 9 0 8 -4 18 -10 21 -5
3 -10 -1 -10 -9z"/>
<path d="M5034 9076 c-7 -29 1 -46 22 -46 11 0 14 9 12 32 -4 39 -25 48 -34
14z"/>
<path d="M12086 9085 c-3 -8 -1 -25 4 -37 8 -20 9 -18 9 15 1 39 -3 47 -13 22z"/>
<path d="M8536 9042 c-7 -12 4 -52 15 -52 12 0 12 47 0 55 -5 3 -12 2 -15 -3z"/>
<path d="M11164 9029 c-28 -47 3 -506 47 -682 20 -82 26 -110 50 -242 6 -38
17 -77 24 -85 7 -8 15 -23 18 -32 4 -10 11 -18 17 -18 12 0 14 47 2 54 -5 3
-12 46 -15 95 -3 49 -11 99 -17 111 -6 12 -15 42 -20 68 -5 26 -18 97 -29 157
-27 141 -52 375 -53 488 -1 84 -8 111 -24 86z"/>
<path d="M12207 9013 c-11 -10 -8 -43 3 -43 6 0 10 11 10 25 0 26 -2 29 -13
18z"/>
<path d="M1023 8995 c-17 -6 -40 -18 -51 -28 -21 -19 -82 -138 -82 -161 0 -7
-6 -19 -14 -25 -8 -7 -17 -24 -21 -38 -5 -22 1 -32 42 -69 53 -47 70 -53 80
-26 12 33 44 72 60 72 8 0 32 -13 53 -30 21 -16 43 -30 49 -30 15 0 51 -74 51
-107 0 -15 -14 -48 -30 -73 -30 -45 -39 -80 -21 -80 6 0 13 5 16 10 12 20 35
10 51 -22 21 -43 104 -117 104 -94 0 2 -11 29 -26 59 -33 74 -42 174 -21 248
8 29 18 80 22 112 6 54 5 60 -23 91 -16 18 -39 54 -51 80 -25 52 -85 106 -116
106 -12 0 -25 4 -30 8 -6 5 -24 3 -42 -3z m49 -75 c20 0 81 -57 111 -103 19
-30 22 -69 7 -98 -15 -27 -29 -24 -86 16 -27 19 -61 35 -76 35 -15 0 -29 4
-33 10 -4 6 -15 6 -30 0 -27 -10 -31 -3 -16 28 50 101 79 138 95 122 5 -5 18
-10 28 -10z"/>
<path d="M5095 9000 c3 -5 13 -10 21 -10 8 0 14 5 14 10 0 6 -9 10 -21 10 -11
0 -17 -4 -14 -10z"/>
<path d="M12110 8988 c0 -31 11 -68 19 -68 4 0 7 10 8 23 2 34 -6 67 -17 67
-6 0 -10 -10 -10 -22z"/>
<path d="M5178 8968 c17 -8 26 -8 34 0 9 9 4 12 -22 11 -33 0 -34 -1 -12 -11z"/>
<path d="M12210 8904 c0 -14 4 -23 10 -19 6 3 10 15 10 26 0 10 -4 19 -10 19
-5 0 -10 -12 -10 -26z"/>
<path d="M13441 8900 c-24 -28 -67 -103 -117 -201 -13 -26 -24 -57 -24 -70 0
-12 -8 -31 -17 -41 -13 -14 -14 -25 -7 -45 12 -36 25 -33 49 13 11 22 32 58
48 81 15 24 27 51 27 62 0 29 11 51 25 51 7 0 18 7 25 15 7 8 21 15 31 15 17
0 19 8 19 75 0 65 -2 75 -17 75 -10 -1 -29 -14 -42 -30z"/>
<path d="M4070 8910 c0 -13 38 -50 51 -50 4 0 9 -12 11 -27 2 -14 9 -28 16
-31 18 -6 15 47 -3 54 -8 4 -15 14 -15 24 0 10 -8 20 -17 24 -10 3 -24 9 -30
12 -7 3 -13 0 -13 -6z"/>
<path d="M5367 8909 c8 -8 16 -8 30 0 16 9 14 10 -11 11 -22 0 -27 -3 -19 -11z"/>
<path d="M4217 8870 c-4 -15 1 -22 18 -26 37 -9 50 5 26 27 -26 24 -37 24 -44
-1z"/>
<path d="M12149 8862 c-3 -20 -2 -29 4 -23 5 5 7 19 5 32 -3 20 -5 19 -9 -9z"/>
<path d="M10676 8858 c-9 -35 -7 -118 3 -118 12 0 21 37 21 93 0 49 -13 63
-24 25z"/>
<path d="M441 8857 c-5 -7 -14 -32 -20 -56 -5 -25 -21 -55 -36 -68 -18 -17
-23 -28 -16 -36 9 -12 -2 -169 -15 -209 -11 -35 7 -37 52 -6 50 34 64 59 64
119 0 22 7 64 16 92 9 29 18 58 20 65 12 41 77 -67 91 -152 7 -43 16 -51 43
-36 29 15 25 34 -22 127 -28 57 -47 83 -59 83 -10 0 -32 18 -50 39 -36 46 -53
55 -68 38z"/>
<path d="M5627 8854 c-14 -15 2 -144 18 -144 3 0 15 10 26 21 20 20 28 21 103
15 141 -12 261 -37 294 -62 14 -11 -21 -13 -200 -14 -235 0 -231 1 -234 -57
-1 -44 26 -49 60 -10 l26 30 278 -5 c269 -5 318 -10 417 -44 49 -17 108 -18
103 -3 -5 14 -104 49 -141 49 -15 0 -40 9 -55 20 -23 17 -45 21 -120 23 -85 2
-111 8 -79 20 25 9 -6 22 -52 22 -26 0 -54 5 -62 11 -40 32 -109 57 -238 84
-24 6 -49 14 -55 19 -6 4 -20 11 -31 13 -11 3 -27 9 -36 12 -8 4 -18 3 -22 0z"/>
<path d="M11448 8828 c-3 -18 0 -44 6 -58 10 -23 11 -21 14 24 4 57 -13 85
-20 34z"/>
<path d="M4282 8828 c7 -20 48 -23 48 -4 0 11 -9 16 -26 16 -16 0 -24 -5 -22
-12z"/>
<path d="M4166 8775 c-11 -30 -6 -82 10 -96 11 -9 14 -22 9 -45 -5 -27 -2 -35
14 -44 23 -12 65 -4 81 15 17 21 -2 79 -27 83 -28 4 -51 31 -55 66 -3 33 -22
45 -32 21z"/>
<path d="M11606 8783 c-3 -3 -6 -15 -6 -25 0 -10 -5 -27 -12 -38 -10 -15 -9
-34 4 -92 23 -104 59 -193 134 -327 13 -24 24 -52 24 -61 0 -10 7 -23 15 -30
8 -7 15 -25 15 -40 0 -15 6 -33 14 -40 8 -6 16 -24 18 -38 2 -16 9 -27 18 -27
19 0 17 47 -4 90 -26 55 -35 80 -46 121 -5 23 -18 52 -29 65 -10 13 -33 69
-50 124 -18 55 -39 114 -47 130 -13 27 -13 35 1 67 15 36 14 39 -14 82 -15 25
-31 43 -35 39z"/>
<path d="M11037 8754 c-13 -14 -7 -54 8 -54 16 0 18 14 6 43 -3 10 -10 15 -14
11z"/>
<path d="M0 8640 l0 -81 38 3 c31 3 37 7 40 28 2 18 -6 34 -28 55 -16 16 -30
37 -30 46 0 10 -4 21 -10 24 -6 4 -10 -23 -10 -75z"/>
<path d="M12526 8683 c-4 -9 -9 -53 -12 -98 -3 -44 -13 -99 -21 -122 -9 -23
-13 -51 -10 -62 2 -11 -1 -28 -8 -38 -6 -10 -24 -58 -39 -108 -15 -49 -38
-113 -51 -140 -14 -28 -25 -59 -25 -69 0 -18 1 -18 20 -1 23 21 60 94 60 119
0 9 12 38 26 63 29 53 49 111 58 168 3 22 11 63 16 90 18 83 21 215 5 215 -7
0 -16 -8 -19 -17z"/>
<path d="M6684 8653 c-3 -10 -12 -32 -19 -49 -10 -23 -11 -34 -2 -43 15 -15
37 -14 37 2 0 20 69 50 129 56 108 12 53 51 -71 51 -57 0 -70 -3 -74 -17z"/>
<path d="M286 8593 c-4 -32 -14 -82 -22 -110 -8 -29 -12 -64 -8 -78 6 -26 18
-32 29 -15 13 21 44 9 64 -24 29 -47 27 -66 -6 -66 -35 0 -45 7 -68 48 -11 17
-22 32 -26 32 -4 0 -14 3 -23 6 -26 10 -19 -23 14 -72 37 -56 58 -120 42 -136
-7 -7 -24 4 -59 42 -71 77 -126 130 -135 130 -14 0 -9 -18 7 -24 8 -3 15 -15
15 -26 0 -11 7 -23 15 -26 8 -4 15 -10 15 -15 0 -5 18 -38 40 -74 22 -36 40
-69 40 -74 0 -5 7 -14 15 -21 12 -10 14 -29 10 -88 -6 -90 -22 -117 -52 -83
-10 12 -23 41 -30 64 -6 23 -22 69 -36 102 -13 33 -27 68 -30 78 -6 16 -46 24
-59 12 -8 -8 12 -118 25 -140 26 -42 100 -283 93 -301 -7 -18 -9 -17 -27 6
-11 14 -35 58 -54 98 -19 39 -39 72 -45 72 -22 0 -5 -105 31 -198 5 -13 9 -31
9 -40 0 -9 7 -30 15 -46 8 -15 15 -43 15 -62 0 -18 4 -36 10 -39 5 -3 10 -28
10 -54 0 -39 -4 -51 -22 -63 l-22 -15 18 -80 c12 -50 16 -94 12 -119 -16 -96
-34 -299 -27 -316 4 -10 18 -25 31 -31 24 -12 25 -16 25 -122 0 -61 -6 -135
-13 -165 -7 -30 -17 -116 -22 -190 -12 -159 -24 -263 -34 -278 -4 -6 -11 -39
-16 -74 -15 -102 -33 -178 -42 -178 -4 0 -8 -9 -8 -20 0 -24 15 -26 24 -4 14
37 20 -5 23 -184 6 -283 7 -316 17 -331 6 -10 3 -18 -10 -28 -17 -13 -19 -31
-22 -231 -3 -209 -2 -219 17 -237 23 -20 23 -20 25 44 2 43 25 35 46 -16 11
-26 24 -56 30 -65 13 -23 13 -68 0 -68 -5 0 -12 11 -16 25 -3 14 -10 25 -14
25 -5 0 -12 9 -15 21 -7 20 -32 21 -28 1 2 -6 -1 -23 -7 -36 -8 -23 -5 -27 30
-47 42 -24 55 -47 45 -78 -4 -14 0 -23 15 -31 27 -14 29 -70 2 -70 -36 0 -54
24 -56 76 -1 42 -4 49 -23 52 -32 5 -83 -25 -83 -48 0 -13 7 -20 20 -20 12 0
30 -16 46 -42 25 -39 26 -47 20 -120 l-6 -78 25 0 c18 0 26 -6 29 -22 3 -13 7
-35 10 -49 8 -38 67 -108 92 -108 11 -1 25 -6 30 -11 6 -6 35 -8 72 -4 69 8
94 25 127 87 11 21 36 50 55 65 33 25 42 27 155 29 66 2 123 3 128 3 11 0 8
28 -5 49 -8 13 -9 34 -2 72 9 51 10 53 49 64 22 5 47 14 55 20 8 5 21 10 30
10 31 3 127 75 198 148 65 68 77 76 120 81 143 19 181 25 222 35 25 7 55 19
67 27 12 8 30 14 39 14 9 0 33 14 54 30 21 17 41 30 46 30 4 0 24 11 44 25 45
31 74 25 67 -14 -3 -14 -1 -34 5 -44 14 -27 24 -585 20 -1152 -1 -154 0 -345
3 -425 17 -591 17 -606 -1 -624 -16 -17 -16 -21 9 -72 29 -58 33 -88 17 -129
-7 -18 -6 -31 2 -45 10 -15 10 -22 0 -32 -10 -10 -14 -8 -18 10 -4 12 -9 22
-13 22 -10 -1 -66 -49 -61 -53 16 -11 60 -37 65 -37 3 0 5 9 5 20 0 11 5 20
10 20 42 0 -60 -120 -145 -170 -22 -13 -46 -33 -54 -43 -18 -25 -127 -74 -229
-103 -66 -18 -97 -22 -148 -17 -35 3 -68 11 -73 17 -11 13 -14 219 -6 326 l6
75 -30 -35 c-29 -34 -30 -38 -31 -135 0 -55 -3 -124 -6 -152 -9 -75 -29 -86
-171 -91 -62 -3 -120 -1 -130 3 -27 12 -116 5 -132 -10 -36 -34 -9 -36 555
-33 529 3 554 4 560 22 9 29 -7 36 -94 43 -58 4 -82 10 -82 19 0 28 46 44 150
50 58 4 111 11 118 17 17 13 15 42 -3 57 -14 12 -14 15 0 30 10 11 15 37 15
78 0 52 -3 63 -21 72 -20 11 -20 12 -3 38 16 24 17 70 10 662 -3 349 -6 1200
-7 1890 0 1085 -10 2034 -23 2290 -3 41 -5 137 -5 213 -1 106 -5 144 -16 160
-8 12 -15 29 -15 39 0 10 -4 18 -10 18 -5 0 -10 -8 -10 -18 0 -10 -7 -27 -15
-38 -19 -25 -19 -30 6 -55 18 -18 19 -25 10 -46 -8 -17 -8 -29 -1 -38 5 -6 8
-36 5 -66 -11 -144 -12 -283 -3 -371 7 -65 8 -102 1 -110 -9 -11 -18 -137 -14
-193 2 -29 22 -285 25 -319 2 -17 8 -32 14 -34 16 -5 15 -77 0 -105 -9 -16
-12 -133 -13 -442 -1 -422 -4 -466 -39 -555 -13 -31 -28 -130 -43 -263 -4 -42
-11 -53 -52 -88 -101 -87 -245 -128 -486 -138 l-130 -6 2 -39 c4 -56 -32 -99
-115 -138 -37 -17 -74 -37 -82 -43 -21 -18 -143 -47 -182 -43 -26 2 -34 9 -42
33 -5 17 -20 55 -33 85 -14 30 -32 71 -41 90 -27 62 -45 95 -62 115 -15 18
-16 39 -8 218 7 182 10 202 32 240 13 23 29 76 35 116 12 79 25 105 47 97 19
-7 21 -1 38 126 8 63 22 133 30 154 19 50 36 135 36 180 0 49 -23 39 -30 -13
-3 -22 -18 -64 -33 -94 -14 -30 -36 -83 -47 -119 -12 -36 -34 -92 -50 -125
-26 -55 -36 -80 -77 -190 -17 -46 -35 -89 -53 -126 -9 -21 -10 -46 -1 -110 5
-46 12 -202 13 -345 3 -243 2 -263 -15 -282 -17 -19 -19 -36 -15 -161 2 -95 7
-144 16 -153 19 -19 15 -68 -5 -69 -10 -1 -40 -3 -67 -5 -27 -2 -54 -8 -60
-14 -18 -18 -46 -11 -56 15 -5 14 -16 25 -25 25 -18 0 -18 0 -15 120 1 52 8
114 16 138 18 56 18 96 -2 113 -14 12 -15 48 -10 339 4 179 9 379 12 445 5
107 3 125 -15 165 l-21 45 0 -58 c0 -50 -3 -59 -23 -66 -29 -12 -40 0 -28 31
5 14 15 131 21 259 6 129 15 286 21 349 5 63 12 162 15 220 3 58 17 160 30
228 l26 123 -22 107 c-18 91 -20 133 -17 282 4 192 20 410 42 592 8 64 15 140
15 169 0 52 3 65 36 164 9 28 18 68 21 89 3 22 12 46 19 54 8 7 14 22 14 33 0
33 49 100 127 176 47 46 73 79 72 90 -2 10 4 33 13 50 13 26 14 37 5 58 -16
33 -22 32 -37 -7 -7 -18 -23 -47 -35 -63 -13 -17 -24 -39 -26 -50 -3 -14 -14
-21 -34 -23 -17 -2 -34 -8 -39 -13 -15 -14 -42 -11 -58 9 -9 11 -15 41 -16 82
-2 87 -12 160 -22 160 -4 0 -11 -26 -14 -57z m-136 -3214 c0 -21 -4 -39 -9
-39 -11 0 -24 67 -16 80 12 20 25 -2 25 -41z m-4 -385 c-4 -13 -11 -24 -17
-24 -11 0 -4 64 9 85 10 14 15 -32 8 -61z m454 -424 c6 -10 30 -33 54 -49 54
-38 87 -88 79 -120 -6 -23 -7 -23 -102 -16 -53 3 -97 8 -99 9 -1 2 -5 39 -9
82 -5 67 -3 83 11 97 23 23 53 22 66 -3z"/>
<path d="M11032 8629 c2 -7 10 -15 17 -17 8 -3 12 1 9 9 -2 7 -10 15 -17 17
-8 3 -12 -1 -9 -9z"/>
<path d="M1395 8563 c4 -32 13 -97 21 -144 8 -47 11 -99 8 -115 -3 -16 0 -42
7 -59 13 -28 14 -25 19 55 5 82 -10 266 -25 303 -4 9 -14 17 -22 17 -12 0 -13
-11 -8 -57z"/>
<path d="M10614 8596 c-4 -16 -2 -32 4 -38 8 -8 13 -3 18 16 4 16 2 32 -4 38
-8 8 -13 3 -18 -16z"/>
<path d="M12055 8600 c-4 -6 -3 -16 3 -22 6 -6 12 -6 17 2 4 6 3 16 -3 22 -6
6 -12 6 -17 -2z"/>
<path d="M5251 8571 c-19 -3 -36 -12 -39 -19 -3 -11 27 -13 161 -10 91 2 168
6 172 10 4 4 4 11 0 17 -7 12 -233 13 -294 2z"/>
<path d="M11024 8559 c-9 -16 2 -22 21 -11 15 8 16 10 1 15 -8 3 -18 2 -22 -4z"/>
<path d="M1516 8398 c4 -95 3 -156 -5 -183 -6 -22 -14 -89 -18 -150 -4 -70
-13 -124 -24 -149 -9 -22 -15 -44 -13 -51 10 -25 63 -45 119 -45 43 0 61 -4
70 -17 11 -14 18 -16 42 -8 37 14 40 43 9 89 -15 23 -27 59 -32 94 -3 31 -13
69 -20 84 -8 15 -14 37 -14 49 0 12 -6 30 -14 38 -14 15 -45 211 -46 286 -1
35 -29 97 -48 103 -10 3 -11 -25 -6 -140z m114 -447 c5 -11 7 -27 4 -36 -6
-14 -8 -14 -20 2 -16 21 -18 53 -4 53 5 0 14 -9 20 -19z"/>
<path d="M8046 8531 c-4 -5 -9 -30 -12 -55 -6 -38 -4 -46 9 -46 20 0 47 38 47
65 0 33 -31 57 -44 36z"/>
<path d="M10585 8500 c-4 -22 -11 -42 -16 -46 -5 -3 -9 -17 -9 -30 0 -33 24
-27 28 7 2 13 8 28 13 34 12 12 12 75 0 75 -5 0 -12 -18 -16 -40z"/>
<path d="M4260 8511 c0 -11 5 -23 11 -27 6 -4 8 -20 5 -39 -5 -24 -2 -38 11
-51 10 -9 16 -28 15 -41 -3 -20 1 -23 27 -23 38 0 38 8 6 56 -14 20 -25 49
-25 64 0 15 -7 33 -15 40 -8 7 -15 19 -15 26 0 8 -4 14 -10 14 -5 0 -10 -9
-10 -19z"/>
<path d="M170 8481 c0 -21 5 -31 16 -31 11 0 14 8 12 27 -4 39 -28 42 -28 4z"/>
<path d="M11009 8483 c0 -10 0 -39 1 -64 1 -26 -3 -50 -9 -53 -5 -4 -7 -22 -4
-41 4 -26 1 -41 -12 -55 -13 -15 -15 -24 -8 -31 8 -8 13 -5 18 10 4 12 15 21
27 21 18 0 19 4 13 38 -15 70 -13 77 18 74 34 -3 35 11 2 54 -14 18 -25 40
-25 48 0 22 -20 20 -21 -1z"/>
<path d="M4430 8471 c0 -6 4 -12 9 -15 4 -3 11 -24 14 -47 3 -23 11 -46 19
-50 21 -14 94 -10 107 5 16 20 3 46 -24 46 -24 0 -105 48 -105 62 0 4 -4 8
-10 8 -5 0 -10 -4 -10 -9z"/>
<path d="M13240 8404 c0 -9 5 -14 12 -12 18 6 21 28 4 28 -9 0 -16 -7 -16 -16z"/>
<path d="M837 8393 c-12 -11 -8 -46 8 -63 9 -10 22 -76 35 -185 22 -175 37
-230 103 -365 67 -136 201 -315 242 -322 39 -8 39 7 0 58 -32 42 -107 159
-159 247 -38 65 -85 206 -115 344 -18 84 -45 173 -66 218 -35 77 -37 80 -48
68z"/>
<path d="M624 8376 c-4 -10 -1 -28 6 -41 8 -14 10 -37 6 -59 -5 -23 0 -64 13
-114 10 -42 24 -106 30 -142 5 -36 17 -101 25 -145 9 -44 21 -109 27 -145 16
-96 55 -203 112 -310 28 -52 61 -115 73 -139 30 -61 72 -77 143 -55 10 3 1 19
-30 52 -25 26 -57 63 -71 82 -25 34 -117 202 -147 268 -8 17 -19 32 -23 32 -4
0 -8 42 -8 93 0 62 -5 101 -15 121 -8 15 -15 47 -15 71 0 23 -6 60 -14 81 -7
22 -16 69 -20 106 -4 37 -11 70 -16 73 -4 2 -11 30 -15 61 -8 63 -50 139 -61
110z"/>
<path d="M1070 8297 c0 -17 -4 -48 -10 -67 -11 -37 -11 -35 44 -205 30 -94 63
-175 94 -235 5 -8 40 -36 78 -62 l69 -48 125 -4 c69 -2 149 -9 178 -17 56 -13
80 -5 69 25 -5 13 -23 16 -82 16 -41 0 -83 4 -93 10 -19 10 -182 50 -206 50
-25 0 -76 50 -100 99 -66 130 -135 339 -136 408 0 17 -3 38 -6 47 -10 27 -24
18 -24 -17z"/>
<path d="M4343 8305 c-39 -17 -39 -18 -12 -44 21 -19 23 -19 45 -3 25 18 33
62 12 62 -7 -1 -28 -7 -45 -15z"/>
<path d="M1180 8300 c0 -14 46 -99 69 -130 11 -14 23 -22 27 -18 6 7 -13 50
-52 115 -19 33 -44 51 -44 33z"/>
<path d="M13010 8235 c0 -14 5 -25 10 -25 6 0 10 11 10 25 0 14 -4 25 -10 25
-5 0 -10 -11 -10 -25z"/>
<path d="M12980 8159 c0 -11 5 -17 10 -14 6 3 10 13 10 21 0 8 -4 14 -10 14
-5 0 -10 -9 -10 -21z"/>
<path d="M3644 8085 c-10 -24 14 -47 37 -34 23 12 25 35 3 43 -24 9 -34 7 -40
-9z"/>
<path d="M10787 8093 c-11 -10 34 -53 55 -53 21 0 23 10 6 32 -15 19 -51 31
-61 21z"/>
<path d="M10956 8043 c11 -75 41 -120 65 -96 10 10 -17 92 -38 116 -25 26 -32
21 -27 -20z"/>
<path d="M1987 8063 c-13 -12 -7 -23 13 -23 12 0 25 -10 32 -25 9 -20 7 -29
-7 -52 -17 -25 -18 -51 -11 -378 15 -832 26 -1224 35 -1275 5 -30 9 -150 10
-267 1 -116 7 -226 12 -245 6 -18 13 -127 16 -241 6 -218 2 -245 -33 -216 -16
13 -17 11 -10 -16 4 -16 11 -55 16 -86 5 -31 14 -68 20 -83 5 -15 10 -52 10
-83 0 -54 -1 -55 -25 -49 -21 5 -26 2 -31 -20 -4 -15 -4 -228 0 -473 9 -614 9
-1926 1 -2036 -4 -49 -11 -97 -16 -106 -6 -11 -4 -21 6 -29 16 -13 35 -6 35
14 0 8 7 27 15 42 19 37 19 65 0 90 -19 26 -19 53 2 77 13 13 18 38 19 85 10
464 18 1031 16 1122 -4 160 -5 276 -6 645 0 520 0 536 18 595 11 38 15 91 15
170 -1 63 1 151 5 195 3 44 1 190 -4 325 -17 432 -33 1111 -30 1253 1 59 -9
219 -16 239 -7 24 -12 155 -18 570 -3 155 -8 254 -16 267 -10 20 -58 30 -73
14z"/>
<path d="M10920 8035 c0 -8 5 -15 10 -15 6 0 10 7 10 15 0 8 -4 15 -10 15 -5
0 -10 -7 -10 -15z"/>
<path d="M0 7968 c0 -27 5 -48 10 -48 16 0 16 52 -1 80 -6 10 -8 -1 -9 -32z"/>
<path d="M11870 7986 c0 -20 5 -26 21 -26 15 0 20 5 17 22 -5 34 -38 37 -38 4z"/>
<path d="M386 7968 c-17 -107 -28 -459 -21 -674 3 -131 9 -493 11 -804 3 -410
8 -603 19 -702 8 -75 15 -170 15 -210 0 -72 13 -121 23 -88 32 103 49 227 42
306 -4 39 -4 100 0 133 6 55 9 61 26 56 17 -6 19 -1 19 47 0 64 -22 132 -44
136 -11 2 -16 14 -15 35 0 18 3 26 6 20 9 -23 24 -14 39 22 11 27 13 60 9 133
-3 53 -8 142 -10 197 -3 55 -10 154 -15 220 -5 66 -14 199 -20 295 -5 96 -15
236 -20 310 -6 74 -15 223 -20 330 -11 204 -17 257 -31 265 -4 3 -10 -9 -13
-27z m77 -1640 c-8 -46 -13 -48 -13 -5 0 21 4 37 10 37 5 0 7 -14 3 -32z"/>
<path d="M1372 7979 c1 -12 9 -24 16 -27 9 -3 13 3 10 19 -1 12 -9 24 -16 27
-9 3 -13 -3 -10 -19z"/>
<path d="M12675 7884 c-15 -11 -33 -14 -68 -9 -59 7 -68 2 -54 -30 10 -20 19
-25 49 -25 45 0 56 -15 32 -41 -32 -35 -21 -104 25 -170 42 -60 61 -109 42
-109 -6 0 -13 11 -17 25 -3 14 -10 25 -15 25 -12 0 -11 -77 1 -85 6 -3 10 -27
10 -52 0 -26 4 -60 9 -77 23 -74 34 -157 32 -241 -1 -49 3 -135 8 -189 6 -62
6 -129 1 -180 -5 -45 -11 -123 -13 -174 -2 -52 -9 -98 -15 -104 -7 -7 -12 -22
-12 -35 0 -13 -6 -38 -13 -56 -26 -65 9 -95 39 -32 11 24 14 46 10 70 -5 27
-3 37 9 41 9 4 15 18 15 38 0 17 7 42 16 54 12 17 13 26 4 37 -7 9 -8 15 -1
19 6 4 8 19 5 34 -3 15 -1 38 4 52 5 14 6 37 1 52 -5 19 -3 38 7 58 14 27 14
32 -1 46 -13 14 -16 35 -13 115 1 68 -1 102 -10 111 -14 14 -17 98 -3 98 5 0
13 -17 19 -37 10 -37 10 -37 11 -8 1 17 -6 58 -15 90 -9 33 -20 80 -25 104 -5
24 -14 49 -19 56 -6 7 -13 36 -17 65 -5 47 -4 52 13 48 13 -2 20 -13 22 -33 2
-17 10 -33 17 -38 8 -4 19 -33 26 -65 6 -31 20 -75 29 -97 10 -22 21 -60 25
-85 4 -24 13 -54 21 -65 10 -15 11 -36 3 -90 -11 -85 -7 -182 9 -211 10 -19 8
-24 -10 -36 -19 -13 -20 -18 -10 -48 15 -43 15 -60 0 -60 -19 0 -21 -107 -2
-135 8 -12 12 -29 9 -38 -4 -8 -2 -18 3 -21 6 -3 13 6 16 20 4 14 12 24 19 21
8 -2 13 -38 14 -113 4 -135 -2 -170 -26 -177 -16 -4 -17 -10 -10 -58 8 -50 7
-55 -18 -81 -30 -32 -27 -42 11 -32 24 6 31 18 28 54 -1 8 8 42 19 76 16 49
19 86 18 195 -2 240 2 343 13 417 12 78 5 295 -12 367 -18 82 -31 126 -39 143
-16 31 -40 96 -57 157 -20 71 -66 170 -113 243 -30 47 -33 58 -27 99 3 26 13
54 22 64 19 21 10 59 -14 59 -9 0 -26 -8 -37 -16z"/>
<path d="M11248 7849 c-6 -4 -8 -14 -5 -23 5 -13 25 -16 99 -18 117 -3 121 -2
253 6 134 9 161 14 148 27 -11 11 -477 19 -495 8z"/>
<path d="M3693 7800 c0 -30 2 -43 4 -27 2 15 2 39 0 55 -2 15 -4 2 -4 -28z"/>
<path d="M2367 7813 c-12 -12 47 -103 68 -103 9 0 5 30 -7 51 -11 17 -10 22 7
35 19 14 18 15 -10 12 -17 -1 -35 1 -41 5 -6 3 -14 4 -17 0z"/>
<path d="M12432 7773 c-27 -27 -52 -43 -67 -43 -13 0 -26 -4 -29 -9 -13 -20
-73 -20 -141 -2 -46 13 -85 18 -117 14 -30 -4 -53 -1 -62 6 -17 14 -147 27
-172 17 -28 -11 1 -26 49 -26 56 0 92 -43 100 -118 4 -31 11 -88 16 -127 5
-38 13 -181 16 -318 4 -136 12 -250 16 -253 5 -3 9 -40 9 -83 0 -97 10 -172
21 -165 9 5 5 316 -11 824 -2 55 -8 101 -15 110 -7 8 -15 26 -17 40 -3 14 -9
33 -13 44 -8 17 -4 18 66 11 41 -4 78 -11 84 -16 5 -5 21 -9 36 -9 15 0 31 -5
34 -10 5 -8 11 -7 21 1 21 17 29 4 30 -47 1 -35 -2 -44 -16 -44 -25 0 -38 -36
-45 -130 -10 -113 -12 -443 -6 -702 1 -27 -6 -62 -14 -79 -15 -28 -15 -33 0
-55 11 -17 14 -35 9 -59 -7 -39 3 -65 17 -44 7 11 9 10 9 -3 0 -9 -6 -18 -12
-21 -10 -3 -10 -9 -1 -25 10 -17 10 -34 -3 -88 -10 -46 -12 -70 -5 -78 6 -7 8
-16 5 -19 -4 -4 -9 -37 -11 -74 -2 -39 -10 -74 -19 -84 -20 -23 -18 -28 14
-26 24 2 27 -1 27 -28 0 -28 3 -30 45 -35 25 -3 57 -14 72 -24 17 -11 35 -15
48 -11 38 12 18 37 -49 60 -74 24 -88 45 -73 110 13 52 8 841 -5 875 -13 33
-17 356 -5 364 5 3 13 44 17 90 5 59 11 86 21 90 8 3 14 17 14 30 0 15 8 30
20 36 11 6 20 16 20 23 0 23 55 67 83 67 18 0 30 6 33 18 3 9 10 25 15 35 10
18 4 38 -9 35 -4 0 -26 -21 -50 -45z"/>
<path d="M1844 7733 c9 -90 21 -101 33 -30 7 46 -2 83 -23 91 -15 6 -16 -1
-10 -61z"/>
<path d="M565 7769 c-3 -15 -1 -53 5 -85 7 -33 16 -79 20 -104 9 -48 22 -98
51 -199 11 -35 19 -73 19 -83 0 -10 5 -18 11 -18 15 0 6 130 -15 230 -8 41
-20 98 -26 127 -6 29 -21 76 -34 105 -23 50 -24 52 -31 27z"/>
<path d="M11186 7781 c-9 -13 4 -41 18 -41 21 0 49 26 42 38 -9 14 -52 16 -60
3z"/>
<path d="M11603 7695 c2 -31 7 -58 10 -61 14 -15 22 9 19 60 -3 41 -8 56 -18
56 -12 0 -14 -12 -11 -55z"/>
<path d="M2450 7686 c0 -8 5 -18 10 -21 6 -3 10 3 10 14 0 12 -4 21 -10 21 -5
0 -10 -6 -10 -14z"/>
<path d="M3960 7667 c0 -8 8 -22 19 -31 16 -15 19 -15 24 -2 6 16 -16 46 -34
46 -5 0 -9 -6 -9 -13z"/>
<path d="M12555 7660 c-10 -11 -24 -20 -31 -20 -7 0 -34 -14 -59 -32 -32 -23
-44 -37 -39 -48 18 -41 16 -67 -5 -73 -21 -5 -21 -9 -18 -164 3 -137 7 -164
26 -206 15 -33 21 -65 21 -105 -2 -73 8 -339 14 -417 3 -33 6 -142 8 -242 l2
-183 32 0 c19 0 34 -6 38 -15 3 -8 12 -15 21 -15 9 0 18 7 21 15 4 8 17 15 30
15 14 0 24 6 24 14 0 7 9 16 20 19 24 6 37 34 22 49 -8 8 -14 4 -23 -16 -9
-19 -17 -25 -31 -20 -12 4 -24 -1 -32 -11 -20 -28 -49 -15 -57 25 -4 19 -10
134 -13 255 -9 298 -14 420 -23 553 -4 63 -5 119 -1 125 8 13 -1 37 -14 37 -6
0 -17 -8 -24 -17 -12 -16 -13 -9 -14 50 0 38 5 99 11 137 8 51 7 74 -1 91 -10
18 -9 24 4 31 9 5 16 18 16 28 0 45 59 116 75 90 11 -19 23 -10 30 21 9 41 -6
55 -30 29z"/>
<path d="M11514 7648 c-10 -31 -5 -211 5 -221 14 -14 20 40 17 141 -3 97 -9
119 -22 80z"/>
<path d="M2477 7648 c-2 -7 15 -37 39 -66 24 -30 44 -48 44 -40 0 7 -13 28
-30 46 -16 18 -30 42 -30 53 0 21 -15 26 -23 7z"/>
<path d="M3630 7636 c0 -14 5 -26 10 -26 6 0 10 9 10 19 0 11 -4 23 -10 26 -6
4 -10 -5 -10 -19z"/>
<path d="M11216 7614 c-8 -22 1 -31 16 -16 9 9 9 15 1 23 -7 7 -12 5 -17 -7z"/>
<path d="M3046 7578 c-9 -5 -21 -6 -26 -3 -19 12 -133 -39 -169 -76 -20 -19
-53 -43 -74 -53 -32 -15 -36 -20 -31 -42 8 -30 -8 -31 -47 -3 -16 11 -29 16
-29 10 0 -6 5 -11 10 -11 6 0 10 -5 10 -11 0 -13 61 -89 71 -89 5 0 15 15 24
33 8 17 34 52 56 77 23 25 48 55 56 68 9 12 23 22 32 22 9 0 21 4 27 9 13 14
122 29 172 23 39 -4 56 8 32 23 -27 17 -99 31 -114 23z"/>
<path d="M11637 7577 c-9 -23 8 -41 22 -24 9 11 8 17 -3 26 -10 9 -15 8 -19
-2z"/>
<path d="M3920 7565 c0 -8 7 -15 15 -15 8 0 15 7 15 15 0 8 -7 15 -15 15 -8 0
-15 -7 -15 -15z"/>
<path d="M1640 7530 c0 -5 6 -10 14 -10 8 0 18 5 21 10 3 6 -3 10 -14 10 -12
0 -21 -4 -21 -10z"/>
<path d="M12552 7523 c-11 -28 -7 -114 8 -163 l14 -45 7 55 c5 30 6 73 4 95
-2 22 -4 48 -4 58 -1 9 -6 17 -11 17 -6 0 -14 -8 -18 -17z"/>
<path d="M1380 7522 c-110 -8 -97 -29 20 -33 41 -2 83 1 92 5 13 6 20 2 30
-18 l12 -27 22 28 c13 15 23 33 24 39 0 11 -102 14 -200 6z"/>
<path d="M1333 7463 c-21 -8 -15 -22 19 -43 36 -22 48 -18 48 15 0 29 -31 43
-67 28z"/>
<path d="M3490 7410 c-21 -16 -23 -21 -12 -32 11 -11 16 -10 28 6 12 17 20 46
12 46 -2 0 -14 -9 -28 -20z"/>
<path d="M1100 7411 c0 -36 21 -57 74 -75 31 -11 56 -23 56 -26 0 -4 20 -11
45 -14 59 -9 60 -9 63 8 4 18 -59 40 -88 31 -13 -4 -22 -1 -26 9 -3 9 -17 16
-30 16 -14 0 -35 13 -51 30 -26 30 -43 38 -43 21z"/>
<path d="M3385 7398 c-16 -6 -36 -12 -42 -14 -7 -2 -13 -13 -13 -24 0 -12 -7
-20 -17 -20 -22 0 -124 -38 -138 -51 -5 -5 -18 -9 -30 -9 -18 0 -64 -27 -132
-76 -25 -19 -39 -52 -26 -64 4 -5 98 -10 208 -11 110 -1 213 -6 229 -10 37
-11 134 -14 143 -5 4 3 2 23 -3 44 -7 30 -14 37 -34 37 -30 1 -61 21 -90 58
-12 15 -27 27 -34 27 -14 0 -62 48 -55 55 3 2 23 8 45 13 33 6 40 12 42 35 4
29 -4 32 -53 15z m-7 -174 c18 -12 22 -19 13 -22 -22 -7 -121 20 -121 33 0 18
76 10 108 -11z"/>
<path d="M12303 7285 c0 -44 2 -61 4 -37 2 23 2 59 0 80 -2 20 -4 1 -4 -43z"/>
<path d="M4155 7329 c-4 -6 2 -13 14 -16 26 -7 29 -58 5 -84 -9 -10 -17 -33
-17 -51 -2 -27 2 -34 21 -36 12 -2 22 -2 23 0 8 31 7 163 -1 178 -12 22 -35
26 -45 9z"/>
<path d="M3591 7299 c-15 -45 1 -61 31 -31 18 17 20 26 12 39 -18 28 -31 25
-43 -8z"/>
<path d="M2677 7287 c-9 -15 -12 -29 -6 -38 4 -9 10 -38 12 -66 3 -33 15 -71
36 -107 17 -31 31 -63 31 -71 0 -24 14 -17 33 17 13 22 15 33 7 38 -7 4 -13
26 -14 49 -2 32 -9 48 -33 70 -23 21 -30 35 -26 50 3 11 9 21 14 21 15 0 10
26 -9 43 -24 22 -27 21 -45 -6z"/>
<path d="M1140 7270 c0 -5 9 -10 20 -10 11 0 20 5 20 10 0 6 -9 10 -20 10 -11
0 -20 -4 -20 -10z"/>
<path d="M11503 7259 c4 -13 7 -27 7 -31 0 -5 5 -8 11 -8 15 0 6 53 -10 58
-10 4 -12 -1 -8 -19z"/>
<path d="M1316 7241 c-14 -22 -4 -264 13 -308 9 -24 19 -43 24 -43 10 0 9 111
-4 231 -10 106 -20 141 -33 120z"/>
<path d="M4020 7225 c0 -3 5 -15 12 -28 6 -12 14 -29 18 -37 12 -26 32 -16 35
18 2 25 -1 32 -16 32 -10 0 -21 5 -24 10 -6 10 -25 14 -25 5z"/>
<path d="M4342 7221 c4 -13 18 -16 19 -4 0 4 -5 9 -11 12 -7 2 -11 -2 -8 -8z"/>
<path d="M4219 7065 c-20 -7 -41 -10 -48 -6 -16 10 -200 3 -231 -9 -14 -5
-122 -11 -241 -13 -118 -2 -221 -7 -228 -11 -8 -5 -9 -12 -2 -19 5 -7 11 -23
14 -37 4 -25 5 -25 12 -3 8 23 38 39 55 28 5 -3 10 -24 10 -45 0 -56 15 -57
43 -3 22 45 26 48 63 48 32 0 38 -3 36 -17 -4 -22 16 -23 39 -2 16 14 21 15
48 1 26 -13 30 -13 36 0 4 12 15 14 50 10 39 -6 46 -4 64 19 18 23 23 24 58
15 53 -15 88 -14 103 4 11 14 15 14 29 1 10 -9 26 -13 39 -9 15 3 24 0 28 -11
9 -22 24 -20 24 3 0 13 8 21 23 23 14 2 23 11 25 26 4 25 1 26 -49 7z"/>
<path d="M4322 7058 c5 -15 28 -18 29 -3 0 6 -7 12 -17 13 -10 3 -15 -1 -12
-10z"/>
<path d="M2836 7051 c-4 -5 2 -12 13 -16 10 -3 24 -19 31 -36 17 -39 53 -37
58 4 3 28 16 35 28 16 5 -8 10 -6 16 5 11 20 52 21 69 0 11 -14 13 -14 21 0 5
9 7 20 4 24 -7 11 -233 15 -240 3z"/>
<path d="M3110 7054 c0 -10 44 -43 58 -44 8 0 22 -10 32 -22 15 -19 21 -21 42
-11 13 6 36 9 49 6 16 -3 30 1 38 11 15 18 58 21 81 6 14 -9 40 4 40 20 0 11
-151 18 -178 8 -13 -4 -29 -5 -35 -1 -36 23 -127 43 -127 27z"/>
<path d="M12537 7044 c-10 -11 -9 -114 2 -114 13 0 24 87 14 105 -5 9 -12 12
-16 9z"/>
<path d="M11401 6938 c0 -44 3 -57 9 -43 12 28 12 93 0 100 -6 4 -10 -17 -9
-57z"/>
<path d="M11880 6976 c0 -14 5 -28 11 -31 15 -10 18 -4 12 28 -7 34 -23 36
-23 3z"/>
<path d="M4024 6975 c-8 -20 4 -35 29 -35 31 0 51 15 44 34 -8 20 -65 22 -73
1z"/>
<path d="M3150 6960 c0 -19 3 -21 12 -12 9 9 9 15 0 24 -9 9 -12 7 -12 -12z"/>
<path d="M3770 6921 c0 -24 18 -37 31 -24 13 13 1 43 -17 43 -8 0 -14 -9 -14
-19z"/>
<path d="M3890 6905 c7 -8 16 -12 21 -9 13 8 1 24 -18 24 -13 0 -13 -3 -3 -15z"/>
<path d="M6410 6900 c-14 -26 -5 -40 25 -40 13 0 29 -8 34 -18 7 -12 7 -107 2
-264 -6 -207 -10 -250 -24 -272 -15 -22 -21 -25 -38 -16 -24 13 -39 5 -39 -21
0 -19 4 -20 55 -14 45 6 59 4 74 -9 14 -12 24 -14 43 -7 15 6 31 5 42 -1 13
-7 22 -5 35 6 15 14 23 15 43 6 19 -9 33 -8 60 3 25 11 39 12 46 5 14 -14 42
-3 42 17 0 12 -8 15 -32 13 l-33 -3 -12 170 c-30 402 -30 413 10 406 15 -2 20
31 6 40 -24 15 -62 10 -86 -12 -18 -18 -25 -20 -37 -9 -10 7 -34 10 -63 8 -29
-2 -52 1 -58 8 -5 6 -27 15 -47 18 -31 6 -39 3 -48 -14z m162 -391 c1 -148 -5
-193 -25 -186 -13 4 -15 274 -3 323 15 58 26 2 28 -137z m98 11 c0 -16 -4 -32
-10 -35 -6 -4 -10 10 -10 35 0 25 4 39 10 35 6 -3 10 -19 10 -35z m-2 -126
c-3 -46 -4 -47 -16 -26 -8 14 -10 35 -6 58 9 51 26 27 22 -32z"/>
<path d="M11635 6910 c-8 -13 5 -61 16 -54 12 7 12 64 0 64 -6 0 -12 -4 -16
-10z"/>
<path d="M1332 6857 c-7 -8 -7 -28 -2 -57 5 -25 8 -52 8 -60 -3 -41 3 -71 12
-65 12 8 13 195 1 195 -5 0 -13 -6 -19 -13z"/>
<path d="M5724 6855 c-6 -14 -15 -16 -47 -11 -35 6 -39 5 -32 -11 5 -10 10
-33 13 -50 3 -25 0 -33 -11 -33 -9 0 -19 5 -22 10 -11 17 -54 11 -75 -10 -12
-12 -18 -25 -15 -30 3 -4 72 -9 154 -9 128 0 153 2 184 19 44 24 88 25 128 4
48 -24 98 0 78 38 -7 13 -17 16 -34 12 -18 -4 -30 1 -49 21 -28 30 -60 30 -64
-1 -3 -18 -9 -20 -65 -17 -34 2 -68 5 -76 6 -8 1 -19 17 -26 36 -13 39 -32 51
-41 26z"/>
<path d="M3425 6840 c3 -5 13 -10 21 -10 8 0 14 5 14 10 0 6 -9 10 -21 10 -11
0 -17 -4 -14 -10z"/>
<path d="M2893 6818 c-5 -7 -14 -25 -20 -40 -11 -23 -9 -28 12 -42 21 -14 27
-14 61 0 20 9 46 13 58 9 67 -21 86 -22 103 -9 10 7 28 14 41 14 12 0 22 4 22
9 0 15 -15 20 -30 11 -10 -6 -22 -2 -37 12 -21 20 -24 20 -41 5 -34 -31 -98
-20 -113 19 -9 26 -41 32 -56 12z"/>
<path d="M6163 6800 c-3 -11 -11 -20 -19 -20 -20 0 -28 -21 -13 -31 23 -14 69
-10 76 7 7 19 -12 64 -28 64 -6 0 -13 -9 -16 -20z"/>
<path d="M2737 6781 c-9 -16 -17 -34 -17 -39 0 -13 51 -25 61 -15 9 9 -10 83
-21 83 -3 0 -13 -13 -23 -29z"/>
<path d="M2812 6773 c-14 -45 -1 -66 25 -41 14 15 15 20 1 47 l-15 31 -11 -37z"/>
<path d="M3567 6793 c-13 -13 -7 -53 8 -53 10 0 15 10 15 30 0 29 -9 38 -23
23z"/>
<path d="M5471 6754 c-25 -29 -20 -44 15 -44 20 0 24 5 24 29 0 40 -13 45 -39
15z"/>
<path d="M11640 6748 c0 -19 2 -20 10 -8 13 19 13 30 0 30 -5 0 -10 -10 -10
-22z"/>
<path d="M4160 6730 c0 -5 7 -10 15 -10 8 0 15 5 15 10 0 6 -7 10 -15 10 -8 0
-15 -4 -15 -10z"/>
<path d="M5383 6728 c2 -7 12 -13 22 -13 10 0 20 6 23 13 2 7 -6 12 -23 12
-17 0 -25 -5 -22 -12z"/>
<path d="M2682 6708 c-7 -7 -12 -27 -12 -46 0 -18 -5 -42 -11 -53 -8 -16 -7
-26 5 -44 9 -14 16 -37 16 -52 0 -29 15 -61 24 -52 8 8 15 180 9 222 -6 39
-12 44 -31 25z"/>
<path d="M3177 6713 c-7 -11 -10 -129 -5 -208 l3 -60 -230 -5 -230 -5 3 -43
c4 -49 -10 -72 -43 -72 -26 0 -75 -23 -86 -41 -6 -10 -11 -10 -23 0 -29 24
-226 -94 -226 -136 0 -7 -6 -13 -13 -13 -16 0 -15 -102 2 -360 5 -80 10 -284
10 -455 1 -170 4 -454 8 -630 3 -176 5 -332 4 -347 -7 -120 0 -806 10 -915 12
-146 19 -317 24 -633 2 -146 8 -283 14 -305 6 -22 11 -64 11 -94 0 -52 -2 -56
-50 -102 -44 -42 -50 -53 -50 -88 0 -37 3 -41 24 -41 14 0 28 -5 32 -11 10
-17 -16 -28 -47 -19 -36 11 -42 -5 -42 -113 0 -66 -3 -83 -19 -99 -26 -26 -11
-42 37 -41 28 1 41 -6 65 -33 32 -37 36 -49 20 -59 -6 -3 -10 -24 -10 -45 0
-59 -15 -87 -59 -110 l-40 -20 -45 22 c-58 28 -75 63 -57 122 18 62 18 150 -2
154 -8 2 -18 10 -21 17 -8 22 10 210 23 233 6 11 11 33 11 47 0 19 12 39 40
64 33 30 40 43 40 72 0 37 -21 66 -40 54 -5 -3 -10 -13 -10 -21 0 -8 -7 -17
-16 -21 -8 -3 -30 -35 -49 -72 -38 -74 -74 -126 -156 -227 -31 -38 -69 -89
-84 -114 -16 -25 -41 -61 -55 -80 -48 -64 -62 -157 -66 -439 -4 -243 -5 -255
-25 -277 -28 -30 -17 -44 36 -44 55 0 96 -24 131 -75 33 -49 28 -80 -23 -141
-39 -48 -97 -84 -135 -84 -28 0 -85 33 -115 67 -18 21 -21 32 -16 81 3 31 10
65 14 74 5 9 9 30 9 47 0 16 5 33 12 37 7 4 -2 13 -23 23 l-34 16 -3 170 c-5
244 30 502 75 556 7 8 13 26 13 38 0 21 -3 22 -27 16 -16 -4 -244 -9 -508 -12
-263 -2 -482 -7 -486 -11 -4 -4 -3 -34 2 -67 5 -33 8 -164 7 -291 -1 -127 2
-236 6 -243 13 -20 47 17 40 44 -4 15 0 24 10 28 9 4 16 17 16 31 0 14 5 28
11 32 6 3 9 15 6 25 -3 10 1 23 9 30 18 15 18 43 -1 59 -20 17 -19 33 5 55 19
17 19 20 4 36 -20 23 -16 145 5 159 22 13 123 20 296 20 88 0 212 1 275 1 100
0 119 -2 140 -19 21 -16 25 -28 24 -70 0 -54 -14 -79 -51 -93 -29 -11 -30 -27
0 -31 20 -3 22 -9 22 -56 0 -34 5 -56 14 -61 8 -5 11 -16 7 -29 -4 -12 -2 -40
4 -63 10 -36 9 -47 -6 -75 -16 -29 -16 -36 -4 -61 18 -37 13 -125 -7 -137 -13
-7 -9 -11 17 -22 25 -11 31 -19 27 -34 -3 -13 2 -28 16 -40 17 -17 21 -32 21
-92 l1 -73 -155 -7 c-85 -3 -160 -2 -165 2 -16 13 -152 7 -167 -8 -22 -22 5
-37 41 -23 17 8 39 10 53 5 13 -4 51 -7 86 -5 35 1 69 -2 75 -7 7 -5 54 -13
105 -17 51 -3 123 -15 160 -26 104 -30 180 -25 298 16 54 20 111 47 125 61 15
14 68 40 120 57 80 27 95 36 97 56 2 13 0 27 -5 32 -4 4 -57 -6 -118 -23 -142
-40 -166 -41 -175 -7 -4 15 -4 33 0 40 5 7 3 21 -6 33 -8 11 -14 30 -14 43 0
14 -10 27 -27 35 -20 10 -28 21 -28 40 0 14 -10 37 -23 51 -22 24 -23 26 -7
62 9 24 13 51 9 72 -4 23 -2 33 6 33 8 0 11 11 8 32 -3 18 0 41 6 50 8 13 8
23 -2 38 -15 24 -6 92 17 134 12 22 13 30 4 33 -7 3 -13 17 -13 31 0 34 37
134 54 147 7 6 25 33 39 61 14 28 33 57 42 64 15 12 19 12 31 -5 8 -10 14 -31
14 -47 0 -15 4 -28 9 -28 21 0 32 -68 22 -126 -6 -31 -9 -60 -6 -64 7 -11 -23
-40 -41 -40 -25 0 -14 -15 24 -31 20 -9 55 -24 77 -33 22 -10 64 -17 98 -17
90 0 103 -8 102 -63 -1 -28 3 -50 12 -57 7 -6 13 -22 13 -35 0 -12 5 -26 11
-30 7 -4 9 -21 5 -43 -5 -33 -2 -41 30 -72 34 -32 35 -36 29 -84 -4 -29 -15
-59 -27 -72 -27 -28 -14 -50 49 -84 40 -21 49 -31 51 -57 3 -27 -2 -33 -37
-51 -22 -12 -47 -21 -56 -21 -8 0 -15 -4 -15 -9 0 -11 36 -21 82 -21 20 0 65
-7 100 -16 65 -17 172 -14 192 6 6 6 21 10 35 10 15 1 44 9 66 20 22 11 44 19
49 20 5 0 50 20 100 44 50 24 109 47 131 51 22 4 44 10 50 13 5 4 30 13 55 20
25 7 61 17 80 23 19 6 53 14 75 18 37 6 40 9 38 35 -1 16 -7 34 -12 39 -12 12
-125 -10 -156 -29 -11 -7 -38 -12 -60 -12 -35 2 -78 -13 -157 -53 -45 -23 -78
2 -42 32 14 11 13 14 -10 26 -23 12 -24 16 -14 38 8 19 8 31 0 50 -7 14 -12
37 -12 51 0 14 -9 37 -20 51 -15 19 -17 30 -9 44 7 13 6 25 -1 39 -6 11 -8 25
-5 30 8 12 -45 13 -64 1 -9 -6 -12 -18 -8 -32 9 -32 -9 -49 -53 -49 -36 0 -67
-20 -53 -33 3 -4 18 -7 32 -7 36 0 86 -38 105 -80 22 -51 21 -137 -4 -187 -30
-64 -101 -120 -160 -128 -99 -14 -153 18 -195 113 -17 37 -30 52 -43 52 -29 0
-34 53 -10 101 20 43 32 47 60 22 14 -12 21 -14 30 -5 8 8 5 21 -9 49 -19 36
-23 38 -70 38 -39 0 -55 5 -76 25 -35 33 -36 110 -2 110 16 0 52 53 39 57 -45
16 -59 31 -57 58 9 115 13 479 8 705 -1 63 -3 428 -5 810 -1 382 -6 909 -12
1170 -5 261 -13 754 -17 1095 -7 539 -12 714 -23 800 -2 14 7 24 32 37 117 57
227 108 235 108 5 0 17 8 27 17 16 15 44 16 236 14 119 -1 232 -4 250 -8 30
-5 33 -2 47 31 19 44 36 45 85 6 49 -39 68 -39 72 1 2 20 12 36 30 47 25 15
31 15 80 -2 29 -10 74 -36 100 -57 26 -22 49 -39 52 -39 12 0 5 68 -8 79 -17
14 -29 90 -20 125 4 19 15 29 35 33 22 4 29 11 29 29 0 29 -3 30 -40 2 -17
-12 -49 -24 -72 -27 -38 -5 -43 -9 -43 -31 0 -14 -4 -26 -10 -27 -5 -2 -10 7
-10 20 0 37 -29 26 -35 -13 l-5 -35 -55 3 c-42 2 -57 -1 -67 -14 -11 -14 -16
-15 -43 -4 -35 14 -38 30 -10 55 19 17 19 18 -17 56 -21 22 -43 39 -50 39 -7
0 -13 5 -13 10 0 6 10 10 23 10 39 0 57 21 49 55 -4 17 -14 40 -22 51 -16 22
-74 41 -83 27z m53 -263 c0 -30 -13 -40 -25 -20 -8 13 4 50 16 50 5 0 9 -13 9
-30z m-124 -57 c3 -10 9 -25 14 -34 5 -9 6 -20 3 -23 -8 -7 -98 -8 -105 -1 -2
3 -3 18 0 34 3 25 10 31 36 34 17 2 35 5 39 5 4 1 10 -6 13 -15z m-221 -13 c0
-9 -7 -14 -18 -12 -9 2 -20 -4 -23 -13 -14 -35 -28 6 -15 43 0 2 13 2 29 0 16
-2 27 -9 27 -18z"/>
<path d="M6285 6710 c-4 -7 -16 -9 -27 -7 -10 3 -42 -7 -71 -21 -28 -15 -63
-28 -77 -29 -167 -14 -390 -16 -751 -7 -155 4 -229 2 -233 -5 -4 -6 0 -23 7
-38 11 -21 12 -32 4 -45 -17 -27 6 -47 34 -30 11 7 29 10 39 7 15 -5 19 0 22
22 3 27 4 28 58 25 30 -2 67 -10 82 -18 36 -19 45 -18 53 6 7 22 49 28 60 9 5
-6 27 -8 61 -3 50 6 54 5 63 -17 9 -23 10 -23 10 -3 1 33 30 39 41 9 12 -31
40 -23 40 12 l0 24 29 -20 c35 -25 40 -26 56 -5 15 22 51 10 59 -19 l6 -22 14
24 c10 18 23 24 63 27 37 3 54 0 63 -11 17 -20 27 -19 35 4 4 12 19 21 43 26
20 4 45 14 54 22 16 14 19 14 37 -8 18 -21 28 -75 22 -119 -1 -8 -4 -31 -6
-52 -2 -20 -11 -48 -20 -62 -18 -26 -21 -27 -130 -30 -19 -1 -31 -7 -33 -17
-3 -15 10 -16 113 -13 63 2 121 6 127 10 7 4 26 7 43 6 37 -3 91 40 78 61 -4
6 -10 80 -13 162 -5 144 -6 150 -27 153 -11 2 -24 -2 -28 -8z m-5 -195 c0 -8
-4 -15 -10 -15 -5 0 -10 7 -10 15 0 8 5 15 10 15 6 0 10 -7 10 -15z"/>
<path d="M3960 6671 l-35 -6 -3 -78 c-2 -68 -5 -78 -20 -75 -11 2 -18 15 -20
36 -3 32 -4 32 -45 26 -71 -9 -87 -14 -87 -25 0 -7 14 -10 36 -7 27 3 38 0 45
-14 5 -10 15 -18 22 -18 7 0 29 -15 49 -33 20 -17 61 -47 91 -65 75 -47 129
-99 125 -120 -4 -17 -18 -20 -53 -9 -30 10 -43 -4 -46 -48 -5 -46 -14 -45 133
-24 l97 13 21 43 c12 23 31 50 43 58 21 15 21 15 2 29 -15 11 -17 17 -8 27 9
9 9 16 0 31 -16 24 8 42 36 27 18 -10 18 -12 2 -29 -21 -23 -12 -40 21 -40 58
0 62 9 63 146 l2 126 -48 -6 c-72 -9 -69 -9 -207 -1 -107 7 -132 11 -145 27
-8 10 -20 17 -26 17 -5 -1 -26 -4 -45 -8z m255 -89 c6 -14 19 -22 34 -22 13 0
30 -8 38 -17 10 -13 16 -15 19 -5 9 19 28 14 54 -12 24 -26 22 -56 -4 -56 -8
0 -19 6 -23 13 -4 8 -22 17 -40 20 -26 5 -33 3 -38 -13 -9 -29 -33 -24 -41 7
-4 15 -13 38 -20 52 -17 33 -18 64 -1 59 6 -3 16 -14 22 -26z m-231 -8 c5 -13
9 -14 21 -4 21 17 92 21 104 6 9 -11 12 -33 10 -91 0 -11 3 -32 6 -47 4 -15 4
-39 1 -54 l-7 -26 -22 29 c-12 15 -30 36 -40 46 -10 10 -22 29 -28 44 -8 21
-14 25 -39 20 -25 -6 -29 -3 -35 23 -11 50 13 95 29 54z m240 -120 c18 -47 -6
-74 -43 -48 -20 15 -28 44 -14 57 12 13 51 7 57 -9z m26 -83 c0 -20 -13 -41
-24 -41 -7 0 -16 -15 -21 -32 -12 -40 -39 -44 -43 -7 -2 21 2 28 22 33 16 4
28 16 32 31 6 23 34 36 34 16z"/>
<path d="M11900 6616 c0 -14 -4 -28 -10 -31 -12 -7 -13 -55 -2 -55 13 0 32 48
32 80 0 17 -4 30 -10 30 -5 0 -10 -11 -10 -24z"/>
<path d="M3360 6605 c0 -8 7 -15 16 -15 14 0 14 3 4 15 -7 8 -14 15 -16 15 -2
0 -4 -7 -4 -15z"/>
<path d="M2820 6581 c-66 -9 -39 -18 75 -26 100 -7 163 4 150 25 -7 11 -148
11 -225 1z"/>
<path d="M3085 6581 c-3 -5 -1 -12 5 -16 14 -9 52 4 45 16 -8 12 -42 12 -50 0z"/>
<path d="M5540 6531 c0 -22 15 -35 30 -26 7 4 7 13 0 26 -14 25 -30 25 -30 0z"/>
<path d="M5785 6519 c-9 -14 3 -59 16 -59 16 0 49 20 49 30 0 13 -30 40 -45
40 -8 0 -17 -5 -20 -11z"/>
<path d="M3716 6474 c-8 -20 -8 -109 0 -117 4 -3 17 1 29 9 13 8 56 18 95 21
68 6 74 5 91 -18 10 -13 19 -32 19 -41 0 -17 28 -38 49 -38 15 0 14 18 -1 36
-40 46 -82 84 -94 84 -8 0 -14 4 -14 9 0 13 -122 71 -148 71 -11 0 -23 -7 -26
-16z"/>
<path d="M5180 6441 c0 -16 -5 -33 -10 -36 -6 -3 -7 -17 -4 -31 5 -21 3 -24
-17 -22 -16 2 -24 -2 -24 -12 0 -10 14 -15 50 -17 28 -2 74 -8 104 -13 67 -12
188 -13 195 -2 3 5 -9 29 -27 53 -18 24 -32 56 -32 71 0 16 -4 28 -10 28 -5 0
-10 -8 -10 -18 0 -9 -4 -23 -9 -31 -6 -9 -4 -18 7 -26 26 -19 20 -25 -21 -25
-28 0 -44 6 -60 25 -27 31 -62 33 -69 5 -9 -36 -28 -15 -28 31 0 33 -4 44 -17
47 -14 3 -18 -3 -18 -27z"/>
<path d="M11430 6445 c0 -8 5 -15 10 -15 6 0 10 7 10 15 0 8 -4 15 -10 15 -5
0 -10 -7 -10 -15z"/>
<path d="M5573 6420 c-18 -11 -33 -26 -33 -34 0 -7 -7 -19 -15 -26 -8 -7 -15
-24 -15 -38 0 -28 36 -92 53 -92 6 0 21 -10 35 -22 25 -25 25 -25 225 -16 53
3 100 8 104 12 4 4 -6 18 -22 31 -22 18 -38 23 -58 19 -19 -4 -29 -1 -33 11
-8 20 10 42 20 26 10 -15 37 -14 80 4 l37 16 -33 39 c-37 45 -44 47 -71 23
-18 -17 -20 -17 -37 5 -10 12 -23 22 -28 22 -5 0 -12 9 -15 20 -5 18 -14 20
-84 20 -60 0 -85 -5 -110 -20z m172 -34 c27 -1 30 -4 33 -40 3 -29 -2 -44 -19
-62 -26 -28 -39 -31 -39 -9 0 8 5 15 10 15 6 0 10 9 10 20 0 22 -15 27 -26 9
-5 -8 -12 -4 -23 10 -18 24 -51 20 -51 -5 0 -27 -38 -15 -45 13 -10 41 25 67
79 57 23 -4 55 -8 71 -8z"/>
<path d="M11909 6402 c-3 -20 -2 -29 4 -23 5 5 7 19 5 32 -3 20 -5 19 -9 -9z"/>
<path d="M12836 6394 c-18 -48 5 -117 34 -99 17 10 11 65 -9 91 -16 20 -20 21
-25 8z"/>
<path d="M4490 6372 c0 -4 7 -18 16 -31 16 -22 20 -23 122 -17 58 3 110 10
114 14 11 11 -86 24 -159 22 -28 0 -54 4 -58 9 -7 13 -35 15 -35 3z"/>
<path d="M4880 6350 c-25 -16 -5 -21 96 -23 97 -2 140 11 79 24 -47 10 -158
10 -175 -1z"/>
<path d="M12095 6320 c-8 -14 -36 -361 -29 -371 2 -5 15 -4 27 0 25 9 42 77
25 98 -6 7 -7 21 -3 30 9 23 9 107 0 159 -5 27 -3 44 4 48 16 10 13 46 -3 46
-8 0 -18 -5 -21 -10z"/>
<path d="M3808 6313 c-10 -2 -18 -9 -18 -14 0 -13 49 -31 62 -23 6 4 27 7 47
8 25 1 36 6 36 16 0 11 -13 15 -55 17 -30 0 -63 -1 -72 -4z"/>
<path d="M4336 6285 c-15 -19 -34 -35 -42 -35 -7 0 -14 -4 -14 -8 0 -17 13
-20 37 -9 21 9 32 7 69 -12 26 -14 50 -21 61 -16 17 6 17 7 1 19 -15 11 -23
36 -27 89 -1 4 -14 7 -30 7 -21 0 -36 -9 -55 -35z"/>
<path d="M6286 6311 c-3 -4 -26 -11 -51 -13 -25 -3 -54 -13 -64 -22 -9 -9 -32
-19 -49 -22 -51 -10 -26 -24 41 -23 88 1 161 20 165 42 6 30 -28 61 -42 38z"/>
<path d="M6927 6293 c12 -31 55 -108 69 -123 11 -13 12 -37 4 -132 -12 -142
-11 -515 0 -783 5 -110 12 -893 16 -1740 4 -1052 9 -1544 16 -1553 8 -9 6 -16
-5 -25 -14 -10 -15 -18 -7 -49 6 -21 15 -40 20 -43 6 -4 10 -42 10 -86 0 -45
4 -79 10 -79 18 0 60 79 60 113 0 31 -25 91 -50 122 -16 19 -4 35 25 35 13 0
37 11 53 25 17 14 35 25 42 25 10 0 10 3 0 15 -7 8 -20 15 -30 15 -57 0 -98
91 -82 180 10 55 8 654 -3 935 -6 134 -16 611 -18 790 0 28 1 194 2 370 1 278
-5 1136 -11 1325 -1 36 -1 103 0 150 5 185 -3 369 -15 382 -7 6 -13 22 -13 34
0 12 -15 35 -33 51 -18 16 -36 37 -40 46 -3 9 -11 17 -16 17 -6 0 -7 -8 -4
-17z"/>
<path d="M4723 6293 c-35 -7 -27 -29 16 -47 27 -10 77 -16 158 -17 74 -1 126
-6 138 -14 21 -14 218 -27 254 -18 11 3 21 11 21 18 0 17 -101 39 -140 30 -16
-4 -55 -1 -87 5 -31 7 -91 13 -133 15 -41 1 -97 10 -123 19 -48 16 -62 17
-104 9z"/>
<path d="M3427 6284 c-19 -20 30 -32 68 -18 13 5 14 8 3 15 -15 10 -62 12 -71
3z"/>
<path d="M3170 6234 c-6 -18 -20 -34 -31 -37 -46 -12 -1 -43 52 -35 31 4 36
44 9 78 l-19 25 -11 -31z"/>
<path d="M3735 6241 c-4 -13 -12 -17 -30 -13 -29 5 -32 -8 -9 -43 19 -30 62
-34 70 -7 3 9 11 29 19 44 15 30 11 38 -21 38 -13 0 -25 -8 -29 -19z"/>
<path d="M4604 6249 c-3 -6 -17 -8 -29 -5 -30 8 -74 -9 -82 -30 -8 -21 25 -47
47 -38 8 4 49 10 90 13 66 5 75 8 75 26 0 15 -7 20 -29 20 -16 0 -31 6 -33 13
-6 15 -29 16 -39 1z"/>
<path d="M3390 6211 c0 -6 -17 -11 -39 -11 -40 0 -63 -16 -42 -30 18 -11 285
1 297 13 4 4 0 7 -8 7 -9 0 -18 7 -22 15 -6 17 -46 21 -46 4 0 -12 -76 -8
-117 6 -15 5 -23 3 -23 -4z"/>
<path d="M2680 6192 c0 -11 -6 -23 -12 -26 -7 -3 25 -2 72 1 47 3 87 7 89 9
11 10 -14 18 -57 20 -26 0 -57 4 -70 8 -18 6 -22 4 -22 -12z"/>
<path d="M5426 6201 c-16 -3 -31 -11 -33 -17 -8 -25 101 -33 132 -10 18 13 17
15 -20 25 -22 6 -42 10 -45 10 -3 -1 -18 -4 -34 -8z"/>
<path d="M6454 6197 c-34 -19 5 -27 129 -27 131 0 174 8 146 26 -18 11 -256
12 -275 1z"/>
<path d="M12837 6136 c-6 -15 1 -26 15 -26 11 0 10 27 -1 34 -5 3 -11 0 -14
-8z"/>
<path d="M11458 6072 c-3 -11 -2 -25 2 -32 5 -8 9 -5 12 8 3 11 2 25 -2 32 -5
8 -9 5 -12 -8z"/>
<path d="M1046 5949 c4 -24 8 -102 9 -174 1 -71 7 -186 14 -255 6 -69 12 -187
12 -262 0 -76 3 -139 7 -142 4 -2 21 2 37 9 l30 12 -27 8 c-25 6 -28 12 -28
51 0 24 2 44 5 44 14 0 54 -57 55 -76 0 -22 17 -34 47 -34 12 0 13 3 4 13 -14
18 -47 130 -56 189 -3 25 -12 51 -19 58 -8 6 -17 44 -21 92 -4 45 -12 90 -18
100 -9 13 -9 26 0 47 7 20 8 56 2 113 -4 45 -6 93 -3 105 4 14 -1 28 -15 40
-14 12 -21 29 -21 55 0 20 -5 40 -11 44 -8 5 -9 -6 -3 -37z"/>
<path d="M12883 5969 c-11 -15 -22 -86 -27 -179 -2 -30 -9 -86 -16 -124 -10
-52 -11 -73 -2 -87 14 -22 17 -308 3 -354 -13 -46 -24 -547 -12 -565 18 -27
25 0 32 128 4 70 12 147 18 172 6 25 11 108 11 186 0 77 5 167 11 200 11 58
-1 172 -22 214 -9 18 7 256 21 320 12 53 1 111 -17 89z"/>
<path d="M500 5931 c0 -17 5 -31 10 -31 6 0 10 11 10 24 0 14 -4 28 -10 31 -6
4 -10 -7 -10 -24z"/>
<path d="M6400 5950 c-140 -4 -561 -8 -935 -10 -374 -1 -691 -5 -704 -9 l-25
-7 4 -169 c1 -94 4 -195 5 -225 1 -30 6 -405 10 -832 6 -629 10 -778 21 -778
7 0 16 9 19 20 4 11 3 455 0 985 l-7 965 698 1 c385 1 821 2 971 3 l272 1 5
-615 c3 -338 8 -772 12 -963 6 -295 5 -350 -7 -358 -8 -5 -62 -9 -120 -9 -117
0 -321 -11 -316 -17 2 -2 109 -6 238 -9 211 -6 236 -5 248 10 12 14 13 79 8
379 -3 228 -9 373 -16 391 -8 19 -11 211 -11 629 0 330 -3 604 -8 609 -14 14
-93 16 -362 8z"/>
<path d="M2654 5915 c-6 -14 32 -155 45 -168 7 -7 12 -5 16 9 18 55 25 64 51
64 17 0 38 -12 60 -35 38 -40 58 -44 75 -14 9 17 13 19 20 8 11 -19 22 -5 34
44 7 25 17 43 28 45 15 3 22 -3 65 -58 16 -20 22 -22 35 -12 25 21 132 24 779
26 609 1 617 1 644 -20 15 -11 32 -34 36 -50 10 -36 14 -716 4 -732 -11 -19
-26 -14 -26 8 0 23 -15 27 -24 5 -4 -11 -16 -13 -53 -8 -26 3 -56 10 -66 15
-10 5 -55 9 -100 9 -44 0 -85 4 -91 8 -7 6 -31 6 -59 0 -59 -11 -285 -3 -322
11 -50 19 -155 2 -155 -24 0 -10 24 -16 88 -20 48 -3 114 -8 147 -10 33 -3
165 -9 293 -15 182 -8 237 -8 253 2 24 15 39 -2 39 -45 0 -21 -5 -28 -20 -28
-17 0 -20 -7 -20 -42 0 -82 40 -92 44 -11 2 44 11 63 31 63 13 0 68 -52 118
-110 32 -37 40 -25 33 53 -3 39 -8 290 -12 557 l-5 485 -991 0 c-658 0 -992
-3 -994 -10z"/>
<path d="M11280 5886 c0 -20 5 -36 10 -36 6 0 10 13 10 29 0 17 -4 33 -10 36
-6 4 -10 -8 -10 -29z"/>
<path d="M1503 5723 c7 -158 15 -223 27 -223 9 0 34 130 27 137 -3 2 -1 19 3
37 5 22 1 58 -11 105 -20 80 -25 91 -41 91 -8 0 -9 -43 -5 -147z"/>
<path d="M10976 5843 c-7 -22 -6 -267 1 -307 12 -68 22 8 19 157 -2 150 -7
190 -20 150z"/>
<path d="M1704 5803 c-4 -16 -10 -33 -15 -38 -4 -6 -11 -30 -15 -54 -6 -39 -5
-43 12 -39 14 2 21 15 26 48 4 25 10 60 14 78 8 40 -13 45 -22 5z"/>
<path d="M1638 5612 c-15 -34 -22 -55 -49 -152 -18 -63 -21 -157 -5 -163 31
-12 58 61 72 188 16 142 17 165 7 165 -5 0 -16 -17 -25 -38z"/>
<path d="M2846 5592 c-7 -12 5 -52 15 -52 5 0 9 14 9 30 0 28 -13 40 -24 22z"/>
<path d="M2931 5530 l1 -45 8 35 c5 20 5 39 -1 45 -5 5 -9 -8 -8 -35z"/>
<path d="M2803 5498 c-2 -18 -6 -63 -9 -101 -7 -81 9 -84 43 -9 18 42 19 48 6
59 -11 9 -14 22 -9 47 6 30 4 36 -11 36 -13 0 -19 -9 -20 -32z"/>
<path d="M2043 5445 c0 -27 2 -38 4 -22 2 15 2 37 0 50 -2 12 -4 0 -4 -28z"/>
<path d="M903 5405 c0 -27 2 -38 4 -22 2 15 2 37 0 50 -2 12 -4 0 -4 -28z"/>
<path d="M10973 5388 c-4 -7 -9 -186 -10 -398 -1 -212 -2 -470 -2 -575 -1
-104 3 -264 8 -354 6 -90 8 -168 5 -173 -3 -4 5 -25 17 -45 22 -36 22 -36 32
-12 8 23 7 79 -11 404 -4 72 -5 150 -1 175 8 49 2 868 -7 937 -6 45 -18 61
-31 41z"/>
<path d="M2927 5333 c-11 -20 -15 -60 -8 -72 13 -21 38 -6 44 26 7 36 -21 72
-36 46z"/>
<path d="M1526 5304 c-11 -28 -6 -39 9 -20 8 11 15 23 15 28 0 14 -18 9 -24
-8z"/>
<path d="M2772 5282 c-23 -46 -25 -122 -12 -362 7 -127 10 -234 6 -237 -3 -3
-12 0 -20 6 -10 8 -16 9 -21 1 -7 -11 1 -710 9 -717 2 -2 21 0 43 6 28 8 70 8
155 -1 89 -9 123 -9 143 0 13 6 32 9 40 6 10 -4 15 0 15 11 0 10 -5 15 -13 12
-17 -6 -108 12 -121 24 -6 5 -23 9 -38 9 -40 0 -88 38 -88 69 -1 14 -7 37 -15
51 -8 14 -14 43 -15 66 0 22 -3 44 -7 48 -5 4 -9 31 -10 59 -6 210 -9 263 -16
274 -9 15 2 63 15 63 5 0 30 -12 55 -26 35 -21 61 -28 118 -30 80 -4 91 2 81
42 -5 19 -11 24 -25 19 -14 -4 -20 1 -24 25 -6 28 -27 43 -27 20 0 -6 -12 -15
-26 -20 -33 -13 -58 4 -50 34 6 26 -8 51 -23 42 -7 -5 -17 6 -26 28 -8 19 -19
37 -25 41 -5 3 -10 19 -10 35 0 23 6 31 24 36 32 8 66 -3 66 -22 0 -16 32 -19
58 -5 27 14 76 1 95 -26 18 -23 18 -26 2 -43 -15 -17 -15 -20 4 -51 12 -19 21
-42 21 -51 0 -10 9 -22 20 -28 11 -6 20 -18 20 -28 0 -9 7 -26 15 -36 14 -19
17 -19 68 -3 30 9 68 17 85 17 40 0 49 17 23 41 -19 18 -26 50 -24 106 1 11
15 40 32 64 38 51 38 62 5 84 -24 15 -29 15 -66 0 -38 -15 -42 -15 -87 6 -25
13 -59 33 -74 46 -16 13 -37 23 -48 23 -11 0 -37 11 -57 25 -61 42 -89 31 -56
-21 14 -20 22 -24 45 -19 28 6 40 -7 19 -20 -5 -3 -10 -17 -10 -30 0 -13 -4
-27 -10 -30 -14 -9 -101 45 -93 58 4 6 -1 8 -15 5 -18 -5 -20 -2 -15 27 3 21
-1 41 -12 59 -22 34 -37 24 -33 -22 2 -28 -1 -38 -14 -40 -13 -2 -17 9 -23 58
-10 85 3 99 57 59 23 -16 45 -29 51 -29 14 0 36 32 37 53 0 14 -5 16 -25 11
-25 -6 -55 9 -55 27 0 5 9 17 20 26 26 22 25 27 -5 41 -14 7 -30 23 -35 37
-14 36 -60 35 -78 -3z m53 -44 c14 -3 19 -11 17 -28 -1 -14 -6 -28 -10 -32
-14 -13 -39 18 -46 57 -5 34 -4 37 7 24 7 -9 21 -19 32 -21z m363 -315 c30
-29 52 -67 52 -91 0 -13 7 -30 16 -39 8 -9 13 -22 10 -30 -3 -8 -6 -21 -6 -29
0 -24 -20 -15 -31 13 -6 15 -14 30 -18 33 -15 10 -72 140 -66 150 9 15 24 12
43 -7z"/>
<path d="M3107 5243 c-4 -4 -5 -21 -1 -38 4 -22 -1 -44 -17 -74 -15 -30 -19
-45 -11 -53 8 -8 13 -3 17 15 4 14 13 31 21 38 9 7 14 31 14 65 0 50 -7 64
-23 47z"/>
<path d="M1558 5226 c-9 -9 -26 -16 -37 -16 -14 0 -21 -6 -21 -20 0 -11 6 -20
14 -20 22 0 70 44 64 60 -3 10 -8 9 -20 -4z"/>
<path d="M3001 5231 c-20 -13 4 -51 33 -51 23 0 36 17 36 46 0 16 -46 19 -69
5z"/>
<path d="M3180 5146 c0 -23 -7 -42 -21 -55 -14 -13 -19 -26 -15 -37 6 -16 9
-15 31 7 27 27 40 108 18 116 -9 3 -13 -7 -13 -31z"/>
<path d="M3242 5111 c2 -7 7 -12 11 -12 12 1 9 15 -3 20 -7 2 -11 -2 -8 -8z"/>
<path d="M3045 5060 c10 -11 20 -18 23 -15 7 6 -18 35 -31 35 -5 0 -2 -9 8
-20z"/>
<path d="M1067 5032 c-24 -54 -22 -74 6 -70 19 3 22 10 25 56 4 62 -8 67 -31
14z"/>
<path d="M3380 5046 c-19 -6 -41 -15 -47 -19 -14 -9 -18 -51 -5 -45 4 2 19 10
34 17 56 28 179 -18 163 -62 -4 -9 -16 -17 -26 -17 -28 0 -45 -43 -31 -75 16
-34 14 -71 -3 -120 -12 -35 -12 -41 1 -56 12 -14 14 -32 10 -84 l-6 -66 35
-15 c19 -7 44 -14 55 -14 11 0 23 -7 26 -15 10 -26 34 -17 34 12 0 31 -37 114
-57 126 -24 14 -14 27 22 27 35 0 35 1 35 43 0 30 -6 48 -20 60 -11 9 -20 23
-20 30 0 7 9 29 20 50 11 20 20 48 20 61 0 13 7 29 15 36 15 13 21 90 8 104
-4 4 -15 -3 -25 -16 -17 -22 -17 -23 -31 -4 -14 19 -14 19 -25 0 -10 -18 -11
-18 -29 -1 -11 9 -26 17 -34 17 -8 0 -27 9 -44 20 -16 11 -32 19 -35 19 -3 -1
-21 -6 -40 -13z"/>
<path d="M3233 5033 c-15 -5 -18 -33 -4 -33 13 0 33 28 24 33 -4 2 -14 2 -20
0z"/>
<path d="M3818 4963 c-10 -3 -18 -11 -18 -19 0 -8 -4 -14 -10 -14 -5 0 -10 -6
-10 -13 0 -8 -7 -28 -16 -45 -18 -37 -12 -52 21 -52 39 0 55 11 55 36 0 13 5
24 10 24 6 0 10 -8 10 -18 0 -30 9 -31 61 -10 38 16 53 18 61 10 14 -14 162
-15 193 -2 17 6 13 9 -20 15 -73 13 -190 46 -225 64 -39 20 -86 30 -112 24z
m32 -43 c0 -13 -11 -13 -30 0 -12 8 -11 10 8 10 12 0 22 -4 22 -10z"/>
<path d="M4933 4940 c-22 -9 -39 -43 -28 -60 3 -5 22 -12 43 -16 20 -4 49 -13
63 -22 30 -17 59 -11 59 12 0 19 -49 58 -62 50 -6 -4 -20 5 -32 19 -17 20 -26
24 -43 17z"/>
<path d="M4140 4809 c0 -10 5 -10 95 -13 46 -1 60 -4 60 -16 0 -13 -22 -15
-145 -13 -144 2 -210 6 -253 17 -12 3 -29 1 -37 -4 -11 -7 -4 -14 30 -29 40
-17 65 -19 221 -17 97 2 181 6 187 10 21 13 14 54 -10 62 -33 10 -148 12 -148
3z"/>
<path d="M4340 4800 c0 -6 7 -22 16 -35 15 -22 23 -25 81 -25 79 0 98 -9 113
-56 12 -36 9 -44 -22 -56 -14 -6 5 -58 22 -58 13 0 17 -8 16 -34 -1 -19 -5
-38 -9 -42 -14 -14 -117 -11 -117 3 0 8 11 18 24 22 24 10 40 36 30 52 -3 5
-22 9 -42 9 -21 0 -56 9 -77 21 -22 12 -53 28 -69 36 -26 14 -27 17 -11 26 13
7 27 5 52 -7 44 -21 83 -20 111 3 12 11 22 21 22 24 0 12 -212 6 -253 -8 -26
-9 -58 -12 -76 -9 -17 4 -65 3 -107 -1 -69 -6 -80 -10 -105 -38 -19 -21 -25
-35 -19 -41 6 -6 10 -20 10 -33 0 -13 5 -23 10 -23 6 0 10 7 10 15 0 27 38 55
74 55 19 0 38 -4 41 -10 3 -5 19 -10 34 -10 15 0 32 -5 38 -11 6 -6 60 -12
125 -13 63 -1 120 -6 126 -10 7 -4 12 -18 12 -31 0 -31 -20 -37 -134 -40 -50
-2 -200 -6 -333 -10 l-241 -8 -12 -26 c-13 -29 -3 -40 67 -72 34 -16 47 -17
70 -8 45 18 233 40 448 52 173 10 200 14 203 29 6 29 35 31 55 4 10 -15 24
-26 31 -26 24 0 35 -21 23 -42 -10 -16 -9 -22 7 -34 19 -14 19 -15 -7 -42 -28
-30 -35 -60 -16 -79 9 -9 4 -18 -15 -38 -24 -24 -33 -26 -66 -21 -32 5 -51 0
-99 -24 -55 -28 -69 -31 -176 -34 -81 -2 -119 -6 -125 -15 -5 -8 -18 -11 -36
-7 -40 8 -131 7 -249 -2 -96 -7 -100 -8 -98 -29 3 -24 -11 -31 -23 -12 -4 7
-21 9 -45 5 -32 -5 -39 -3 -44 15 -5 16 -10 18 -20 9 -18 -15 -36 -4 -28 16 3
9 0 33 -7 54 -11 35 -11 41 9 69 l22 30 -47 20 c-26 12 -52 21 -58 21 -16 0
-46 64 -46 96 0 23 3 25 27 19 24 -6 25 -5 13 10 -12 15 -12 19 3 30 20 15 23
65 4 65 -19 0 -47 -33 -47 -53 0 -9 -13 -29 -30 -44 -34 -30 -37 -44 -14 -78
15 -24 15 -25 -10 -36 -33 -15 -34 -39 -1 -39 31 0 50 -32 35 -59 -5 -11 -10
-40 -10 -66 0 -38 -4 -47 -22 -54 -13 -5 -30 -5 -40 0 -19 10 -31 -2 -22 -24
6 -17 -37 -28 -78 -20 -24 4 -28 2 -28 -16 0 -23 -2 -23 90 -26 36 -2 90 -5
120 -8 128 -12 516 -14 790 -4 162 6 337 11 388 11 l93 -1 -2 136 c-2 139 -12
181 -44 181 -8 0 -15 5 -15 10 0 6 4 10 10 10 5 0 17 11 26 25 19 30 21 140 2
180 -8 18 -8 28 1 39 17 20 13 196 -5 196 -7 0 -16 -4 -19 -10 -13 -21 -69
-11 -92 16 -32 37 -193 74 -193 44z m184 -685 c11 -8 32 -15 48 -15 45 0 34
-26 -16 -39 -57 -14 -83 -14 -92 0 -5 9 1 10 20 5 32 -8 50 20 23 36 -17 9
-23 28 -9 28 4 0 16 -7 26 -15z m-74 -25 c0 -15 -27 -23 -47 -16 -15 6 -15 8
-3 16 20 13 50 12 50 0z m-209 -21 c72 -15 46 -27 -62 -27 -85 0 -107 6 -94
28 8 13 91 13 156 -1z"/>
<path d="M3692 4783 c-20 -4 -17 -7 20 -27 24 -12 60 -25 81 -29 35 -5 37 -5
37 22 0 24 -5 30 -31 35 -33 6 -69 6 -107 -1z"/>
<path d="M3864 4674 c3 -9 6 -18 6 -20 0 -2 11 -4 25 -4 23 0 24 2 15 20 -13
24 -55 28 -46 4z"/>
<path d="M3690 4655 c-14 -7 -32 -16 -41 -18 -14 -5 -15 -11 -5 -42 13 -43 47
-56 76 -30 16 14 30 16 88 10 57 -6 70 -4 82 10 19 23 -1 34 -50 28 -33 -5
-39 -2 -45 18 -4 13 -13 27 -19 31 -18 12 -59 9 -86 -7z"/>
<path d="M3110 4466 c-9 -11 -5 -16 20 -21 41 -9 47 -2 16 18 -20 14 -26 14
-36 3z"/>
<path d="M3191 4446 c12 -10 59 -15 59 -6 0 5 -14 10 -32 10 -17 0 -29 -2 -27
-4z"/>
<path d="M3120 4355 c-20 -21 -21 -25 -6 -25 26 0 56 19 56 35 0 23 -24 18
-50 -10z"/>
<path d="M3476 4361 c-20 -33 57 -86 109 -77 45 9 48 40 5 55 -16 5 -30 15
-30 20 0 13 -77 15 -84 2z"/>
<path d="M4485 4354 c-9 -14 -15 -15 -34 -5 -12 7 -29 10 -36 7 -12 -4 -12 -9
0 -33 14 -26 14 -29 -5 -42 -26 -17 -26 -31 0 -31 11 0 20 7 20 15 0 13 7 15
34 10 42 -8 83 10 67 29 -6 7 -10 24 -9 37 4 28 -22 37 -37 13z"/>
<path d="M4185 4350 c-3 -5 -16 -10 -27 -10 -29 0 -14 -13 19 -16 27 -3 47 12
37 28 -7 11 -22 10 -29 -2z"/>
<path d="M4335 4299 c-10 -15 1 -23 20 -15 9 3 13 10 10 16 -8 13 -22 13 -30
-1z"/>
<path d="M3713 4293 c15 -2 39 -2 55 0 15 2 2 4 -28 4 -30 0 -43 -2 -27 -4z"/>
<path d="M3126 4257 c-27 -20 -14 -51 16 -41 25 7 39 24 35 39 -6 16 -31 17
-51 2z"/>
<path d="M4332 4228 c-8 -8 -52 -10 -144 -8 -320 9 -583 -1 -575 -23 3 -9 70
-12 238 -14 180 -1 249 -5 297 -17 45 -12 68 -14 81 -6 11 5 36 10 55 10 23 0
42 7 55 21 16 17 23 19 41 9 23 -12 50 -7 50 10 0 5 -13 10 -30 10 -16 0 -30
5 -30 10 0 14 -23 13 -38 -2z"/>
<path d="M3570 4156 c0 -16 44 -29 71 -21 40 13 13 35 -42 35 -18 0 -29 -5
-29 -14z"/>
<path d="M4000 4150 c0 -5 16 -10 35 -10 19 0 35 5 35 10 0 6 -16 10 -35 10
-19 0 -35 -4 -35 -10z"/>
<path d="M3145 4120 c-3 -5 3 -10 14 -10 12 0 21 5 21 10 0 6 -6 10 -14 10 -8
0 -18 -4 -21 -10z"/>
<path d="M3648 3833 l-988 -3 0 -268 c0 -147 4 -400 10 -562 5 -162 12 -493
15 -735 l6 -440 1003 -3 c957 -3 1004 -2 1008 15 7 31 -7 1411 -15 1419 -4 4
-10 5 -13 2 -3 -4 -8 -320 -11 -705 -3 -384 -6 -699 -7 -700 -1 -1 -436 -3
-966 -3 l-965 -2 0 974 0 973 973 1 c535 1 975 4 979 7 8 9 -17 38 -31 35 -6
-2 -455 -4 -998 -5z"/>
<path d="M4778 3833 c-17 -4 -18 -33 -18 -441 1 -240 5 -471 11 -512 7 -59 14
-432 19 -1052 0 -5 7 -8 15 -8 8 0 17 15 21 38 4 20 1 334 -6 697 -7 363 -15
789 -17 948 l-4 287 818 0 c450 0 877 3 950 7 72 3 143 3 157 -1 l25 -6 2
-253 c1 -138 3 -288 5 -332 1 -44 3 -366 3 -715 l2 -635 -23 -7 c-13 -3 -160
-7 -328 -9 l-305 -3 345 -6 c190 -3 346 -5 348 -4 1 1 2 448 2 995 0 921 -1
995 -17 1007 -13 9 -228 12 -1002 11 -542 -1 -994 -3 -1003 -6z"/>
<path d="M12800 3624 c0 -27 4 -43 10 -39 6 3 10 24 10 46 0 21 -4 39 -10 39
-5 0 -10 -21 -10 -46z"/>
<path d="M11152 3328 c2 -13 8 -23 13 -23 6 0 11 10 13 23 2 15 -2 22 -13 22
-11 0 -15 -7 -13 -22z"/>
<path d="M12737 3301 c-3 -13 -16 -21 -38 -24 -28 -3 -25 -4 14 -5 44 -2 47 0
47 23 0 30 -15 33 -23 6z"/>
<path d="M11930 2573 c0 -382 3 -624 9 -628 16 -9 21 63 27 360 7 312 6 386
-1 660 -3 107 -2 196 3 204 15 22 23 -3 28 -82 2 -40 9 -111 15 -158 7 -48 9
-115 5 -150 -4 -35 -9 -158 -11 -274 -3 -115 -7 -232 -9 -260 -2 -27 -2 -78 1
-113 5 -54 8 -62 23 -57 15 5 19 -3 25 -53 9 -78 20 -95 30 -45 5 21 7 43 6
48 -4 11 -9 476 -10 892 l-1 283 -70 -2 -69 -2 -1 -623z"/>
<path d="M3348 3163 c-2 -5 -3 -30 -3 -58 l1 -50 62 -3 62 -3 0 61 0 60 -59 0
c-33 0 -61 -3 -63 -7z"/>
<path d="M3627 3164 c-4 -4 -7 -32 -7 -61 l0 -54 63 3 62 3 0 55 0 55 -55 3
c-31 2 -59 0 -63 -4z"/>
<path d="M3910 3111 c0 -68 4 -70 75 -62 l50 6 -4 50 c-1 28 -5 53 -8 58 -2 4
-29 7 -59 7 l-54 0 0 -59z"/>
<path d="M3352 2828 l3 -62 40 -2 c71 -4 76 0 73 64 l-3 57 -58 3 -58 3 3 -63z"/>
<path d="M3627 2883 c-4 -3 -7 -28 -7 -54 0 -55 15 -69 72 -69 44 0 58 15 58
61 0 62 -6 69 -64 69 -29 0 -56 -3 -59 -7z"/>
<path d="M3917 2883 c-9 -8 -9 -86 -1 -107 8 -22 87 -22 108 0 18 18 21 66 6
95 -8 15 -21 19 -59 19 -26 0 -51 -3 -54 -7z"/>
<path d="M27 2853 c-22 -4 -27 -9 -27 -34 0 -32 6 -35 34 -14 15 11 51 15 147
15 70 0 130 -4 133 -9 3 -4 32 -21 63 -37 32 -16 63 -33 70 -39 7 -5 20 -16
28 -24 30 -24 36 3 10 41 -26 39 -91 78 -129 78 -14 0 -26 5 -28 11 -4 11
-243 20 -301 12z"/>
<path d="M4927 2815 c-17 -23 -17 -25 0 -45 10 -11 30 -20 46 -20 15 0 40 -9
55 -20 29 -22 62 -19 62 5 0 18 -70 75 -91 75 -9 0 -22 7 -29 15 -17 20 -22
19 -43 -10z"/>
<path d="M57 2739 c-20 -17 -37 -39 -37 -50 0 -19 15 -27 22 -11 2 4 20 18 41
31 22 14 37 30 35 39 -5 26 -22 24 -61 -9z"/>
<path d="M240 2741 c0 -11 48 -24 61 -16 5 4 7 11 4 16 -8 12 -65 12 -65 0z"/>
<path d="M980 2740 c0 -5 23 -10 50 -10 28 0 50 5 50 10 0 6 -22 10 -50 10
-27 0 -50 -4 -50 -10z"/>
<path d="M926 2721 c-18 -7 -18 -8 5 -14 35 -10 39 -9 39 8 0 16 -14 18 -44 6z"/>
<path d="M1110 2703 c0 -25 15 -38 25 -22 4 6 0 18 -9 27 -15 15 -16 15 -16
-5z"/>
<path d="M440 2673 c0 -9 19 -35 43 -57 39 -39 56 -60 99 -125 32 -47 18 -131
-21 -131 -19 0 -57 -47 -47 -57 3 -3 17 2 30 11 57 37 61 11 7 -44 -22 -22
-45 -56 -51 -75 -6 -19 -15 -35 -19 -35 -4 0 -16 -18 -26 -41 -26 -56 -63 -79
-143 -89 -38 -5 -80 -14 -96 -19 -15 -6 -65 -11 -111 -11 -46 0 -86 -4 -90 -9
-15 -25 208 -26 255 -1 13 7 84 12 183 13 l162 2 0 45 c0 25 6 49 13 53 7 5
12 29 12 56 0 43 16 95 52 168 10 19 7 26 -15 47 -18 16 -27 35 -27 54 0 16
-7 35 -15 42 -8 7 -15 22 -15 34 0 13 -11 33 -25 46 -14 13 -29 37 -33 53 -6
22 -18 33 -47 45 -22 9 -44 21 -48 29 -11 18 -27 16 -27 -4z m165 -503 c-3 -5
-16 -10 -28 -9 -21 0 -21 1 -2 9 28 12 37 12 30 0z m-5 -69 c0 -5 -12 -19 -26
-30 -44 -35 -83 -24 -69 19 5 16 15 20 51 20 24 0 44 -4 44 -9z"/>
<path d="M135 2655 c-38 -14 -80 -25 -91 -25 -23 0 -34 -17 -34 -51 0 -23 19
-24 67 -4 49 20 88 19 153 -6 76 -30 130 -36 130 -15 0 23 -58 85 -101 107
-46 23 -38 23 -124 -6z"/>
<path d="M857 2673 c-4 -3 -7 -17 -7 -30 0 -16 -19 -45 -54 -81 -71 -76 -117
-162 -86 -162 6 0 15 10 19 23 11 26 43 60 94 101 20 16 37 38 37 47 0 10 5
21 10 24 6 3 10 24 10 46 0 37 -8 48 -23 32z"/>
<path d="M1377 2613 c-31 -46 -37 -65 -35 -98 l3 -40 70 -7 c88 -9 99 5 75 94
-8 26 -17 38 -33 40 -15 2 -23 11 -25 28 -6 44 -17 41 -55 -17z"/>
<path d="M946 2633 c-17 -23 -16 -36 5 -39 5 -1 14 -2 20 -3 20 -2 -3 -21 -27
-21 -13 0 -24 -4 -24 -10 0 -9 18 -15 65 -22 14 -2 21 -12 23 -35 3 -28 7 -31
44 -35 52 -5 75 10 59 40 -6 11 -11 30 -11 41 0 24 -33 44 -59 36 -22 -7 -51
18 -51 45 0 28 -23 30 -44 3z"/>
<path d="M1211 2609 c-13 -11 -22 -21 -20 -23 2 -2 28 -6 57 -8 46 -4 52 -3
52 13 0 13 -7 19 -23 19 -13 0 -27 4 -32 9 -6 6 -19 2 -34 -10z"/>
<path d="M3357 2604 c-4 -4 -7 -34 -7 -66 l0 -58 60 0 61 0 -3 63 -3 62 -50 3
c-28 2 -54 0 -58 -4z"/>
<path d="M3667 2603 l-48 -4 3 -57 3 -57 60 0 60 0 3 54 c2 37 -1 57 -10 62
-7 5 -15 8 -18 7 -3 -1 -27 -3 -53 -5z"/>
<path d="M3921 2600 c-8 -4 -11 -27 -9 -61 l3 -54 60 0 60 0 2 53 c1 33 -3 55
-10 57 -29 9 -96 12 -106 5z"/>
<path d="M1605 2550 c-3 -5 -3 -15 0 -20 12 -19 79 -57 111 -63 29 -5 32 -3
37 20 8 42 0 54 -29 41 -20 -9 -31 -8 -63 10 -44 25 -48 26 -56 12z"/>
<path d="M1160 2531 c0 -24 21 -61 34 -61 24 0 28 18 10 45 -16 24 -44 34 -44
16z"/>
<path d="M133 2484 c-8 -21 13 -42 28 -27 13 13 5 43 -11 43 -6 0 -13 -7 -17
-16z"/>
<path d="M857 2476 c-7 -18 1 -26 25 -26 13 0 18 6 16 17 -4 22 -34 29 -41 9z"/>
<path d="M922 2473 c-6 -3 -10 -9 -6 -14 7 -12 44 -12 44 0 0 11 -21 19 -38
14z"/>
<path d="M766 2374 c-23 -30 -38 -64 -46 -102 -6 -31 -15 -76 -21 -99 -14 -53
-8 -61 37 -54 l36 6 2 95 c2 82 5 102 28 142 24 44 26 58 7 58 -5 0 -24 -21
-43 -46z"/>
<path d="M477 2294 c-8 -8 1 -24 14 -24 5 0 9 7 9 15 0 15 -12 20 -23 9z"/>
<path d="M10727 2083 c-4 -3 -2 -12 4 -19 13 -16 54 0 44 17 -7 10 -38 12 -48
2z"/>
<path d="M10875 2081 c-55 -8 -22 -21 55 -21 68 0 99 8 78 21 -14 10 -71 9
-133 0z"/>
<path d="M10623 2073 c9 -2 25 -2 35 0 9 3 1 5 -18 5 -19 0 -27 -2 -17 -5z"/>
<path d="M11150 2070 c0 -5 7 -10 15 -10 8 0 15 5 15 10 0 6 -7 10 -15 10 -8
0 -15 -4 -15 -10z"/>
<path d="M11412 2063 c2 -10 14 -19 26 -21 19 -3 23 1 20 15 -2 10 -14 19 -26
21 -19 3 -23 -1 -20 -15z"/>
<path d="M10081 2061 c-16 -10 -6 -31 15 -31 8 0 14 9 14 20 0 22 -7 25 -29
11z"/>
<path d="M12269 2019 c-10 -6 -4 -9 19 -9 17 0 32 2 32 4 0 9 -39 13 -51 5z"/>
<path d="M13115 2023 c-15 -4 -9 -9 25 -19 25 -8 52 -14 60 -14 13 0 13 2 0
14 -18 18 -57 26 -85 19z"/>
<path d="M11937 1914 c-4 -4 -29 -9 -55 -9 -26 -1 -65 -10 -87 -21 -37 -18
-40 -23 -45 -67 -7 -53 -3 -63 24 -68 10 -2 24 -12 30 -22 18 -29 -15 -44
-112 -52 -48 -4 -112 -12 -142 -16 -68 -11 -247 -35 -400 -54 -112 -13 -185
-24 -320 -45 -36 -6 -104 -15 -152 -20 -49 -6 -127 -14 -175 -20 -49 -5 -109
-14 -135 -21 -39 -9 -51 -8 -70 5 -25 18 -74 21 -83 6 -3 -6 2 -13 12 -16 10
-3 25 -10 33 -15 39 -24 72 -28 267 -29 193 -1 348 5 383 16 34 11 -16 22
-100 22 -48 0 -96 5 -106 11 -21 12 -25 11 116 16 91 2 219 21 281 41 26 7 80
14 120 14 41 1 101 7 134 15 33 8 87 15 120 15 34 0 87 7 118 15 32 8 76 15
98 15 23 0 56 7 75 16 23 11 48 14 81 10 27 -3 112 -9 191 -12 l143 -7 24 -52
c14 -28 25 -57 25 -64 0 -13 40 -74 53 -79 4 -2 7 -12 7 -23 0 -11 6 -22 14
-25 8 -3 18 -19 21 -35 4 -16 11 -29 16 -29 15 0 10 50 -6 56 -8 4 -15 17 -15
29 0 13 -4 26 -9 29 -5 3 -12 18 -16 33 -4 16 -15 36 -26 46 -10 10 -19 28
-19 41 0 13 -7 36 -15 53 -8 16 -16 40 -17 53 -3 22 2 25 45 33 39 8 52 6 75
-9 50 -34 96 -47 182 -50 47 -2 99 -9 115 -14 17 -5 57 -12 90 -15 34 -2 77
-11 98 -20 20 -8 50 -15 66 -15 16 0 33 -5 36 -10 12 -20 85 -50 119 -50 41 0
69 32 59 68 -5 19 -12 22 -54 22 -26 0 -50 4 -53 9 -4 5 -25 12 -49 16 -23 4
-64 13 -92 20 -27 8 -129 28 -225 45 -96 17 -194 35 -218 40 -57 13 -109 13
-118 -2 -10 -16 -34 20 -34 52 0 31 -75 99 -91 83 -12 -12 5 -63 21 -63 23 0
6 -16 -39 -38 -45 -22 -53 -23 -105 -12 -57 12 -76 30 -32 30 14 0 28 5 31 10
3 6 1 10 -5 10 -6 0 -15 11 -20 25 -10 26 -24 32 -35 15 -12 -20 -22 -9 -31
31 -5 22 -13 37 -17 33z m4 -85 c14 -21 6 -61 -14 -73 -14 -9 -20 -7 -27 6 -6
9 -30 28 -55 43 -25 14 -43 31 -39 37 10 15 123 5 135 -13z"/>
<path d="M0 1863 c0 -49 -9 -46 135 -48 137 -3 364 -18 375 -25 7 -4 13 -30
13 -58 2 -58 -17 -86 -66 -97 l-32 -7 39 -14 c22 -8 42 -16 44 -19 3 -3 7 -51
8 -107 l3 -101 41 -40 c23 -21 43 -37 45 -35 2 2 4 22 4 43 0 22 1 130 3 240
1 110 2 225 2 255 l1 55 -307 0 -308 0 0 -42z"/>
<path d="M12054 1885 c-3 -13 -3 -32 0 -43 6 -19 7 -19 46 0 39 20 52 38 28
38 -7 0 -25 7 -40 14 -26 14 -28 13 -34 -9z"/>
<path d="M7177 1813 c-4 -3 -7 -26 -7 -49 0 -33 -6 -49 -25 -69 -14 -14 -30
-25 -35 -25 -6 0 -10 -4 -10 -9 0 -5 -13 -14 -30 -20 -29 -9 -30 -13 -30 -68
0 -49 -4 -60 -25 -78 -29 -24 -46 -95 -22 -95 8 0 20 7 27 15 11 14 14 13 25
-1 10 -14 9 -26 -1 -61 -12 -41 -12 -43 7 -43 11 0 23 10 28 23 5 13 16 29 25
36 20 17 22 71 2 71 -8 0 -16 -5 -18 -11 -2 -6 -10 1 -17 15 -12 22 -12 28 3
51 9 14 24 25 34 25 10 0 27 6 37 14 19 14 19 15 2 33 -21 24 -22 49 -1 57 36
14 143 17 602 19 313 1 482 5 482 12 0 6 -150 11 -427 12 -492 1 -633 8 -633
29 0 8 7 14 15 14 11 0 15 11 15 43 0 43 -11 72 -23 60z"/>
<path d="M11303 1761 c-17 -27 -93 -41 -183 -34 -41 3 -91 1 -110 -4 l-35 -10
35 -16 c34 -15 29 -15 -130 -18 -91 -1 -237 -4 -325 -5 -286 -5 -358 -30 -111
-38 76 -3 141 -8 144 -11 6 -6 -28 -8 -85 -5 -24 1 -64 -5 -90 -13 -27 -9 -67
-19 -90 -22 -24 -4 -43 -11 -43 -16 0 -13 63 -11 97 2 15 7 77 15 136 19 59 4
113 12 119 18 7 7 44 12 87 12 42 0 117 7 166 15 50 8 111 15 136 15 25 0 54
7 65 15 13 10 45 15 99 15 44 0 98 5 120 11 34 10 135 24 227 32 15 1 23 6 18
11 -5 5 -6 15 -3 22 4 10 -4 14 -29 14 -19 0 -38 -4 -43 -9 -6 -5 -29 -12 -52
-16 -34 -5 -45 -3 -62 14 -26 26 -43 27 -58 2z"/>
<path d="M11612 1761 c-11 -7 -10 -10 3 -15 24 -9 63 -7 69 3 10 16 -50 26
-72 12z"/>
<path d="M2540 1740 c-20 -20 -26 -65 -12 -86 7 -12 35 -17 88 -15 28 1 32 5
38 39 5 32 2 40 -20 60 -31 27 -68 28 -94 2z"/>
<path d="M6875 1750 c-12 -4 -26 -14 -33 -22 -15 -19 -9 -151 7 -156 18 -6 43
19 36 36 -8 21 13 32 46 25 23 -4 27 -1 33 27 10 54 7 65 -23 83 -32 19 -37
19 -66 7z"/>
<path d="M8770 1681 c-13 -26 -8 -28 72 -29 105 -1 98 28 -9 42 -45 6 -53 4
-63 -13z"/>
<path d="M8945 1680 c-9 -15 54 -42 83 -35 l27 7 -25 19 c-27 20 -75 25 -85 9z"/>
<path d="M9339 1674 c-17 -21 0 -31 69 -40 63 -8 93 9 48 26 -15 5 -38 10 -51
10 -13 0 -27 5 -30 10 -9 14 -21 12 -36 -6z"/>
<path d="M8535 1670 c3 -5 13 -10 21 -10 8 0 12 5 9 10 -3 6 -13 10 -21 10 -8
0 -12 -4 -9 -10z"/>
<path d="M8312 1663 c-46 -9 -8 -23 63 -23 71 0 103 11 69 24 -17 7 -95 6
-132 -1z"/>
<path d="M8590 1663 c0 -15 38 -20 100 -12 30 3 44 7 30 8 -14 1 -49 4 -77 7
-34 4 -53 3 -53 -3z"/>
<path d="M10068 1663 c-33 -8 -19 -23 21 -23 42 0 62 14 35 24 -17 6 -29 6
-56 -1z"/>
<path d="M13243 1647 c94 -7 131 -7 140 2 8 8 -25 11 -128 9 l-140 -1 128 -10z"/>
<path d="M13445 1650 c3 -5 17 -10 31 -10 13 0 24 5 24 10 0 6 -14 10 -31 10
-17 0 -28 -4 -24 -10z"/>
<path d="M9535 1630 c3 -5 39 -9 78 -9 65 1 68 2 32 10 -57 11 -117 11 -110
-1z"/>
<path d="M2623 1613 c-20 -7 -15 -23 7 -23 11 0 20 4 20 9 0 13 -12 19 -27 14z"/>
<path d="M2520 1595 c0 -17 2 -18 24 -9 18 7 12 24 -10 24 -8 0 -14 -7 -14
-15z"/>
<path d="M2718 1593 c-10 -2 -21 -15 -24 -29 -3 -13 -19 -33 -35 -45 -24 -17
-29 -28 -29 -61 0 -38 1 -40 26 -35 22 4 28 0 37 -23 l10 -27 50 13 c63 16 76
28 48 43 -37 20 -24 38 44 61 78 26 108 26 435 5 372 -25 2195 -23 2790 3 327
14 645 5 677 -20 6 -5 10 -15 7 -22 -7 -18 99 -62 159 -65 44 -2 33 25 -15 35
-56 12 -55 28 1 34 25 3 46 11 49 18 3 9 -15 12 -67 12 -77 0 -92 11 -88 63
l2 25 -1970 6 c-1083 3 -1997 8 -2030 10 -33 3 -68 2 -77 -1z"/>
<path d="M8695 1540 c-3 -6 2 -13 12 -16 10 -3 28 -10 41 -15 27 -10 29 2 4
24 -21 19 -48 22 -57 7z"/>
<path d="M12654 1531 c3 -5 15 -7 26 -4 28 7 25 13 -6 13 -14 0 -23 -4 -20 -9z"/>
<path d="M7215 1510 c-9 -15 4 -30 26 -30 23 0 26 25 3 34 -21 8 -22 8 -29 -4z"/>
<path d="M8820 1510 c0 -5 7 -10 15 -10 8 0 15 5 15 10 0 6 -7 10 -15 10 -8 0
-15 -4 -15 -10z"/>
<path d="M10993 1473 c15 -2 37 -2 50 0 12 2 0 4 -28 4 -27 0 -38 -2 -22 -4z"/>
<path d="M11297 1473 c-3 -5 8 -17 25 -27 25 -15 32 -16 39 -5 4 8 5 17 1 21
-13 12 -60 20 -65 11z"/>
<path d="M11406 1451 c-8 -12 20 -22 40 -14 13 5 13 7 2 14 -17 11 -35 11 -42
0z"/>
<path d="M2493 1405 c-3 -9 -3 -18 -1 -21 7 -7 58 17 58 28 0 15 -50 8 -57 -7z"/>
<path d="M2576 1389 c-13 -36 -11 -74 4 -74 10 0 16 12 18 34 4 36 -13 66 -22
40z"/>
<path d="M6770 1373 c0 -12 -7 -28 -15 -37 -8 -8 -15 -17 -15 -20 0 -3 7 -6
15 -6 10 0 15 -10 15 -30 0 -20 5 -30 15 -30 19 0 38 -38 29 -58 -14 -33 -10
-77 9 -90 10 -8 16 -21 12 -31 -3 -11 5 -22 25 -34 17 -10 30 -27 30 -38 0
-10 5 -19 11 -19 8 0 9 12 4 38 -14 69 -4 124 28 159 16 19 18 25 7 38 -7 8
-17 15 -22 15 -23 0 -67 42 -70 68 -2 16 -12 31 -25 37 -13 5 -23 12 -23 15 0
4 -7 15 -15 26 -14 19 -14 19 -15 -3z m87 -209 c8 -20 -13 -42 -27 -28 -12 12
-3 44 11 44 5 0 12 -7 16 -16z"/>
<path d="M7200 1356 c0 -10 9 -16 26 -16 19 0 25 -4 22 -17 -3 -15 -14 -18
-63 -18 -57 0 -60 -1 -60 -25 0 -22 4 -25 37 -26 20 -1 48 -9 62 -18 32 -20
46 -20 74 3 26 23 28 46 6 59 -10 5 -17 22 -18 38 -1 27 -4 29 -43 32 -34 2
-43 0 -43 -12z"/>
<path d="M12384 1356 c-5 -13 -2 -23 9 -31 21 -15 22 -42 2 -62 -17 -17 -16
-34 3 -41 7 -2 12 3 12 12 0 9 7 16 15 16 17 0 21 -36 4 -42 -6 -2 -9 -15 -6
-28 l4 -25 8 23 c4 13 13 21 19 19 11 -4 11 -12 0 -61 -6 -25 -5 -28 14 -22
19 6 20 4 15 -31 -5 -31 -3 -36 8 -25 22 21 30 13 23 -23 -5 -28 -3 -35 10
-35 10 0 16 -9 16 -25 0 -16 6 -25 15 -25 10 0 15 -10 15 -30 0 -32 9 -37 28
-18 8 8 10 3 6 -24 -4 -21 -2 -38 5 -42 14 -9 14 -43 1 -51 -6 -4 -25 5 -43
19 -55 45 -166 117 -227 147 -102 50 -107 37 -15 -40 58 -48 186 -131 204
-131 3 0 26 -14 50 -30 46 -32 104 -40 142 -20 44 24 11 55 -47 44 -42 -8 -46
12 -9 44 25 22 32 46 16 56 -5 3 -21 29 -36 58 -15 28 -31 59 -35 67 -5 9 -31
54 -58 101 -28 47 -62 110 -77 141 -14 31 -34 65 -44 75 -9 11 -22 28 -28 39
-11 19 -12 19 -19 1z"/>
<path d="M7322 1349 c2 -6 7 -10 11 -10 4 1 14 1 22 1 8 0 15 5 15 10 0 6 -12
10 -26 10 -14 0 -24 -5 -22 -11z"/>
<path d="M6925 1339 c-9 -13 3 -59 15 -59 5 0 14 9 20 21 17 30 -17 67 -35 38z"/>
<path d="M2657 1223 c-5 -115 -5 -119 20 -151 20 -27 27 -31 39 -21 12 10 12
14 1 28 -19 22 -28 63 -17 76 5 6 6 48 2 95 -5 66 -11 85 -23 88 -14 2 -17
-14 -22 -115z"/>
<path d="M12352 1303 c5 -25 28 -28 28 -4 0 12 -6 21 -16 21 -9 0 -14 -7 -12
-17z"/>
<path d="M2840 1235 c0 -3 7 -17 16 -30 8 -13 19 -45 24 -72 l8 -48 1 51 c1
35 -4 56 -14 64 -8 7 -15 19 -15 26 0 8 -4 14 -10 14 -5 0 -10 -2 -10 -5z"/>
<path d="M4072 1208 c6 -18 28 -21 28 -4 0 9 -7 16 -16 16 -9 0 -14 -5 -12
-12z"/>
<path d="M9347 1204 c-16 -16 -5 -25 26 -22 17 2 31 8 30 13 -3 12 -46 19 -56
9z"/>
<path d="M9445 1201 c-10 -17 32 -31 92 -30 51 1 54 2 25 9 -19 4 -39 13 -45
19 -13 13 -64 15 -72 2z"/>
<path d="M7037 1159 l-27 -40 26 -34 c15 -19 28 -35 30 -35 3 0 9 12 14 26 6
16 16 24 27 22 27 -5 26 -27 -1 -39 -14 -7 -26 -20 -26 -31 0 -14 8 -18 39
-18 l38 0 0 70 c0 47 -4 74 -14 81 -10 9 -11 15 -1 26 10 12 7 13 -18 7 -16
-4 -31 -8 -33 -10 -2 -2 -9 0 -15 5 -7 6 -21 -5 -39 -30z"/>
<path d="M3543 1180 c-19 -8 -43 -38 -43 -55 0 -3 9 -1 21 5 11 7 28 9 36 6 9
-4 24 1 33 9 10 9 26 15 35 13 10 -2 20 3 22 10 3 7 -4 12 -19 12 -12 0 -32 2
-43 5 -11 2 -30 0 -42 -5z"/>
<path d="M7326 1148 c-3 -13 -6 -51 -6 -85 0 -39 -5 -67 -14 -75 -7 -8 -16
-23 -20 -34 -11 -37 -114 -94 -169 -94 -40 0 -120 35 -155 68 l-35 32 -20 -20
c-14 -15 -26 -20 -45 -15 -32 7 -221 17 -347 19 -99 2 -182 12 -233 28 -24 7
-37 7 -45 -1 -14 -14 30 -50 63 -51 14 0 53 -7 85 -16 33 -8 122 -17 199 -20
76 -2 147 -9 157 -14 10 -6 42 -10 71 -10 30 0 78 -7 108 -15 83 -24 293 -32
322 -13 13 8 43 18 68 22 58 9 77 20 63 38 -6 7 -13 36 -17 64 -6 48 -5 52 26
80 18 16 41 31 52 34 29 8 32 30 4 30 -29 0 -39 8 -57 43 -17 33 -46 35 -55 5z"/>
<path d="M11992 1153 c4 -20 18 -26 37 -14 18 12 5 31 -20 31 -14 0 -19 -6
-17 -17z"/>
<path d="M12857 1163 c-13 -12 -7 -23 13 -23 13 0 18 5 14 15 -7 16 -17 19
-27 8z"/>
<path d="M11198 1146 c-17 -9 -41 -13 -63 -9 -20 3 -41 1 -49 -6 -9 -8 -28
-10 -50 -5 -24 4 -36 2 -36 -5 0 -6 11 -11 24 -11 13 0 29 -7 37 -16 12 -14
14 -14 25 1 8 11 20 15 33 10 12 -4 35 0 53 9 17 9 44 16 59 16 36 0 60 10 53
21 -8 14 -56 11 -86 -5z"/>
<path d="M1075 1141 c-10 -17 10 -20 35 -5 l25 13 -27 1 c-15 0 -29 -4 -33 -9z"/>
<path d="M1218 1138 c9 -9 15 -9 24 0 9 9 7 12 -12 12 -19 0 -21 -3 -12 -12z"/>
<path d="M5610 1140 c0 -5 6 -10 14 -10 8 0 18 5 21 10 3 6 -3 10 -14 10 -12
0 -21 -4 -21 -10z"/>
<path d="M2751 1111 c-17 -32 -13 -41 19 -41 35 0 39 18 11 44 -19 17 -20 17
-30 -3z"/>
<path d="M7516 1078 c17 -31 39 -48 61 -48 31 0 29 14 -6 39 -32 23 -66 28
-55 9z"/>
<path d="M13417 1084 c-4 -4 -7 -14 -7 -23 0 -11 3 -12 11 -4 6 6 10 16 7 23
-2 6 -7 8 -11 4z"/>
<path d="M5883 1053 c9 -2 25 -2 35 0 9 3 1 5 -18 5 -19 0 -27 -2 -17 -5z"/>
<path d="M12123 1050 c-36 -15 -27 -28 25 -33 26 -3 58 -7 71 -9 39 -5 34 17
-7 35 -43 19 -57 20 -89 7z"/>
<path d="M2316 971 c-7 -11 22 -23 35 -15 5 3 7 10 4 15 -8 12 -32 12 -39 0z"/>
<path d="M7448 913 c-32 -8 -20 -26 13 -19 17 3 38 6 45 6 8 0 14 5 14 10 0
10 -40 12 -72 3z"/>
<path d="M945 869 c-4 -6 -5 -13 -2 -16 8 -7 47 7 47 18 0 13 -37 11 -45 -2z"/>
<path d="M13467 874 c-9 -10 4 -34 19 -34 8 0 14 9 14 20 0 19 -19 27 -33 14z"/>
<path d="M2305 790 c-4 -6 6 -10 24 -10 16 0 33 5 36 10 4 6 -6 10 -24 10 -16
0 -33 -4 -36 -10z"/>
<path d="M2223 767 c5 -15 37 -22 37 -9 0 5 -9 12 -21 15 -13 3 -19 1 -16 -6z"/>
<path d="M4488 733 c-10 -2 -18 -11 -18 -19 0 -12 3 -12 20 -2 11 7 20 16 20
20 0 5 -1 7 -2 7 -2 -1 -11 -3 -20 -6z"/>
<path d="M356 714 c-4 -10 -2 -22 3 -27 14 -14 43 0 39 20 -4 24 -34 28 -42 7z"/>
<path d="M8865 700 c-3 -4 -19 -11 -35 -15 -42 -9 -37 -25 8 -26 87 -3 226 2
235 8 18 11 -37 31 -70 26 -18 -3 -38 -1 -45 4 -16 13 -85 15 -93 3z"/>
<path d="M13042 668 c5 -15 67 -18 71 -3 1 6 -15 11 -37 13 -28 3 -37 0 -34
-10z"/>
<path d="M13320 670 c-11 -7 -8 -11 14 -20 31 -11 54 -1 42 19 -9 13 -36 14
-56 1z"/>
<path d="M4683 574 c9 -10 187 -11 187 -1 0 4 -43 7 -97 7 -53 0 -93 -3 -90
-6z"/>
<path d="M450 560 c-46 -5 -55 -26 -10 -23 14 1 55 -3 92 -8 49 -8 72 -7 88 1
12 7 18 15 14 20 -12 10 -128 17 -184 10z"/>
<path d="M893 490 c-18 -20 -33 -40 -33 -44 0 -12 28 -6 33 8 3 8 21 16 39 18
35 3 52 33 26 49 -21 14 -31 9 -65 -31z"/>
<path d="M4413 523 c-25 -10 -13 -25 15 -18 16 3 41 1 55 -4 21 -8 27 -8 27 3
0 21 -63 33 -97 19z"/>
<path d="M1280 491 c0 -15 15 -21 39 -14 17 4 19 8 9 14 -18 12 -48 11 -48 0z"/>
<path d="M5882 493 c-12 -2 -20 -9 -17 -14 8 -12 85 -12 85 0 0 9 -26 22 -38
20 -4 -1 -17 -4 -30 -6z"/>
<path d="M10790 486 c0 -12 10 -16 36 -16 45 0 42 24 -4 28 -24 2 -32 -1 -32
-12z"/>
<path d="M3455 480 c3 -5 12 -10 20 -10 8 0 17 5 20 10 4 6 -5 10 -20 10 -15
0 -24 -4 -20 -10z"/>
<path d="M2405 470 c3 -5 13 -10 21 -10 8 0 14 5 14 10 0 6 -9 10 -21 10 -11
0 -17 -4 -14 -10z"/>
<path d="M6855 460 c-4 -6 5 -10 20 -10 15 0 24 4 20 10 -3 6 -12 10 -20 10
-8 0 -17 -4 -20 -10z"/>
<path d="M6980 460 c0 -5 9 -10 21 -10 11 0 17 5 14 10 -3 6 -13 10 -21 10 -8
0 -14 -4 -14 -10z"/>
<path d="M13440 450 c20 -13 60 -13 60 0 0 6 -17 10 -37 10 -28 0 -34 -3 -23
-10z"/>
<path d="M2318 441 c-79 -6 -129 -19 -82 -22 93 -6 161 -5 172 4 13 10 17 28
5 25 -5 0 -47 -4 -95 -7z"/>
<path d="M9122 428 c7 -19 31 -21 53 -4 19 15 18 15 -18 16 -27 0 -37 -4 -35
-12z"/>
<path d="M5887 423 c-12 -11 -7 -33 8 -39 20 -8 45 13 38 32 -5 14 -34 19 -46
7z"/>
<path d="M5630 401 c0 -11 26 -22 34 -14 12 12 5 23 -14 23 -11 0 -20 -4 -20
-9z"/>
<path d="M1212 378 c2 -12 10 -23 18 -23 22 0 19 39 -3 43 -15 3 -18 -1 -15
-20z"/>
<path d="M7495 370 c-3 -5 -2 -17 3 -27 9 -15 11 -14 20 4 15 27 -7 49 -23 23z"/>
<path d="M7584 367 c-10 -14 24 -18 65 -7 23 6 41 13 41 15 0 7 -102 0 -106
-8z"/>
<path d="M7800 370 c0 -5 12 -10 28 -10 21 0 24 2 12 10 -20 13 -40 13 -40 0z"/>
<path d="M1115 340 c-18 -8 -17 -9 8 -9 16 -1 26 3 22 9 -3 6 -7 10 -8 9 -1 0
-11 -4 -22 -9z"/>
<path d="M7367 343 c-16 -15 -5 -24 25 -21 41 4 50 28 11 28 -17 0 -33 -3 -36
-7z"/>
<path d="M12745 180 c3 -5 17 -10 31 -10 14 0 22 4 19 10 -3 6 -17 10 -31 10
-14 0 -22 -4 -19 -10z"/>
<path d="M12980 180 c-11 -7 -5 -10 23 -10 23 0 36 4 32 10 -8 13 -35 13 -55
0z"/>
<path d="M13135 180 c-3 -5 3 -10 15 -10 12 0 18 5 15 10 -3 6 -10 10 -15 10
-5 0 -12 -4 -15 -10z"/>
<path d="M13345 180 c-4 -6 11 -10 39 -10 25 0 48 5 51 10 4 6 -11 10 -39 10
-25 0 -48 -4 -51 -10z"/>
<path d="M7840 43 c0 -10 91 -25 99 -17 9 8 -7 14 -52 20 -29 4 -47 3 -47 -3z"/>
<path d="M2965 10 c-4 -6 18 -10 56 -10 34 0 59 3 55 7 -11 11 -104 14 -111 3z"/>
</g>
</svg>
